<?xml version="1.0" encoding="UTF-8"?>
<svg width="476px" height="374px" viewBox="0 0 476 374" version="1.1" xmlns="http://www.w3.org/2000/svg" xmlns:xlink="http://www.w3.org/1999/xlink">
    <!-- Generator: sketchtool 56.2 (101010) - https://sketch.com -->
    <title>8F0B0B2B-62D9-4648-A16E-C17451C87C47</title>
    <desc>Created with sketchtool.</desc>
    <g id="Landing-Page---Desktop" stroke="none" stroke-width="1" fill="none" fill-rule="evenodd">
        <g id="Landing-Page" transform="translate(-742.000000, -277.000000)" fill-rule="nonzero">
            <g id="Hero-|-Section" transform="translate(-145.000000, 0.000000)">
                <g id="Hero-image" transform="translate(0.000000, 72.000000)">
                    <g id="online_edu" transform="translate(887.000000, 205.000000)">
                        <path d="M428.376419,277 C443.626938,277 456,264.592708 456,249.3 L456,27.7 C456,12.4072917 443.626938,0 428.376419,0 L64.4157207,0 C54.244538,0 46,8.26734601 46,18.4666667 L46,258.533333 C46,268.732654 54.244538,277 64.4157207,277 L428.376419,277 L428.376419,277 Z" id="Path" fill="#717273"></path>
                        <path d="M449,154 L449,154 C450.657588,154 452,152.547368 452,150.753684 L452,133.246316 C452,131.452632 450.657588,130 449,130 L449,130 C447.342412,130 446,131.452632 446,133.246316 L446,150.753684 C446,152.547368 447.342412,154 449,154 Z" id="Path" fill="#1D3E85"></path>
                        <g id="Group" transform="translate(0.000000, 277.000000)">
                            <path d="M255.997445,54.05046 L24.1319454,54.05046 C10.9425538,54.05046 0.25589311,41.9655543 0.25589311,27.05046 L0.25589311,27.05046 C0.25589311,12.1353656 10.9425538,0.0504599832 24.1319454,0.0504599832 L255.997445,0.0504599832 L255.997445,54.05046 Z" id="Path" fill="#07B0E4"></path>
                            <path d="M472.496177,52.05046 L253.294495,52.05046 C240.105104,52.05046 229.418443,40.86436 229.418443,27.05046 L229.418443,27.05046 C229.418443,13.2509195 240.105104,2.05045998 253.294495,2.05045998 L472.496177,2.05045998 L472.496177,2.05045998 C451.247992,11.2980189 451.247992,42.8172607 472.496177,52.05046 L472.496177,52.05046 Z" id="Path" fill="#C6E9FA"></path>
                            <path d="M248.626902,46.2391392 C239.266689,46.2391392 231.658387,37.6353656 231.658387,27.05046 C231.658387,16.4655543 239.266689,7.86178074 248.626902,7.86178074 L475.774754,7.86178074 L475.774754,0.0504599832 L248.626902,0.0504599832 C235.437511,0.0504599832 224.75085,12.1353656 224.75085,27.05046 C224.75085,41.9655543 235.437511,54.05046 248.626902,54.05046 L475.774754,54.05046 L475.774754,46.2391392 L248.626902,46.2391392 Z" id="Path" fill="#0B7190"></path>
                            <g transform="translate(395.912613, 27.131536)" id="Path">
                                <polygon fill="#DA8207" points="37.3407443 69.4077069 22.8874736 56.9062461 8.43420296 69.4077069 8.43420296 17.2573143 37.3407443 17.2573143"></polygon>
                                <polygon fill="#1D3E85" points="8.43420296 17.2573143 0.400436936 17.2573143 0.400436936 0.580289807"></polygon>
                                <path d="M37.3407443,17.2573143 L8.43420296,17.2573143 L8.43420296,17.2573143 C3.57890511,15.2641449 0.400436936,10.5082915 0.400436936,5.22260826 L0.400436936,0.580289807 L29.3069782,0.580289807 L29.3069782,5.22260826 C29.3069782,10.5082915 32.4854464,15.2767599 37.3407443,17.2573143 L37.3407443,17.2573143 Z" fill="#F39208"></path>
                            </g>
                        </g>
                        <path d="M423.584279,277 C433.742951,277 442,268.720109 442,258.533333 L442,18.4666667 C442,8.2798913 433.742951,0 423.584279,0 L50.4157207,0 C40.2570487,0 32,8.2798913 32,18.4666667 L32,258.533333 C32,268.720109 40.2570487,277 50.4157207,277 L423.584279,277 L423.584279,277 Z" id="Path" fill="#B6D1DA"></path>
                        <path d="M428,253.777778 L428,23.2222222 C428,18.1349638 423.87554,14 418.801204,14 L55.198796,14 C50.1244601,14 46,18.1349638 46,23.2222222 L46,253.777778 C46,258.865036 50.1244601,263 55.198796,263 L418.801204,263 C423.888038,263 428,258.865036 428,253.777778 Z" id="Path" fill="#C6E9FA"></path>
                        <circle id="Oval" fill="#0371B6" cx="236.5" cy="6.5" r="3.5"></circle>
                        <g id="Group" transform="translate(45.000000, 52.000000)">
                            <path d="M149.514111,153.296887 C146.744635,152.883756 144.037816,153.321926 141.66935,154.398572 C140.30341,151.757033 133.097759,145.109369 125.34072,143.294093 C119.651389,141.954545 114.952052,143.669668 113.210165,144.408297 C113.348012,143.582034 113.41067,142.730732 113.348012,141.854392 C112.921939,136.083068 107.909312,131.751445 102.132261,132.177096 C98.5106381,132.439998 95.4529361,134.518175 93.7737063,137.447654 C89.3625951,128.246085 79.6506317,122.211859 68.8609536,123.000565 C56.9434346,123.864386 47.5322288,132.765495 45.5397098,144.020204 C41.0283462,140.702631 35.000663,140.877899 31.1409408,144.182952 C28.0957703,146.799453 26.7799559,151.06848 27.6571655,155.212316 C26.89274,155.137201 17.4940657,154.386053 11.3661301,161.822423 C6.92995584,167.205654 5.93996215,174.742177 8.8096907,181.277169 C5.68933084,182.103432 2.89479168,183.643286 0.576452023,185.658868 L0.576452023,202.296807 C0.576452023,207.379579 4.71186871,211.510895 9.79968439,211.510895 L84.1870585,211.510895 C115.691415,200.994816 137.283302,191.367597 151.055493,195.54899 C154.95281,190.816754 156.15584,184.619779 154.38889,179.249068 C157.972917,177.195929 160.629609,173.590416 161.293782,169.183678 C162.434155,161.57204 157.170897,154.448648 149.514111,153.296887 Z" id="Path" fill="#FFFFFF"></path>
                            <g transform="translate(245.618688, 14.368392)">
                                <path d="M137.960007,72.6924272 C137.558997,72.2166999 137.233176,71.7159342 136.807103,71.2652451 C137.208113,71.165092 137.58406,71.0399006 137.960007,70.90219 L137.960007,63.0652074 C137.671781,62.9525352 137.383555,62.8398629 137.082797,62.7522289 C138.135449,58.3705294 138.273296,53.8010427 137.295834,49.3442284 C133.724338,33.1820167 117.708997,22.9789164 101.530745,26.5468717 C98.5106381,18.0463747 91.8062504,11.348634 83.2973173,8.33152087 C69.1867743,3.32386428 53.8356063,9.53335846 46.918182,22.2903636 C46.7803348,22.0524999 46.6800823,21.8021171 46.5046404,21.5767726 C43.4344068,17.3828602 36.9806504,16.8820945 36.9806504,16.8820945 C36.9806504,16.8820945 35.840278,21.9022702 37.7826706,25.9584721 C33.3966226,26.0711444 29.0481693,27.0351182 25.075663,29.0256617 C16.3787564,33.382323 10.8272728,41.4070927 9.14804297,50.2706448 C4.8998422,48.8935393 0.125315657,50.6211808 0.125315657,50.6211808 C0.125315657,50.6211808 1.40353536,56.9558664 5.95249372,59.4972521 C6.91742428,60.0355752 7.95754423,60.3360346 8.99766419,60.5113026 C9.09791671,61.1497788 9.12297984,61.788255 9.26082707,62.4142121 C9.78715283,64.7427724 7.50640786,67.0337753 8.63424878,69.2621825 C5.62667301,71.7159342 6.32844069,74.8457196 4.74946341,78.3761175 C-0.889741166,90.9703738 4.74946341,105.742961 17.3562185,111.376574 C28.3213385,116.284078 40.9406252,112.641008 47.7452654,103.326766 L48.2089333,103.602188 C56.5424245,108.547248 61.7680874,116.747286 61.7680874,132.371175 C61.8182137,146.680553 60.8908778,160.977413 59.0236745,175.1616 L88.8362694,175.1616 C86.9690661,160.977413 86.0542618,146.680553 86.0918565,132.371175 C86.0918565,117.060265 91.1420775,108.885265 99.2500005,103.877609 C100.390373,105.342348 101.668593,106.706935 103.109723,107.883734 C113.661301,116.521942 129.137785,115.069721 137.960007,104.741429 L137.960007,72.6924272 L137.960007,72.6924272 Z M71.705619,117.310647 C70.2519574,109.335954 66.367172,103.464477 60.7154359,98.5820118 C65.9035041,97.3676551 70.6529675,94.5007717 74.1242112,90.2192253 C76.7809032,93.1361853 80.0641734,95.3145159 83.6607327,96.6415449 C77.4450761,102.037295 73.2094069,108.572287 71.705619,117.310647 Z" id="Shape" fill="#FFFFFF"></path>
                                <g transform="translate(55.138889, 0.048157)" fill="#F39208" id="Path">
                                    <path d="M50.7528412,10.2156194 C53.497254,6.28460902 52.0185293,0.513284801 52.0185293,0.513284801 C52.0185293,0.513284801 46.0785671,1.11420359 43.3466858,5.04521402 C40.6148045,8.97622444 42.0809977,14.7475487 42.0809977,14.7475487 C42.0809977,14.7475487 48.0084283,14.1466299 50.7528412,10.2156194 Z"></path>
                                    <g transform="translate(0.000000, 41.834663)">
                                        <path d="M9.11044828,5.8839965 C11.1781566,10.2031003 8.79715913,15.661446 8.79715913,15.661446 C8.79715913,15.661446 3.0326389,14.1090724 0.96493056,9.80248778 C-1.10277778,5.48338397 1.2782197,0.025038283 1.2782197,0.025038283 C1.2782197,0.025038283 7.06780306,1.57741183 9.11044828,5.8839965 Z"></path>
                                        <path d="M60.0136682,19.0584411 C53.1964965,21.3118866 45.5397098,16.7298808 45.5397098,16.7298808 C45.5397098,16.7298808 48.9482957,8.47976656 55.7654674,6.22632109 C62.5826392,3.97287563 70.2394258,8.55488141 70.2394258,8.55488141 C70.2394258,8.55488141 66.83084,16.8049956 60.0136682,19.0584411 Z"></path>
                                    </g>
                                </g>
                                <path d="M104.839079,30.7826493 C101.392898,34.6135066 94.9767366,34.4632769 94.9767366,34.4632769 C94.9767366,34.4632769 94.1621848,28.1160722 97.6083654,24.2852149 C101.054546,20.4543576 107.470708,20.6045873 107.470708,20.6045873 C107.470708,20.6045873 108.285259,26.951792 104.839079,30.7826493 Z" id="Path" fill="#F39208"></path>
                                <path d="M31.4667615,62.0636761 C26.6671718,62.0135995 22.8325127,57.456632 22.8325127,57.456632 C22.8325127,57.456632 26.7674244,52.9747794 31.5544825,53.0373751 C36.3415406,53.0999708 40.1887313,57.6444192 40.1887313,57.6444192 C40.1887313,57.6444192 36.2663512,62.1137527 31.4667615,62.0636761 Z" id="Path" fill="#F39208"></path>
                            </g>
                            <path d="M383.578695,205.409457 L383.578695,199.045394 C380.33302,198.586998 377.751517,198.709237 377.363038,198.732157 C378.240248,196.1957 376.924434,193.598124 373.879263,192.001378 C370.019541,189.976797 363.991858,189.877477 359.480494,191.902059 C357.500507,185.041401 348.089301,179.609411 336.15925,179.074615 C325.369572,178.5933 315.657609,182.275746 311.246498,187.891095 C309.579799,186.103352 306.522097,184.835123 302.887943,184.674685 C297.110892,184.414927 292.098265,187.065983 291.672192,190.580351 C291.609534,191.115146 291.672192,191.634662 291.810039,192.138897 C290.05562,191.688141 285.368815,190.641471 279.679484,191.458943 C271.922445,192.566733 264.716794,196.623536 263.350854,198.235562 C260.969856,197.578528 258.275569,197.31113 255.506093,197.563248 C247.861838,198.266121 242.586049,202.613242 243.726422,207.2736 C244.077305,208.686987 245.004641,209.955215 246.295393,211.032446 L374.355463,211.032446 C379.45581,211.032446 383.578695,208.511268 383.578695,205.409457 Z" id="Path" fill="#FFFFFF"></path>
                            <g transform="translate(166.669824, 112.672273)" id="Rectangle">
                                <rect fill="#68375E" transform="translate(30.108214, 30.089506) rotate(-180.000000) translate(-30.108214, -30.089506) " x="0.489858904" y="0.500515276" width="59.2367111" height="59.1779818"></rect>
                                <rect fill="#68375E" transform="translate(30.108214, 30.089506) rotate(-180.000000) translate(-30.108214, -30.089506) " x="0.489858904" y="0.500515276" width="59.2367111" height="59.1779818"></rect>
                                <rect fill="#FFFFFF" transform="translate(44.915638, 15.284369) rotate(-180.000000) translate(-44.915638, -15.284369) " x="35.8991763" y="6.27684716" width="18.0329231" height="18.0150446"></rect>
                            </g>
                            <g transform="translate(55.138889, 0.000000)">
                                <polygon id="Rectangle" fill="#8D5201" transform="translate(141.631254, 32.094447) rotate(-90.000000) translate(-141.631254, -32.094447) " points="117.287784 28.6357345 165.974725 28.6357345 165.974725 35.5531588 117.287784 35.5531588"></polygon>
                                <rect id="Rectangle" fill="#F39208" x="138.173044" y="7.74934858" width="24.2611112" height="25.1008787"></rect>
                                <rect id="Rectangle" fill="#F39208" x="150.554231" y="0.125191415" width="25.3012312" height="25.1008787"></rect>
                                <path d="M162.446686,7.74934858 L150.554231,7.74934858 L150.554231,0.125191415 L151.180809,1.06412703 C152.358776,2.82932597 154.326232,3.91849128 156.456598,3.98108699 L156.456598,3.98108699 C158.361396,4.03116356 160.15341,4.9200226 161.35644,6.3972813 L162.446686,7.74934858 Z" id="Path" fill="#8D5201"></path>
                                <path d="M138.210638,53.181313 L138.210638,39.1223171 C138.210638,38.1708624 138.987595,37.3946756 139.939994,37.3946756 L139.939994,37.3946756 C140.892393,37.3946756 141.66935,38.1708624 141.66935,39.1223171 L141.66935,53.181313 L138.210638,53.181313 Z" id="Path" fill="#F39208"></path>
                                <rect id="Rectangle" fill="#FBC374" transform="translate(141.645415, 138.184656) rotate(-180.000000) translate(-141.645415, -138.184656) " x="0.41466951" y="64.853785" width="282.461491" height="146.661742"></rect>
                                <rect id="Rectangle" fill="#DA8207" transform="translate(205.034586, 148.299486) rotate(-180.000000) translate(-205.034586, -148.299486) " x="196.719892" y="84.7994863" width="16.6293877" height="127"></rect>
                                <rect id="Rectangle" fill="#FBC374" transform="translate(141.639149, 132.286763) rotate(-180.000000) translate(-141.639149, -132.286763) " x="86.5691838" y="53.1970871" width="110.139931" height="158.179353"></rect>
                                <g transform="translate(240.606062, 107.579692)" id="Rectangle">
                                    <rect fill="#AAD4EC" x="0.651641417" y="25.6767592" width="26.028062" height="20.5814686"></rect>
                                    <rect fill="#FFFFFF" x="0.651641417" y="0.638476216" width="26.028062" height="25.038283"></rect>
                                    <rect fill="#2DAEE4" x="0.651641417" y="25.6767592" width="26.028062" height="3.25497679"></rect>
                                    <polygon fill="#AAD4EC" transform="translate(13.664419, 27.313136) rotate(-90.000000) translate(-13.664419, -27.313136) " points="12.0369309 25.6840326 15.2919077 25.6840326 15.2919077 28.9422397 12.0369309 28.9422397"></polygon>
                                </g>
                                <g transform="translate(208.023991, 107.579692)" id="Rectangle">
                                    <rect fill="#FFFFFF" x="1.3534091" y="0.638476216" width="24.9628789" height="17.6019129"></rect>
                                    <rect fill="#AAD4EC" x="0.288226012" y="18.2403891" width="26.028062" height="28.0178386"></rect>
                                    <rect fill="#2DAEE4" x="0.288226012" y="18.2403891" width="26.028062" height="3.25497679"></rect>
                                    <polygon fill="#FFFFFF" transform="translate(13.292608, 33.254596) rotate(-90.000000) translate(-13.292608, -33.254596) " points="0.291479275 31.625492 26.2937361 31.625492 26.2937361 34.8836991 0.291479275 34.8836991"></polygon>
                                    <polygon fill="#FFFFFF" transform="translate(46.248245, 37.608377) rotate(-90.000000) translate(-46.248245, -37.608377) " points="37.5912582 35.9792738 54.9052309 35.9792738 54.9052309 39.2374809 37.5912582 39.2374809"></polygon>
                                    <polygon fill="#AAD4EC" transform="translate(13.294613, 19.875890) rotate(-90.000000) translate(-13.294613, -19.875890) " points="11.6671244 18.2467862 14.9221011 18.2467862 14.9221011 21.5049933 11.6671244 21.5049933"></polygon>
                                    <rect fill="#2DAEE4" x="0.288226012" y="19.4297076" width="5.03768942" height="26.8285202"></rect>
                                    <rect fill="#AAD4EC" x="0.288226012" y="0.638476216" width="5.03768942" height="17.6019129"></rect>
                                </g>
                                <g transform="translate(240.606062, 172.198420)" id="Rectangle">
                                    <rect fill="#FFFFFF" x="0.651641417" y="0.230424778" width="26.028062" height="25.038283"></rect>
                                    <rect fill="#AAD4EC" x="0.651641417" y="25.2812269" width="26.028062" height="15"></rect>
                                    <rect fill="#2DAEE4" x="0.651641417" y="25.2812269" width="26.028062" height="3.25497679"></rect>
                                    <polygon fill="#FFFFFF" transform="translate(13.539201, 32.297222) rotate(-90.000000) translate(-13.539201, -32.297222) " points="5.5392005 30.7972224 21.5392005 30.7972224 21.5392005 33.7972224 5.5392005 33.7972224"></polygon>
                                    <polygon fill="#AAD4EC" transform="translate(13.675572, 26.906462) rotate(-90.000000) translate(-13.675572, -26.906462) " points="12.048084 25.2773583 15.3030607 25.2773583 15.3030607 28.5355654 12.048084 28.5355654"></polygon>
                                </g>
                                <g transform="translate(208.023991, 172.198420)" id="Rectangle">
                                    <rect fill="#FFFFFF" x="0.288226012" y="0.230424778" width="26.028062" height="25.038283"></rect>
                                    <rect fill="#AAD4EC" x="0.288226012" y="0.230424778" width="5.03768942" height="25.038283"></rect>
                                    <rect fill="#AAD4EC" x="0.288226012" y="25.2812269" width="26.028062" height="14"></rect>
                                    <rect fill="#2DAEE4" x="0.288226012" y="25.2812269" width="26.028062" height="3.25497679"></rect>
                                    <polygon fill="#FFFFFF" transform="translate(13.162251, 34.034952) rotate(-90.000000) translate(-13.162251, -34.034952) " points="7.662251 32.5349518 18.662251 32.5349518 18.662251 35.5349518 7.662251 35.5349518"></polygon>
                                    <polygon fill="#AAD4EC" transform="translate(13.296367, 26.902581) rotate(90.000000) translate(-13.296367, -26.902581) " points="11.6688788 25.2734774 14.9238556 25.2734774 14.9238556 28.5316844 11.6688788 28.5316844"></polygon>
                                    <rect fill="#2DAEE4" x="0.288226012" y="25.2812269" width="5" height="14"></rect>
                                </g>
                                <g transform="translate(48.873106, 152.252718)" id="Rectangle">
                                    <rect fill="#FFFFFF" x="0.0626578286" y="0.230424778" width="26.028062" height="17.6019129"></rect>
                                    <rect fill="#AAD4EC" x="0.0626578286" y="17.8323377" width="26.028062" height="28.0178386"></rect>
                                    <rect fill="#2DAEE4" x="0.0626578286" y="17.8323377" width="26.028062" height="3.25497679"></rect>
                                    <polygon fill="#FFFFFF" transform="translate(13.072553, 32.855057) rotate(-90.000000) translate(-13.072553, -32.855057) " points="0.0714249811 31.2259536 26.0736818 31.2259536 26.0736818 34.4841606 0.0714249811 34.4841606"></polygon>
                                    <polygon fill="#AAD4EC" transform="translate(13.074558, 19.463832) rotate(-90.000000) translate(-13.074558, -19.463832) " points="11.4470701 17.8347287 14.7020469 17.8347287 14.7020469 21.0929358 11.4470701 21.0929358"></polygon>
                                </g>
                                <g transform="translate(15.808859, 152.252718)" id="Rectangle">
                                    <rect fill="#FFFFFF" x="0.168887334" y="0.230424778" width="26.028062" height="17.6019129"></rect>
                                    <rect fill="#AAD4EC" x="0.168887334" y="17.8323377" width="26.028062" height="28.0178386"></rect>
                                    <rect fill="#2DAEE4" x="0.168887334" y="17.8323377" width="26.028062" height="3.25497679"></rect>
                                    <polygon fill="#FFFFFF" transform="translate(13.181415, 32.857686) rotate(-90.000000) translate(-13.181415, -32.857686) " points="0.180286115 31.2285826 26.182543 31.2285826 26.182543 34.4867897 0.180286115 34.4867897"></polygon>
                                    <polygon fill="#AAD4EC" transform="translate(13.183420, 19.466461) rotate(-90.000000) translate(-13.183420, -19.466461) " points="11.5559312 17.8373577 14.810908 17.8373577 14.810908 21.0955648 11.5559312 21.0955648"></polygon>
                                </g>
                                <g transform="translate(48.873106, 87.633990)" id="Rectangle">
                                    <rect fill="#FFFFFF" x="0.0626578286" y="0.638476216" width="26.028062" height="36.2053572"></rect>
                                    <rect fill="#AAD4EC" x="0.0626578286" y="36.8438334" width="26.028062" height="9.41439439"></rect>
                                    <rect fill="#2DAEE4" x="0.0626578286" y="36.8438334" width="26.028062" height="3.25497679"></rect>
                                    <polygon fill="#FFFFFF" transform="translate(13.074057, 33.261606) rotate(-90.000000) translate(-13.074057, -33.261606) " points="0.072928769 31.6325027 26.0751856 31.6325027 26.0751856 34.8907098 0.072928769 34.8907098"></polygon>
                                    <rect fill="#AAD4EC" transform="translate(13.079947, 38.469945) rotate(-90.000000) translate(-13.079947, -38.469945) " x="11.4524586" y="36.8408411" width="3.25497679" height="3.25820709"></rect>
                                </g>
                                <g transform="translate(15.808859, 87.633990)" id="Rectangle">
                                    <rect fill="#FFFFFF" x="0.168887334" y="0.638476216" width="26.028062" height="25.038283"></rect>
                                    <rect fill="#AAD4EC" x="0.168887334" y="25.6767592" width="26.028062" height="20.5814686"></rect>
                                    <rect fill="#2DAEE4" x="0.168887334" y="25.6767592" width="26.028062" height="3.25497679"></rect>
                                    <polygon fill="#FFFFFF" transform="translate(13.182918, 33.264235) rotate(-90.000000) translate(-13.182918, -33.264235) " points="0.181789903 31.6351317 26.1840468 31.6351317 26.1840468 34.8933388 0.181789903 34.8933388"></polygon>
                                    <polygon fill="#AAD4EC" transform="translate(13.181415, 27.312761) rotate(-90.000000) translate(-13.181415, -27.312761) " points="11.5539262 25.683657 14.8089029 25.683657 14.8089029 28.9418641 11.5539262 28.9418641"></polygon>
                                </g>
                                <rect id="Rectangle" fill="#F9A939" transform="translate(141.645415, 142.613177) rotate(-180.000000) translate(-141.645415, -142.613177) " x="102.885282" y="73.5575929" width="77.5202655" height="138.111169"></rect>
                                <polygon id="Path" fill="#FFFFFF" points="112.019666 211.661125 171.256377 211.661125 171.256377 152.483143 112.144982 152.483143"></polygon>
                                <rect id="Rectangle" fill="#5EB3DB" transform="translate(156.446573, 167.274384) rotate(-180.000000) translate(-156.446573, -167.274384) " x="147.430111" y="158.266861" width="18.0329231" height="18.0150446"></rect>
                                <rect id="Rectangle" fill="#5EB3DB" x="117.809249" y="158.279506" width="18.0329231" height="18.0150446"></rect>
                                <polygon id="Path" fill="#DA8207" points="180.40442 73.5499562 180.40442 80.1225055 109.337911 80.1225055 109.325379 211.661125 102.871623 211.661125 102.871623 73.5499562"></polygon>
                                <g transform="translate(144.883986, 87.633990)" id="Rectangle">
                                    <rect fill="#FFFFFF" x="0.219013596" y="0.638476216" width="26.028062" height="25.038283"></rect>
                                    <rect fill="#AAD4EC" x="0.219013596" y="25.6767592" width="26.028062" height="20.5814686"></rect>
                                    <rect fill="#2DAEE4" x="0.219013596" y="25.6767592" width="26.028062" height="3.25497679"></rect>
                                    <polygon fill="#FFFFFF" transform="translate(13.225651, 33.256724) rotate(-90.000000) translate(-13.225651, -33.256724) " points="0.224522542 31.6276202 26.2267794 31.6276202 26.2267794 34.8858273 0.224522542 34.8858273"></polygon>
                                    <polygon fill="#AAD4EC" transform="translate(13.224147, 27.318019) rotate(-90.000000) translate(-13.224147, -27.318019) " points="11.5966588 25.6889151 14.8516356 25.6889151 14.8516356 28.9471222 11.5966588 28.9471222"></polygon>
                                </g>
                                <g transform="translate(111.530935, 87.633990)" id="Rectangle">
                                    <rect fill="#FFFFFF" x="0.61404672" y="0.638476216" width="26.028062" height="25.038283"></rect>
                                    <rect fill="#AAD4EC" x="0.61404672" y="25.6767592" width="26.028062" height="20.5814686"></rect>
                                    <rect fill="#2DAEE4" x="0.61404672" y="25.6767592" width="26.028062" height="3.25497679"></rect>
                                    <polygon fill="#FFFFFF" transform="translate(13.623190, 33.259353) rotate(-90.000000) translate(-13.623190, -33.259353) " points="0.622061979 31.6302492 26.6243188 31.6302492 26.6243188 34.8884563 0.622061979 34.8884563"></polygon>
                                    <polygon fill="#AAD4EC" transform="translate(13.621812, 27.320522) rotate(-90.000000) translate(-13.621812, -27.320522) " points="11.9943235 25.6914189 15.2493003 25.6914189 15.2493003 28.949626 11.9943235 28.949626"></polygon>
                                </g>
                                <path d="M135.842172,200.844587 L135.842172,186.159634 C135.842172,185.245736 135.10281,184.494588 134.175474,184.494588 L134.175474,184.494588 C133.26067,184.494588 132.508776,185.233217 132.508776,186.159634 L132.508776,200.844587 C132.508776,201.758484 133.248138,202.509633 134.175474,202.509633 L134.175474,202.509633 C135.10281,202.509633 135.842172,201.758484 135.842172,200.844587 Z" id="Path" fill="#DA8207"></path>
                                <path d="M150.754736,200.844587 L150.754736,186.159634 C150.754736,185.245736 150.015373,184.494588 149.088037,184.494588 L149.088037,184.494588 C148.173233,184.494588 147.421339,185.233217 147.421339,186.159634 L147.421339,200.844587 C147.421339,201.758484 148.160701,202.509633 149.088037,202.509633 L149.088037,202.509633 C150.015373,202.509633 150.754736,201.758484 150.754736,200.844587 Z" id="Path" fill="#DA8207"></path>
                            </g>
                            <path d="M81.4927719,211.523414 C80.6030307,209.532871 78.7232958,206.090107 75.0766102,203.310858 C67.8458968,197.789916 57.9584914,198.140452 50.8530937,201.483063 C44.8630053,204.29987 41.5296088,208.944471 39.9882262,211.523414 L81.4927719,211.523414 Z" id="Path" fill="#FFFFFF"></path>
                            <path d="M100.641004,211.523414 C100.077084,210.2715 98.8865851,208.080651 96.580777,206.327971 C92.0067555,202.83513 85.7409726,203.047956 81.2421405,205.163691 C77.4450761,206.953928 75.3397731,209.883407 74.362311,211.523414 L100.641004,211.523414 Z" id="Path" fill="#FFFFFF"></path>
                            <g transform="translate(19.568329, 163.519946)" fill="#F39208" id="Path">
                                <path d="M5.78302878,15.2784328 C9.74300354,17.0811892 14.6428457,14.8152246 14.6428457,14.8152246 C14.6428457,14.8152246 13.1265263,9.63230003 9.17908308,7.82954366 C5.21910832,6.02678728 0.319266122,8.29275189 0.319266122,8.29275189 C0.319266122,8.29275189 1.82305401,13.4756765 5.78302878,15.2784328 Z"></path>
                                <path d="M15.8208129,5.58861733 C16.1967599,8.46801987 19.2168672,10.4335251 19.2168672,10.4335251 C19.2168672,10.4335251 21.6229278,7.74190967 21.2344493,4.87502627 C20.8585023,1.99562373 17.838395,0.0301185143 17.838395,0.0301185143 C17.838395,0.0301185143 15.4448659,2.70921479 15.8208129,5.58861733 Z"></path>
                                <path d="M10.1189505,29.537735 C12.6252637,28.0855146 13.2894366,24.5425975 13.2894366,24.5425975 C13.2894366,24.5425975 9.88085076,23.3657982 7.37453762,24.8180186 C4.86822448,26.2702391 4.20405149,29.8131561 4.20405149,29.8131561 C4.20405149,29.8131561 7.61263737,31.0024745 10.1189505,29.537735 Z"></path>
                            </g>
                        </g>
                        <path d="M61,80 C61,78.4352692 61.1007171,76.8581199 61.3902789,75.2437151 C63.2661355,64.7873393 72.0033466,56.2309938 82.6164143,54.4054745 C90.7870916,53.0021841 98.3282869,55.3368619 103.943267,59.9317063 C107.971952,63.2350269 113.196653,64.3899473 118.282869,63.1605159 C120.964462,62.5023355 123.897849,62.46508 126.919363,63.2101899 C133.239363,64.7625023 138.325578,70.0279457 139.6349,76.3241244 C139.899283,77.5659743 140,78.7954056 140,79.9875815 L61,79.9875815 L61,80 Z" id="Path" fill="#FFFFFF"></path>
                        <path d="M128,46 C128,44.8580393 128.063364,43.7029526 128.266129,42.521614 C129.571429,34.8691648 135.654378,28.6211959 143.042627,27.2954714 C148.732719,26.2716446 153.979263,27.9780226 157.895161,31.3382748 C160.695853,33.753456 164.332949,34.6066451 167.881336,33.7009521 C169.756912,33.2284166 171.797235,33.2021647 173.900922,33.74033 C178.298387,34.8691648 181.834101,38.7282043 182.746544,43.3222991 C182.923963,44.227992 183,45.120559 183,46 L128,46 L128,46 Z" id="Path" fill="#FFFFFF"></path>
                    </g>
                </g>
            </g>
        </g>
    </g>
</svg>