<?xml version="1.0" encoding="UTF-8"?>
<svg width="143px" height="130px" viewBox="0 0 143 130" version="1.1" xmlns="http://www.w3.org/2000/svg" xmlns:xlink="http://www.w3.org/1999/xlink">
    <!-- Generator: sketchtool 56.2 (101010) - https://sketch.com -->
    <title>9D7B18DF-9F54-4516-9AF8-17B9F97C4B98</title>
    <desc>Created with sketchtool.</desc>
    <g id="Landing-Page---Desktop" stroke="none" stroke-width="1" fill="none" fill-rule="evenodd">
        <g id="1.0.0.-Landing-Page---Default-(Homeschool)" transform="translate(-432.000000, -1799.000000)">
            <g id="How-it-works-|-Section" transform="translate(0.000000, 1380.000000)">
                <g id="Steps-section" transform="translate(0.000000, 364.000000)">
                    <g id="Step-2" transform="translate(423.000000, 40.000000)">
                        <g id="Ilus-Step-2">
                            <rect id="Rectangle" x="0" y="0" width="160" height="160"></rect>
                            <path d="M64.3866667,132.826667 C64.3866667,132.826667 75.6533333,152.493333 105.053333,136.213333 C134.453333,119.933333 159.493333,79.2533333 136.973333,53.5466667 C114.453333,27.84 109.44,16.8533333 76.28,26.36 C43.12,35.8666667 -8.81333333,84 16.2133333,98.92 C41.24,113.84 51.88,105.706667 64.3866667,132.826667 Z" id="Path" fill="#C5E0F9" fill-rule="nonzero"></path>
                            <path d="M121.160108,120.093333 C121.182167,124.315002 117.781624,127.757305 113.56,127.786667 L47.2666667,128.200108 C43.0449983,128.222167 39.6026948,124.821624 39.5733333,120.6 L38.9727612,23.7333333 C38.9484383,21.6978724 39.7368702,19.7366389 41.1636957,18.2847814 C42.5905212,16.8329239 44.5377472,16.0105054 46.5733333,16 L92.4666667,15.7066667 L120.68,43.5733333 L121.160108,120.093333 Z" id="Path" fill="#E9F6FF" fill-rule="nonzero"></path>
                            <polygon id="Path" fill="#D4EDFF" fill-rule="nonzero" points="95.1733333 41.2266667 120.813333 66.2266667 120.68 43.6133333 118.106667 41.08"></polygon>
                            <path d="M92.4666667,15.7466667 L92.5866667,36.1466667 C92.6160282,40.3682911 96.0583316,43.7688335 100.28,43.7467744 L120.68,43.6133333 L92.4666667,15.7466667 Z" id="Path" fill="#559DC9" fill-rule="nonzero"></path>
                            <polygon id="Rectangle" fill="#C5E1F9" fill-rule="nonzero" transform="translate(80.111639, 79.561775) rotate(-0.360000) translate(-80.111639, -79.561775) " points="54.6183057 77.0151078 105.604972 77.0151078 105.604972 82.1084412 54.6183057 82.1084412"></polygon>
                            <polygon id="Rectangle" fill="#C5E1F9" fill-rule="nonzero" transform="translate(80.175768, 89.767821) rotate(-0.360000) translate(-80.175768, -89.767821) " points="54.6824343 87.2144875 105.669101 87.2144875 105.669101 92.3211542 54.6824343 92.3211542"></polygon>
                            <polygon id="Rectangle" fill="#C5E1F9" fill-rule="nonzero" transform="translate(80.239813, 99.960534) rotate(-0.360000) translate(-80.239813, -99.960534) " points="54.7464792 97.4138674 105.733146 97.4138674 105.733146 102.507201 54.7464792 102.507201"></polygon>
                            <polygon id="Rectangle" fill="#C5E1F9" fill-rule="nonzero" transform="translate(73.687929, 69.402355) rotate(-0.360000) translate(-73.687929, -69.402355) " points="54.5679291 66.8556881 92.8079291 66.8556881 92.8079291 71.9490214 54.5679291 71.9490214"></polygon>
                            <g id="Group" transform="translate(133.333333, 14.666667)" fill-rule="nonzero">
                                <polygon id="Path" fill="#578FFF" points="15.12 2.13333333 7.48 7.42666667 0.36 5.8 8 0.493333333"></polygon>
                                <polygon id="Path" fill="#387BFF" points="3.21333333 14.4666667 0.36 5.8 7.48 7.42666667 10.3333333 16.1066667"></polygon>
                                <polygon id="Path" fill="#0063CB" points="10.3333333 16.1066667 7.48 7.42666667 15.12 2.13333333 17.9733333 10.8133333"></polygon>
                            </g>
                            <path d="M12.68,137.226667 L79.1466667,99.1866667 C79.5316219,100.125692 79.2615605,101.205937 78.48,101.853333 L13.6933333,138.96 L12.68,137.226667 Z" id="Path" fill="#E5AB1A" fill-rule="nonzero"></path>
                            <path d="M16.0933333,143.08 L13.6933333,138.96 L78.48,101.906667 L78.48,101.906667 C79.5734628,101.512316 80.7926799,101.953481 81.3806119,102.956232 C81.9685438,103.958983 81.7581212,105.238373 80.88,106 C80.88,106 80.88,106 80.88,106 L80.88,106 L16.0933333,143.08 Z" id="Path" fill="#FDBF14" fill-rule="nonzero"></path>
                            <path d="M80.88,106.013333 C81.8364632,105.650831 82.9175166,105.953526 83.5466667,106.76 L17.1066667,144.813333 L16.0933333,143.08 L80.88,106.013333 Z" id="Path" fill="#E5AB1A" fill-rule="nonzero"></path>
                            <path d="M83.5733333,106.773333 C82.9476897,105.962034 81.8660104,105.653755 80.9066667,106.013333 L80.9066667,106.013333 C80.9066667,106.013333 80.9066667,106.013333 80.9066667,106.013333 C81.7847878,105.251706 81.9952105,103.972316 81.4072785,102.969565 C80.8193465,101.966815 79.6001294,101.52565 78.5066667,101.92 L78.5066667,101.92 C79.2882272,101.272604 79.5582886,100.192358 79.1733333,99.2533333 L96.9466667,93.92 L83.5733333,106.773333 Z" id="Path" fill="#EAF4FE" fill-rule="nonzero"></path>
                            <path d="M83.5733333,106.773333 C82.9476897,105.962034 81.8660104,105.653755 80.9066667,106.013333 L80.9066667,106.013333 C80.9066667,106.013333 80.9066667,106.013333 80.9066667,106.013333 C81.7866667,105.333333 96.9066667,93.92 96.9066667,93.92 L83.5733333,106.773333 Z" id="Path" fill="#C5E1F9" fill-rule="nonzero"></path>
                            <path d="M92.8933333,97.7866667 C92.6381868,97.4583507 92.4022375,97.1155564 92.1866667,96.76 C91.9570914,96.352432 91.7565924,95.9291564 91.5866667,95.4933333 L96.92,93.9066667 L92.8933333,97.7866667 Z" id="Path" fill="#30363D" fill-rule="nonzero"></path>
                            <path d="M24.16,66.3866667 C18.5266956,66.3866667 13.96,61.8199711 13.96,56.1866667 C13.96,50.5533622 18.5266956,45.9866667 24.16,45.9866667 C29.7933044,45.9866667 34.36,50.5533622 34.36,56.1866667 C34.36,61.8199711 29.7933044,66.3866667 24.16,66.3866667 L24.16,66.3866667 Z M24.16,47.8666667 C20.7882689,47.8666667 17.748793,49.8984682 16.4597365,53.0140586 C15.17068,56.1296491 15.8860918,59.7150081 18.2721739,62.0972724 C20.6582559,64.4795368 24.2447559,65.1892065 27.3582782,63.8951627 C30.4718006,62.6011189 32.4987281,59.5583935 32.4933441,56.1866667 C32.4786614,51.5925459 28.7541384,47.8739821 24.16,47.8666667 L24.16,47.8666667 Z" id="Shape" fill="#F9D675" fill-rule="nonzero"></path>
                        </g>
                    </g>
                </g>
            </g>
        </g>
    </g>
</svg>