<?xml version="1.0" encoding="UTF-8"?>
<svg width="150px" height="139px" viewBox="0 0 150 139" version="1.1" xmlns="http://www.w3.org/2000/svg" xmlns:xlink="http://www.w3.org/1999/xlink">
    <!-- Generator: sketchtool 56.2 (101010) - https://sketch.com -->
    <title>5531BC51-98D4-41AB-86B4-D99AC0D9A19A</title>
    <desc>Created with sketchtool.</desc>
    <g id="Landing-Page---Desktop" stroke="none" stroke-width="1" fill="none" fill-rule="evenodd">
        <g id="1.0.0.-Landing-Page---Default-(Homeschool)" transform="translate(-705.000000, -1794.000000)">
            <g id="How-it-works-|-Section" transform="translate(0.000000, 1380.000000)">
                <g id="Steps-section" transform="translate(0.000000, 364.000000)">
                    <g id="Step-3" transform="translate(700.000000, 40.000000)">
                        <g id="Ilus-Step-3">
                            <rect id="Rectangle" x="0" y="0" width="160" height="160"></rect>
                            <path d="M151.093333,44.3333333 C146.333333,35.16 136.186667,28.7333333 125.253333,25.52 C114.32,22.3066667 102.586667,21.9333333 91.0266667,22.1733333 C75.2666667,22.4933333 58.9333333,24 45.4133333,31.12 C31.8933333,38.24 22.6666667,49.92 15.3866667,62.04 C10.2266667,70.6666667 5.77333333,80.76 9.72,89.84 C12.04,95.1733333 17.12,97.5066667 17.36,103.173333 C17.7066667,112 6.57333333,118.213333 5.45333333,126.92 C4.68,132.84 8.98666667,138.64 14.7866667,141.706667 C20.5866667,144.773333 27.7333333,145.506667 34.5466667,145.253333 C41.36,145 48.0933333,143.92 54.9066667,143.466667 C67.1066667,142.76 79.2933333,146.706667 91.4533333,147.786667 C103.613333,148.866667 116.173333,149.253333 127.813333,146 C139.453333,142.746667 150.146667,135.213333 153.44,124.946667 C158.066667,110.426667 147.853333,96.3333333 145.24,82.28 C144.68,79.3066667 143.613333,74.8133333 145.24,72.0266667 C146.866667,69.24 150.173333,67.4533333 151.64,64.3866667 C154.58668,57.9810288 154.384621,50.5689202 151.093333,44.3333333 Z" id="Path" fill="#8DCFFE" fill-rule="nonzero"></path>
                            <path d="M124.73335,120.306667 C124.738726,122.520144 123.408795,124.518419 121.364836,125.367973 C119.320876,126.217527 116.966336,125.750671 115.401166,124.185501 C113.835996,122.620331 113.369139,120.26579 114.218693,118.221831 C115.068247,116.177871 117.066522,114.847941 119.28,114.853317 C122.288752,114.860663 124.726004,117.297915 124.73335,120.306667 Z" id="Path" fill="#F9D675" fill-rule="nonzero"></path>
                            <path d="M117.493333,88 C125.12,71.4133333 121.333333,53.3333333 103.106667,44.9866667 C84.88,36.64 68.72,45.5733333 61.0933333,62.2266667 C55.1466667,75.2133333 62.1866667,83.8933333 64.9733333,98.2266667 C65.5333333,101.053333 60.1733333,108.72 60.1733333,108.72 L82.84,119.133333 C82.84,119.133333 85.1466667,110.053333 87.6533333,108.626667 C100.36,101.333333 111.533333,101.053333 117.493333,88 Z" id="Path" fill="#FDBF14" fill-rule="nonzero"></path>
                            <path d="M72.2,107.493333 C68.3333333,87.72 58.6133333,75.72 66.8666667,57.7733333 C68.5699344,54.0048589 70.6707323,50.4290327 73.1333333,47.1066667 C67.8904022,50.9990984 63.7541017,56.1924534 61.1333333,62.1733333 C55.1866667,75.16 62.2266667,83.84 65.0133333,98.1733333 C65.5733333,101 60.2133333,108.666667 60.2133333,108.666667 L70.6266667,113.44 C71.6933333,111.16 72.4666667,108.906667 72.2,107.493333 Z" id="Path" fill="#CCB060" fill-rule="nonzero"></path>
                            <path d="M78.0933333,69.8933333 L83.84,66.84 L81.44,65.8 L82.8933333,72.1466667 C83.0210647,72.6418691 83.369075,73.051016 83.8373683,73.2565447 C84.3056617,73.4620735 84.8423905,73.4412287 85.2933333,73.2 L91.04,70.1466667 L88.64,69.0933333 L90.0933333,75.44 C90.2210647,75.9352024 90.569075,76.3443493 91.0373683,76.5498781 C91.5056617,76.7554068 92.0423905,76.7345621 92.4933333,76.4933333 L98.24,73.44 L95.8533333,72.4 L97.3333333,78.7466667 C97.4610647,79.2418691 97.809075,79.651016 98.2773683,79.8565447 C98.7456617,80.0620735 99.2823905,80.0412287 99.7333333,79.8 L105.493333,76.7466667 L103.106667,75.6933333 L104.56,82.0533333 C104.783264,82.9298636 105.664914,83.4683213 106.546667,83.2666667 C107.37792,83.0213543 107.886134,82.1839566 107.72,81.3333333 L106.253333,74.9733333 C106.125909,74.4812761 105.779233,74.075178 105.313262,73.8721294 C104.847291,73.6690807 104.313821,73.6916513 103.866667,73.9333333 L98.0933333,76.9733333 L100.493333,78.0266667 L99.04,71.68 C98.9158069,71.1855423 98.5704449,70.7760323 98.1040334,70.5701859 C97.637622,70.3643395 97.1023286,70.3851803 96.6533333,70.6266667 L90.8933333,73.6666667 L93.3333333,74.6666667 L91.8933333,68.32 C91.765602,67.8247976 91.4175917,67.4156507 90.9492983,67.2101219 C90.481005,67.0045932 89.9442761,67.0254379 89.4933333,67.2666667 L83.7466667,70.32 L86.1466667,71.3733333 L84.6933333,65.0266667 C84.565602,64.5314643 84.2175917,64.1223174 83.7492983,63.9167886 C83.281005,63.7112599 82.7442761,63.7321046 82.2933333,63.9733333 L76.5466667,67.0266667 C76.0345859,67.3124791 75.713883,67.8497725 75.7051896,68.4361537 C75.696844,69.0225348 76.0018023,69.5689184 76.5053635,69.8694871 C77.0089248,70.1700557 77.634586,70.1791459 78.1466667,69.8933333 L78.0933333,69.8933333 Z" id="Path" fill="#FCECC0" fill-rule="nonzero"></path>
                            <path d="M77.92,74.4266667 L76.2533333,90.1466667 L76,92.3333333 L76.24,91.5333333 L73.1866667,98.2 L68.3466667,108.8 L67.2266667,111.253333 C66.7782724,112.029962 67.018907,113.021846 67.7733333,113.506667 C68.5477645,113.969937 69.5506166,113.726642 70.0266667,112.96 L72.6933333,107.173333 L77.3333333,97.08 L78.8133333,93.8266667 C79.0933862,93.2844221 79.2782927,92.698133 79.36,92.0933333 L80.32,83.1066667 C80.6133333,80.3066667 81,77.4933333 81.2133333,74.68 C81.2133333,74.68 81.2133333,74.5733333 81.2133333,74.52 C81.2285408,73.6146358 80.5181057,72.8627586 79.6133333,72.8265962 C78.7107091,72.8184805 77.9629468,73.5250275 77.92,74.4266667 Z" id="Path" fill="#FCECC0" fill-rule="nonzero"></path>
                            <path d="M96,81.3333333 L91.0933333,86.56 L84.3333333,93.7866667 C83.9282035,94.1349033 83.5855022,94.5497522 83.32,95.0133333 L82.1066667,97.68 L77.5866667,107.546667 L74.4266667,114.44 L74.4266667,114.546667 C73.9908261,115.329297 74.2286547,116.315416 74.9733333,116.813333 C75.7518204,117.277906 76.758868,117.03503 77.24,116.266667 L79.9066667,110.52 L84.5066667,100.466667 L86.0133333,97.1866667 C86.0133333,97.0933333 86.3333333,96.68 86.3066667,96.5733333 C86.28,96.4666667 85.92,96.9866667 86.0933333,96.8266667 C86.2666667,96.6666667 86.24,96.6666667 86.32,96.5866667 L92.5466667,89.92 C94.4533333,87.88 96.3866667,85.92 98.2666667,83.8133333 L98.3733333,83.7066667 C99.0287112,83.0512888 99.0287111,81.9887113 98.3733333,81.3333334 C97.7179554,80.6779555 96.6553779,80.6779555 96,81.3333333 L96,81.3333333 Z" id="Path" fill="#FCECC0" fill-rule="nonzero"></path>
                            <path d="M59.7866667,108.533333 L58.3466667,111.653333 C55.9823234,116.837691 58.2608707,122.957559 63.44,125.333333 L68.1333333,127.493333 C73.3249649,129.867625 79.4586239,127.588386 81.84,122.4 L83.28,119.266667 L59.7866667,108.533333 Z" id="Path" fill="#0450CF" fill-rule="nonzero"></path>
                            <polygon id="Rectangle" fill="#0561FC" fill-rule="nonzero" transform="translate(72.223669, 117.669071) rotate(-65.380000) translate(-72.223669, -117.669071) " points="70.8836687 109.595738 73.5636687 109.595738 73.5636687 125.742405 70.8836687 125.742405"></polygon>
                            <polygon id="Rectangle" fill="#0561FC" fill-rule="nonzero" transform="translate(68.136069, 121.126258) rotate(-65.380000) translate(-68.136069, -121.126258) " points="66.7960689 115.312925 69.4760689 115.312925 69.4760689 126.939591 66.7960689 126.939591"></polygon>
                            <path d="M26.8266667,54.6666728 C18.8330713,54.6519455 12.3635346,48.1625245 12.3733331,40.1689216 C12.3831539,32.1753188 18.8685985,25.7017959 26.8622059,25.7066912 C34.8558132,25.711592 41.3333333,32.1930578 41.3333333,40.1866667 C41.3297987,44.0305382 39.7994361,47.7155704 37.078908,50.4310975 C34.3583799,53.1466246 30.6705382,54.6702045 26.8266667,54.6666728 L26.8266667,54.6666728 Z M26.8266667,28.36 C22.036621,28.36 17.7184862,31.2461712 15.8866632,35.6721131 C14.0548401,40.0980551 15.0702665,45.1916946 18.4592479,48.5768597 C21.8482294,51.9620247 26.9430098,52.9717111 31.3668849,51.1349022 C35.79076,49.2980934 38.6720609,44.9767093 38.6666742,40.1866667 C38.6593087,33.6528228 33.3605147,28.36 26.8266667,28.36 Z" id="Shape" fill="#F9D675" fill-rule="nonzero"></path>
                            <path d="M32.2800162,128.653333 C32.287355,131.746115 29.7861255,134.259274 26.6933438,134.266651 C23.6005621,134.273996 21.0873984,131.772771 21.0800155,128.679989 C21.072665,125.587208 23.573885,123.074039 26.6666667,123.066651 C28.1518803,123.063126 29.5776694,123.649732 30.6303745,124.697436 C31.6830796,125.74514 32.276468,127.16812 32.2800162,128.653333 L32.2800162,128.653333 Z" id="Path" fill="#0063CB" fill-rule="nonzero"></path>
                            <path d="M117.333333,68.2133333 L96.08,46.9866667 L103.866667,17.9733333 L104.24,17.8666667 L132.88,10.1866667 L154.106667,31.4133333 L146.32,60.4266667 L145.946667,60.5333333 L117.333333,68.2133333 Z M97.5866667,46.5866667 L117.706667,66.6666667 L145.226667,59.2933333 L152.6,31.7866667 L132.48,11.6933333 L104.973333,19.08 L97.5866667,46.5866667 Z" id="Shape" fill="#FCECC0" fill-rule="nonzero"></path>
                        </g>
                    </g>
                </g>
            </g>
        </g>
    </g>
</svg>