<?xml version="1.0" encoding="UTF-8"?>
<svg width="156px" height="147px" viewBox="0 0 156 147" version="1.1" xmlns="http://www.w3.org/2000/svg" xmlns:xlink="http://www.w3.org/1999/xlink">
    <!-- Generator: sketchtool 56.2 (101010) - https://sketch.com -->
    <title>6BD7DBD6-4478-44FD-A2FE-F35692A51D7C</title>
    <desc>Created with sketchtool.</desc>
    <g id="Landing-Page---Desktop" stroke="none" stroke-width="1" fill="none" fill-rule="evenodd">
        <g id="1.0.0.-Landing-Page---Default-(Homeschool)" transform="translate(-130.000000, -1791.000000)">
            <g id="How-it-works-|-Section" transform="translate(0.000000, 1380.000000)">
                <g id="Steps-section" transform="translate(0.000000, 364.000000)">
                    <g id="Step-1" transform="translate(128.000000, 40.000000)">
                        <g id="Ilus-Step-1">
                            <rect id="Rectangle" x="0" y="0" width="160" height="160"></rect>
                            <circle id="Oval" fill="#8DCFFF" fill-rule="nonzero" transform="translate(86.168060, 86.485385) rotate(-0.200000) translate(-86.168060, -86.485385) " cx="86.1680598" cy="86.4853852" r="65.2666667"></circle>
                            <path d="M60.3733333,114.2 C63.5866667,123.533333 65.7866667,142.893333 69.4,153.96 L113.56,153.96 L116.466667,130.306667 C116.466667,130.306667 127.133333,131.2 128.066667,128.4 C134.826667,107.066667 141.28,86.8266667 115.893333,73.2933333 C110.56,70.4 77.1333333,71.36 77.1333333,71.36 C77.1333333,71.36 55.2266667,75.2133333 28.5733333,112.093333 C27.6933333,113.333333 56.6666667,103.453333 60.3733333,114.2 Z" id="Path" fill="#4758A0" fill-rule="nonzero"></path>
                            <path d="M72.8666667,87.72 L65.3333333,90.8133333 C65.3333333,90.8133333 62.4133333,92.1466667 63.0933333,92.56 C63.7733333,92.9733333 69.8266667,91.2266667 69.8266667,91.2266667 C71.2923556,91.9006247 72.6975099,92.6991092 74.0266667,93.6133333 C76.5466667,95.2933333 81.04,95.0133333 81.04,95.0133333 C81.04,95.0133333 96.4133333,125 110.146667,130.053333 C123.88,135.106667 125.84,132.853333 127.813333,129.213333 C129.786667,125.573333 129.333333,116.16 119.04,111.013333 C105.946667,104.466667 84.08,93.3333333 84.08,93.3333333 L77.3333333,86.2533333 L72.5733333,86.04 C72.5733333,86.04 70.6133333,87.3733333 69.4933333,88.28" id="Path" fill="#FCCEB4" fill-rule="nonzero"></path>
                            <path d="M61.7866667,107.28 C61.979756,107.645842 61.9608262,108.087326 61.7371302,108.435298 C61.5134342,108.78327 61.1196542,108.983778 60.7066667,108.96 L16.1466667,108.96 C15.1225685,108.888132 14.2306629,108.234759 13.8533333,107.28 L2.52,76.44 C2.18666667,75.5066667 2.66666667,75.1066667 3.58666667,75.1066667 L48.16,75.1066667 C49.1246614,75.0425249 50.0318132,75.5699388 50.4533333,76.44 L61.7866667,107.28 Z" id="Path" fill="#69AEEB" fill-rule="nonzero"></path>
                            <path d="M78.04,112.226667 C77.9827362,113.151745 77.1923952,113.858892 76.2666667,113.813333 L16.7733333,113.813333 C16.3315608,113.838727 15.8982733,113.684523 15.5718729,113.385741 C15.2454725,113.086959 15.0536611,112.668958 15.04,112.226667 L15.04,110.76 C15.0528082,109.796833 15.8113347,109.009132 16.7733333,108.96 L76.2666667,108.96 C77.2357521,109.007936 78.0065324,109.790307 78.04,110.76 L78.04,112.226667 Z" id="Path" fill="#9AC7F7" fill-rule="nonzero"></path>
                            <path d="M52.12,113.813333 L20.12,113.813333 C20.12,113.813333 11.7866667,117.706667 19.6933333,124.106667 C26.2133333,129.333333 33.3333333,125.666667 36.8533333,124.2 C40.3733333,122.733333 51.7066667,116 51.7066667,116 L56.7466667,116.6 L63.0533333,113.653333 C61.9914133,113.143237 60.7552533,113.143237 59.6933333,113.653333 C58.7904464,114.137523 57.7684486,114.354871 56.7466667,114.28 L54.8533333,113.226667 L56.1866667,111.76 L56.8133333,110.28 L53.8666667,111.973333 L52.12,113.813333 Z" id="Path" fill="#EDBEA6" fill-rule="nonzero"></path>
                            <path d="M54.4933333,114.306667 C54.4933333,114.306667 31.7466667,116.506667 26.04,117.08 C22.2533333,117.466667 18.76,119.053333 17.7866667,121.08 C18.1000616,122.287143 18.7858689,123.36484 19.7466667,124.16 C24.5689978,127.314773 30.692533,127.709513 35.88,125.2 C39.4533333,123.72 51.7066667,116 51.7066667,116 L56.7466667,116.613333 C56.9866667,116.133333 54.92,114.386667 54.4933333,114.306667 Z" id="Path" fill="#FCCEB4" fill-rule="nonzero"></path>
                            <path d="M127.293333,130.12 C125.813333,131.146667 125.32,131.96 122.906667,131.64 C119.2,131.146667 107.613333,124.533333 102.12,120.36 C93.4133333,113.693333 81.4933333,95.0266667 81.04,95.0266667 C81.8666667,96.6266667 96.8,125.093333 110.146667,130 C122.666667,134.666667 125.426667,133.186667 127.293333,130.12 Z" id="Path" fill="#EDBEA6" fill-rule="nonzero"></path>
                            <path d="M83.2133333,73.9733333 L83.2133333,73.9733333 C83.8133333,74.5866667 83.2133333,81.3066667 87.4666667,83.1466667 C88.6096103,83.3457439 89.7623589,83.4837177 90.92,83.56 C91.6593686,83.4713334 92.3905468,83.3242061 93.1066667,83.12 C103.52,80.1333333 98.0533333,68.5733333 98.8266667,68.5333333 C98.392967,68.0508339 97.9202574,67.6048815 97.4133333,67.2 C93.64,64.24 92.5866667,52.88 92.5866667,52.88 C92.5866667,52.88 75.76,54.9466667 82.0266667,61.4533333 C85.2133333,64.7733333 84.3333333,69.7333333 83.2133333,73.9733333 Z" id="Path" fill="#FCCEB4" fill-rule="nonzero"></path>
                            <path d="M82.7466667,53.12 C82.7466667,53.12 100.08,47.9333333 104.453333,43.3066667 C108.826667,38.68 100.026667,39.3066667 98.7466667,31.3066667 C97.4666667,23.3066667 90.9066667,3.08 87.1733333,15.5066667 C83.44,27.9333333 89.9333333,31.9466667 89.2266667,26.1733333 C88.52,20.4 90.6666667,4.70666667 74.4133333,7.88 C58.16,11.0533333 53.8533333,22.2266667 68.1333333,25.5733333 C82.4133333,28.92 50.1333333,13.3333333 52.1733333,24 C54.2133333,34.6666667 63.6933333,32.2133333 66.9866667,31.6666667 C70.28,31.12 52.76,25.3333333 56,36.4 C59.24,47.4666667 69.6666667,51.2266667 82.7466667,53.12 Z" id="Path" fill="#212A54" fill-rule="nonzero"></path>
                            <path d="M94.5333333,52.7733333 C94.5333333,52.7733333 91.8666667,56.4 97.2,68.4933333 C97.2,68.4933333 90.0933333,72.6666667 84.6533333,67.76 C84.639135,65.3944718 83.6788527,63.1330069 81.9866667,61.48 C75.7866667,54.9733333 94.5333333,52.7733333 94.5333333,52.7733333 Z" id="Path" fill="#E5B298" fill-rule="nonzero"></path>
                            <path d="M67.92,30.4133333 C67.92,30.4133333 66.1066667,39.0133333 69.8133333,51.7466667 C73.52,64.48 80.48,67.0533333 90.9066667,63.2133333 C101.333333,59.3733333 100.506667,46.2933333 99.6933333,43.2133333 C98.88,40.1333333 109.373333,40.68 105.746667,33.88 C102.12,27.08 98.2533333,30.6666667 98.2933333,33.6133333 C98.3333333,36.56 97.1466667,40.56 94.44,38.68 C91.7333333,36.8 94.1066667,24.7333333 89.2933333,27.48 C84.48,30.2266667 76,34.2266667 67.92,30.4133333 Z" id="Path" fill="#FCCEB4" fill-rule="nonzero"></path>
                            <path d="M78.4533333,49.1733333 L77.3333333,48.5733333 C77.9524606,47.2110456 78.2403089,45.7215448 78.1733333,44.2266667 L79.5066667,44.2266667 C79.5469966,45.9352182 79.1862341,47.629432 78.4533333,49.1733333 Z" id="Path" fill="#212A54" fill-rule="nonzero"></path>
                            <path d="M81.16,56.52 L80.7733333,56.52 L80.7733333,55.1866667 C82.932162,55.576538 85.0021925,54.1548791 85.4133333,52 L86.7466667,52.1866667 C86.246962,54.835278 83.8496668,56.6947552 81.16,56.52 Z" id="Path" fill="#212A54" fill-rule="nonzero"></path>
                            <path d="M70.84,50.4533333 L70.5733333,50.4533333 C67.2478596,50.3319331 64.4175346,47.994294 63.6699664,44.7516631 C62.9223982,41.5090321 64.4435828,38.1681799 67.3802454,36.6030835 C70.3169079,35.0379871 73.938403,35.6380444 76.2133333,38.0666667 C77.5709844,39.500898 78.2838233,41.4274898 78.1866667,43.4 L78.1866667,43.4 C78.043467,47.3573602 74.7999328,50.494935 70.84,50.5066667 L70.84,50.4533333 Z M70.84,37.0133333 C67.5177033,37.0153881 64.8150538,39.6892908 64.7774736,43.0113756 C64.7398933,46.3334604 67.3813631,49.067817 70.7027632,49.145027 C74.0241632,49.222237 76.789838,46.6135759 76.9066667,43.2933333 L76.9066667,43.2933333 C76.9642155,41.6853848 76.3792432,40.1206815 75.2809625,38.9448457 C74.1826818,37.7690098 72.6614666,37.0787972 71.0533333,37.0266667 L70.84,37.0133333 Z" id="Shape" fill="#212A54" fill-rule="nonzero"></path>
                            <path d="M86.04,48 L85.7866667,48 C81.7254746,47.8578039 78.5480213,44.4511194 78.6886135,40.3898715 C78.8292057,36.3286235 82.2346352,33.1498251 86.2959383,33.2888135 C90.3572414,33.4278018 93.5373844,36.8319756 93.4,40.8933333 L93.4,40.8933333 C93.2565992,44.8558458 90.0051038,47.9954238 86.04,48 L86.04,48 Z M86.04,34.56 C82.6894725,34.5010896 79.925577,37.1694725 79.8666667,40.52 C79.8077563,43.8705275 82.4761392,46.634423 85.8266667,46.6933333 C89.1771941,46.8111541 91.9888459,44.1905275 92.1066667,40.84 C92.2244874,37.4894725 89.6038608,34.6778207 86.2533333,34.56 L86.04,34.56 Z" id="Shape" fill="#212A54" fill-rule="nonzero"></path>
                            <polygon id="Rectangle" fill="#212A54" fill-rule="nonzero" transform="translate(78.807383, 42.033880) rotate(-7.010000) translate(-78.807383, -42.033880) " points="77.020716 41.3872132 80.5940493 41.3872132 80.5940493 42.6805465 77.020716 42.6805465"></polygon>
                            <path d="M147.146667,127.120009 C143.019943,127.125394 139.296562,124.643667 137.713594,120.832619 C136.130626,117.02157 137.000001,112.632183 139.916129,109.712238 C142.832256,106.792293 147.220503,105.917178 151.033618,107.49516 C154.846734,109.073142 157.333333,112.793273 157.333333,116.92 C157.326009,122.545066 152.771718,127.105318 147.146667,127.120009 L147.146667,127.120009 Z M147.146667,108.599989 C143.773727,108.594608 140.73016,110.62298 139.4369,113.738141 C138.143639,116.853302 138.855756,120.440848 141.240787,122.825879 C143.625819,125.210911 147.213365,125.923027 150.328526,124.629767 C153.443687,123.336507 155.472059,120.292939 155.466677,116.92 C155.459325,112.328035 151.738631,108.607341 147.146667,108.599989 L147.146667,108.599989 Z" id="Shape" fill="#F9D675" fill-rule="nonzero"></path>
                            <g id="Group" transform="translate(13.333333, 24.000000)" fill-rule="nonzero">
                                <polygon id="Path" fill="#578FFF" points="21.2133333 3.16 10.7733333 10.4 1.02666667 8.17333333 11.4666667 0.92"></polygon>
                                <polygon id="Path" fill="#387BFF" points="4.92 20.0266667 1.02666667 8.17333333 10.7733333 10.4 14.6666667 22.2666667"></polygon>
                                <polygon id="Path" fill="#0063CB" points="14.6666667 22.2666667 10.7733333 10.4 21.2133333 3.16 25.1066667 15.0266667"></polygon>
                            </g>
                            <polygon id="Rectangle" fill="#0253A2" fill-rule="nonzero" transform="translate(136.091847, 49.307509) rotate(-69.970000) translate(-136.091847, -49.307509) " points="133.138513 47.8008425 139.04518 47.8008425 139.04518 50.8141759 133.138513 50.8141759"></polygon>
                            <path d="M149.066667,34.12 C147.074984,29.8255412 142.326465,27.5367174 137.726341,28.6538728 C133.126217,29.7710282 129.9564,33.9828461 130.156243,38.7124592 C130.356086,43.4420724 133.869898,47.3714834 138.547865,48.0966068 C143.225831,48.8217302 147.764348,46.1404964 149.386667,41.6933333 C150.298632,39.2279196 150.183355,36.499696 149.066667,34.12 Z M143.413333,45.4 C140.535077,46.7513412 137.125996,46.2337431 134.778549,44.0889873 C132.431102,41.9442314 131.608592,38.5956171 132.695232,35.607357 C133.781872,32.6190969 136.563197,30.5809681 139.739989,30.4450264 C142.916781,30.3090846 145.862052,32.1021599 147.2,34.9866667 C148.081061,36.8693794 148.176984,39.0252463 147.466612,40.9787681 C146.756241,42.9322899 145.297933,44.5229818 143.413333,45.4 L143.413333,45.4 Z" id="Shape" fill="#0063CB" fill-rule="nonzero"></path>
                            <polygon id="Rectangle" fill="#0063CB" fill-rule="nonzero" transform="translate(134.147808, 54.596188) rotate(-69.960000) translate(-134.147808, -54.596188) " points="129.474475 51.9761885 138.821142 51.9761885 138.821142 57.2161885 129.474475 57.2161885"></polygon>
                            <polygon id="Rectangle" fill="#387BFF" fill-rule="nonzero" transform="translate(133.804547, 55.517935) rotate(-69.960000) translate(-133.804547, -55.517935) " points="130.11788 52.897935 137.491214 52.897935 137.491214 58.137935 130.11788 58.137935"></polygon>
                            <polygon id="Rectangle" fill="#FFFFFF" fill-rule="nonzero" transform="translate(135.171979, 54.452578) rotate(-69.950000) translate(-135.171979, -54.452578) " points="133.205312 54.1259115 137.138645 54.1259115 137.138645 54.7792448 133.205312 54.7792448"></polygon>
                            <path d="M134.106667,60.5866667 C132.688949,61.2644147 130.99009,60.6683236 130.306667,59.2533333 C130.413333,58.9466667 130.533333,58.64 130.64,58.3466667 L134.44,59.68 C134.333333,60 134.226667,60.28 134.106667,60.5866667 Z" id="Path" fill="#0063CB" fill-rule="nonzero"></path>
                        </g>
                    </g>
                </g>
            </g>
        </g>
    </g>
</svg>