<?xml version="1.0" encoding="UTF-8"?>
<svg width="158px" height="150px" viewBox="0 0 158 150" version="1.1" xmlns="http://www.w3.org/2000/svg" xmlns:xlink="http://www.w3.org/1999/xlink">
    <!-- Generator: sketchtool 56.2 (101010) - https://sketch.com -->
    <title>C5C19439-85BD-497F-9E83-C4912924E3D0</title>
    <desc>Created with sketchtool.</desc>
    <g id="Landing-Page---Desktop" stroke="none" stroke-width="1" fill="none" fill-rule="evenodd">
        <g id="Landing-Page" transform="translate(-129.000000, -1024.000000)" fill-rule="nonzero">
            <g id="How-it-works-|-Section" transform="translate(0.000000, 768.000000)">
                <g id="Steps-section" transform="translate(0.000000, 208.000000)">
                    <g id="Step-1" transform="translate(128.000000, 48.000000)">
                        <g id="Illustration" transform="translate(1.000000, 0.000000)">
                            <circle id="Oval" fill="#C5E1F9" transform="translate(85.272603, 81.171578) rotate(-0.200000) translate(-85.272603, -81.171578) " cx="85.2726032" cy="81.1715782" r="66.3728814"></circle>
                            <path d="M59.040678,109.355932 C62.3084746,118.847458 64.5457627,138.535593 68.220339,149.789831 L113.128814,149.789831 L116.084746,125.735593 C116.084746,125.735593 126.932203,126.644068 127.881356,123.79661 C134.755932,102.101695 141.318644,81.5186441 115.501695,67.7559322 C110.077966,64.8135593 76.0847458,65.7898305 76.0847458,65.7898305 C76.0847458,65.7898305 53.8067797,69.7084746 26.7016949,107.213559 C25.8067797,108.474576 55.2711864,98.4271186 59.040678,109.355932 Z" id="Path" fill="#4758A0"></path>
                            <path d="M71.7457627,82.4271186 L64.0847458,85.5728814 C64.0847458,85.5728814 61.1152542,86.9288136 61.8067797,87.3491525 C62.4983051,87.7694915 68.6542373,85.9932203 68.6542373,85.9932203 C70.1447684,86.6786014 71.5737389,87.4906195 72.9254237,88.420339 C75.4881356,90.1288136 80.0576271,89.8440678 80.0576271,89.8440678 C80.0576271,89.8440678 95.6915254,120.338983 109.657627,125.477966 C123.623729,130.616949 125.616949,128.325424 127.623729,124.623729 C129.630508,120.922034 129.169492,111.349153 118.701695,106.115254 C105.386441,99.4576271 83.1491525,88.1355932 83.1491525,88.1355932 L76.2881356,80.9355932 L71.4474576,80.7186441 C71.4474576,80.7186441 69.4542373,82.0745763 68.3152542,82.9966102" id="Path" fill="#FCCEB4"></path>
                            <path d="M60.4779661,102.318644 C60.6743281,102.690687 60.6550775,103.139654 60.42759,103.493523 C60.2001026,103.847393 59.7996483,104.0513 59.379661,104.027119 L14.0644068,104.027119 C13.022951,103.954032 12.1159284,103.289585 11.7322034,102.318644 L0.206779661,70.9559322 C-0.13220339,70.0067797 0.355932203,69.6 1.29152542,69.6 L46.620339,69.6 C47.6013505,69.5347711 48.5238779,70.0711242 48.9525424,70.9559322 L60.4779661,102.318644 Z" id="Path" fill="#69AEEB"></path>
                            <path d="M77.0067797,107.349153 C76.9485453,108.28991 76.1448086,109.009043 75.2033898,108.962712 L14.7016949,108.962712 C14.2524347,108.988536 13.8118033,108.831718 13.4798708,108.527872 C13.1479382,108.224026 12.9528757,107.79894 12.9389831,107.349153 L12.9389831,105.857627 C12.9520084,104.878135 13.7233912,104.077084 14.7016949,104.027119 L75.2033898,104.027119 C76.1889004,104.075867 76.9727448,104.871499 77.0067797,105.857627 L77.0067797,107.349153 Z" id="Path" fill="#9AC7F7"></path>
                            <path d="M50.6474576,108.962712 L18.1050847,108.962712 C18.1050847,108.962712 9.63050847,112.922034 17.6711864,119.430508 C24.3016949,124.745763 31.5423729,121.016949 35.1220339,119.525424 C38.7016949,118.033898 50.2271186,111.186441 50.2271186,111.186441 L55.3525424,111.79661 L61.7661017,108.8 C60.6861831,108.281258 59.4290712,108.281258 58.3491525,108.8 C57.4309625,109.292396 56.3916427,109.513428 55.3525424,109.437288 L53.4271186,108.366102 L54.7830508,106.874576 L55.420339,105.369492 L52.4237288,107.091525 L50.6474576,108.962712 Z" id="Path" fill="#EDBEA6"></path>
                            <path d="M53.0610169,109.464407 C53.0610169,109.464407 29.9288136,111.701695 24.1254237,112.284746 C20.2745763,112.677966 16.7220339,114.291525 15.7322034,116.352542 C16.0509101,117.580146 16.7483413,118.676109 17.7254237,119.484746 C22.6294893,122.69299 28.8568133,123.09442 34.1322034,120.542373 C37.7661017,119.037288 50.2271186,111.186441 50.2271186,111.186441 L55.3525424,111.810169 C55.5966102,111.322034 53.4949153,109.545763 53.0610169,109.464407 Z" id="Path" fill="#FCCEB4"></path>
                            <path d="M127.094915,125.545763 C125.589831,126.589831 125.088136,127.416949 122.633898,127.091525 C118.864407,126.589831 107.081356,119.864407 101.494915,115.620339 C92.640678,108.840678 80.5186441,89.8576271 80.0576271,89.8576271 C80.8983051,91.4847458 96.0847458,120.433898 109.657627,125.423729 C122.389831,130.169492 125.19661,128.664407 127.094915,125.545763 Z" id="Path" fill="#EDBEA6"></path>
                            <path d="M82.2677966,68.4474576 L82.2677966,68.4474576 C82.8779661,69.0711864 82.2677966,75.9050847 86.5932203,77.7762712 C87.7555359,77.9787227 88.9278226,78.1190349 90.1050847,78.1966102 C90.856985,78.1064408 91.6005561,77.9568198 92.3288136,77.7491525 C102.918644,74.7118644 97.359322,62.9559322 98.1457627,62.9152542 C97.7047122,62.4245769 97.2239906,61.9710659 96.7084746,61.559322 C92.8711864,58.5491525 91.8,46.9966102 91.8,46.9966102 C91.8,46.9966102 74.6881356,49.0983051 81.0610169,55.7152542 C84.3016949,59.0915254 83.4067797,64.1355932 82.2677966,68.4474576 Z" id="Path" fill="#FCCEB4"></path>
                            <path d="M81.7932203,47.240678 C81.7932203,47.240678 99.420339,41.9661017 103.867797,37.2610169 C108.315254,32.5559322 99.3661017,33.1932203 98.0644068,25.0576271 C96.7627119,16.9220339 90.0915254,-3.64745763 86.2949153,8.98983051 C82.4983051,21.6271186 89.1016949,25.7084746 88.3830508,19.8372881 C87.6644068,13.9661017 89.8474576,-1.99322034 73.3186441,1.23389831 C56.7898305,4.46101695 52.4101695,15.8237288 66.9322034,19.2271186 C81.4542373,22.6305085 48.6271186,6.77966102 50.7016949,17.6271186 C52.7762712,28.4745763 62.4169492,25.979661 65.7661017,25.4237288 C69.1152542,24.8677966 51.2983051,18.9830508 54.5932203,30.2372881 C57.8881356,41.4915254 68.4915254,45.3152542 81.7932203,47.240678 Z" id="Path" fill="#212A54"></path>
                            <path d="M93.779661,46.8881356 C93.779661,46.8881356 91.0677966,50.5762712 96.4915254,62.8745763 C96.4915254,62.8745763 89.2644068,67.1186441 83.7322034,62.1288136 C83.7177644,59.7231916 82.7412061,57.4233968 81.020339,55.7423729 C74.7152542,49.1254237 93.779661,46.8881356 93.779661,46.8881356 Z" id="Path" fill="#E5B298"></path>
                            <path d="M66.7152542,24.1491525 C66.7152542,24.1491525 64.8711864,32.8949153 68.640678,45.8440678 C72.4101695,58.7932203 79.4881356,61.4101695 90.0915254,57.5050847 C100.694915,53.6 99.8542373,40.2983051 99.0271186,37.1661017 C98.2,34.0338983 108.871186,34.5898305 105.183051,27.6745763 C101.494915,20.759322 97.5627119,24.4067797 97.6033898,27.4033898 C97.6440678,30.4 96.4372881,34.4677966 93.6847458,32.5559322 C90.9322034,30.6440678 93.3457627,18.3728814 88.4508475,21.1661017 C83.5559322,23.959322 74.9322034,28.0271186 66.7152542,24.1491525 Z" id="Path" fill="#FCCEB4"></path>
                            <path d="M77.4271186,43.2271186 L76.2881356,42.6169492 C76.9177566,41.2315718 77.2104837,39.7168252 77.1423729,38.1966102 L78.4983051,38.1966102 C78.5393186,39.9341202 78.1724415,41.6570495 77.4271186,43.2271186 Z" id="Path" fill="#212A54"></path>
                            <path d="M80.179661,50.6983051 L79.7864407,50.6983051 L79.7864407,49.3423729 C81.9818597,49.7388522 84.0869754,48.2930974 84.5050847,46.1016949 L85.8610169,46.2915254 C85.3528427,48.9850285 82.9149154,50.8760222 80.179661,50.6983051 Z" id="Path" fill="#212A54"></path>
                            <path d="M69.6847458,44.5288136 L69.4135593,44.5288136 C66.0317216,44.4053556 63.153425,42.0280956 62.3931862,38.7305048 C61.6329474,35.432914 63.1799147,32.0354372 66.1663512,30.4438137 C69.1527877,28.8521903 72.8356641,29.4624181 75.1491525,31.9322034 C76.5298146,33.3907437 77.2547356,35.3499896 77.1559322,37.3559322 L77.1559322,37.3559322 C77.0103055,41.3803663 73.7117961,44.5711203 69.6847458,44.5830508 L69.6847458,44.5288136 Z M69.6847458,30.8610169 C66.3061389,30.8631066 63.5576819,33.5823296 63.5194647,36.9607209 C63.4812474,40.3391122 66.1674879,43.1198139 69.5451829,43.1983325 C72.9228779,43.2768512 75.7354285,40.6239755 75.8542373,37.2474576 L75.8542373,37.2474576 C75.9127615,35.6122557 75.3178744,34.021032 74.2009788,32.8252668 C73.0840832,31.6295015 71.5370847,30.9275904 69.9016949,30.8745763 L69.6847458,30.8610169 Z" id="Shape" fill="#212A54"></path>
                            <path d="M85.1423729,42.0338983 L84.8847458,42.0338983 C80.7547199,41.8892921 77.5234115,38.4248672 77.6663866,34.2947845 C77.8093618,30.1647019 81.2725103,26.9320256 85.4026491,27.0733696 C89.5327879,27.2147137 92.7668316,30.6765854 92.6271186,34.8067797 L92.6271186,34.8067797 C92.4812873,38.8364534 89.1746818,42.0292445 85.1423729,42.0338983 L85.1423729,42.0338983 Z M85.1423729,28.3661017 C81.7350568,28.3061928 78.9243156,31.0198026 78.8644068,34.4271186 C78.8044979,37.8344347 81.5181076,40.6451759 84.9254237,40.7050847 C88.3327398,40.8249025 91.1920467,38.1598585 91.3118644,34.7525424 C91.4316821,31.3452263 88.7666381,28.4859194 85.359322,28.3661017 L85.1423729,28.3661017 Z" id="Shape" fill="#212A54"></path>
                            <polygon id="Rectangle" fill="#212A54" transform="translate(77.787169, 35.966657) rotate(-7.010000) translate(-77.787169, -35.966657) " points="75.9702196 35.3090304 79.6041179 35.3090304 79.6041179 36.6242846 75.9702196 36.6242846"></polygon>
                            <path d="M147.284746,122.494924 C143.088077,122.500401 139.301589,119.976611 137.691791,116.100968 C136.081993,112.225325 136.966102,107.761542 139.931656,104.792107 C142.89721,101.822671 147.359833,100.932724 151.237578,102.537451 C155.115323,104.142178 157.644068,107.925362 157.644068,112.122034 C157.636619,117.84244 153.005137,122.479984 147.284746,122.494924 L147.284746,122.494924 Z M147.284746,103.661006 C143.854638,103.655533 140.759484,105.718285 139.444305,108.886245 C138.129125,112.054205 138.853311,115.702557 141.278767,118.128013 C143.704222,120.553468 147.352575,121.277655 150.520535,119.962475 C153.688495,118.647295 155.751247,115.552142 155.745774,112.122034 C155.738297,107.452239 151.95454,103.668483 147.284746,103.661006 L147.284746,103.661006 Z" id="Shape" fill="#F9D675"></path>
                            <g id="Group" transform="translate(12.203390, 17.627119)">
                                <polygon id="Path" fill="#578FFF" points="20.5728814 3.21355932 9.9559322 10.5762712 0.0440677966 8.31186441 10.6610169 0.93559322"></polygon>
                                <polygon id="Path" fill="#387BFF" points="4.00338983 20.3661017 0.0440677966 8.31186441 9.9559322 10.5762712 13.9152542 22.6440678"></polygon>
                                <polygon id="Path" fill="#0063CB" points="13.9152542 22.6440678 9.9559322 10.5762712 20.5728814 3.21355932 24.5322034 15.2813559"></polygon>
                            </g>
                        </g>
                    </g>
                </g>
            </g>
        </g>
    </g>
</svg>