<?xml version="1.0" encoding="UTF-8"?>
<svg width="159px" height="146px" viewBox="0 0 159 146" version="1.1" xmlns="http://www.w3.org/2000/svg" xmlns:xlink="http://www.w3.org/1999/xlink">
    <!-- Generator: sketchtool 56.2 (101010) - https://sketch.com -->
    <title>85E3D57A-3C2E-4AFC-A736-9410EB52E720</title>
    <desc>Created with sketchtool.</desc>
    <g id="Landing-Page---Desktop" stroke="none" stroke-width="1" fill="none" fill-rule="evenodd">
        <g id="Landing-Page" transform="translate(-887.000000, -1025.000000)" fill-rule="nonzero">
            <g id="How-it-works-|-Section" transform="translate(0.000000, 768.000000)">
                <g id="Steps-section" transform="translate(0.000000, 208.000000)">
                    <g id="Step-3" transform="translate(887.000000, 49.000000)">
                        <g id="Illustration">
                            <path d="M24.64,58.8133333 C34.3333333,53.84 48.28,52.7866667 62.3066667,36.7066667 C88.5333333,6.65333333 126.72,-3.50666667 147.64,35.8533333 C168.56,75.2133333 160.306667,111.626667 120.133333,120.893333 C90.6533333,127.693333 77.6933333,112.68 61.2133333,120.893333 C30.5466667,136.173333 7.48,123.56 4.14666667,99.48 C0.813333333,75.4 11.7466667,65.4133333 24.64,58.8133333 Z" id="Path" fill="#EAF4FE"></path>
                            <path d="M64,78.56 C46.326888,78.56 32,64.233112 32,46.56 L32,32.8933333 C32.007321,30.4884108 33.9550775,28.5406543 36.36,28.5333333 L45.1066667,28.5333333 C47.5146282,28.5333333 49.4666667,30.4853718 49.4666667,32.8933333 L49.4666667,34.88 C49.50966,35.9826659 50.4164966,36.8541712 51.52,36.8533333 L70.8666667,36.8533333 L70.8666667,77.8133333 L69.8933333,78 C67.9503371,78.3678339 65.977502,78.5552979 64,78.56 L64,78.56 Z M36.2933333,30.9066667 C35.1961276,30.9066667 34.3066667,31.7961276 34.3066667,32.8933333 L34.3066667,46.56 C34.313734,54.4268667 37.4465279,61.9685232 43.0154931,67.5249851 C48.5844583,73.081447 56.1331373,76.1972816 64,76.1866937 C65.5270534,76.1855433 67.0516877,76.0651775 68.56,75.8266667 L68.56,39.24 L51.4533333,39.24 C49.0284284,39.2547965 47.0486665,37.3048502 47.0266667,34.88 L47.0266667,32.8933333 C47.0266667,32.3664366 46.8173577,31.8611201 46.4447855,31.4885479 C46.0722132,31.1159756 45.5668968,30.9066667 45.04,30.9066667 L36.2933333,30.9066667 Z" id="Shape" fill="#9AC7F7"></path>
                            <path d="M92.9066667,78.5600028 C90.9069501,78.5581916 88.9117204,78.3707204 86.9466667,78 L85.9866667,77.8133333 L85.9866667,36.8533333 L105.4,36.8533333 C106.501131,36.8539215 107.404015,35.9805432 107.44,34.88 L107.44,32.8933333 C107.447348,30.4832167 109.403205,28.5333333 111.813333,28.5333333 L120.546667,28.5333333 C122.956795,28.5333333 124.912652,30.4832167 124.92,32.8933333 L124.92,46.56 C124.92,55.0492383 121.546752,63.1905848 115.542703,69.1921323 C109.538655,75.1936799 101.395904,78.5635372 92.9066667,78.5600028 Z M88.36,75.8933333 C89.8638322,76.1318546 91.3840365,76.2522227 92.9066667,76.2533333 C109.285908,76.2312556 122.548071,62.9392494 122.533346,46.56 L122.533346,32.8933333 C122.526004,31.7939744 121.632717,30.9066667 120.533333,30.9066667 L111.813333,30.9066667 C110.716128,30.9066667 109.826667,31.7961276 109.826667,32.8933333 L109.826667,34.88 C109.79741,37.3017669 107.821932,39.2474938 105.4,39.24 L88.36,39.24 L88.36,75.8933333 Z" id="Shape" fill="#9AC7F7"></path>
                            <rect id="Rectangle" fill="#9AC7F7" x="75.0533333" y="83.8666667" width="6.73333333" height="40.8"></rect>
                            <rect id="Rectangle" fill="#69AEEB" x="75.0533333" y="91.2666667" width="6.73333333" height="3.82666667"></rect>
                            <rect id="Rectangle" fill="#69AEEB" x="73.88" y="82.9733333" width="9.08" height="10.36"></rect>
                            <rect id="Rectangle" fill="#9AC7F7" x="73.88" y="90.9066667" width="9.08" height="2.42666667"></rect>
                            <path d="M93.68,128.626667 C90.5850557,128.628307 88.0474319,126.173304 87.9466667,123.08 L68.9066667,123.08 C68.8059015,126.173304 66.2682777,128.628307 63.1733333,128.626667 L57.4266667,128.626667 L57.4266667,134.573333 L99.4133333,134.573333 L99.4133333,128.626667 L93.68,128.626667 Z" id="Path" fill="#9AC7F7"></path>
                            <path d="M58.0266667,41.88 L58.0266667,74.7066667 C58.0266667,82.806843 64.593157,89.3733333 72.6933333,89.3733333 L84.08,89.3733333 C92.1801763,89.3733333 98.7466667,82.806843 98.7466667,74.7066667 L98.7466667,41.88 L58.0266667,41.88 Z" id="Path" fill="#9AC7F7"></path>
                            <rect id="Rectangle" fill="#9AC7F7" x="54.8533333" y="35.9333333" width="47.1466667" height="6.33333333"></rect>
                            <polygon id="Path" fill="#69AEEB" points="78.4266667 50.5466667 81.12 56 87.1333333 56.88 82.7733333 61.12 83.8 67.1066667 78.4266667 64.28 73.04 67.1066667 74.0666667 61.12 69.72 56.88 75.7333333 56"></polygon>
                            <rect id="Rectangle" fill="#69AEEB" x="58.0266667" y="41.88" width="40.8" height="3.04"></rect>
                            <polygon id="Path" fill="#69AEEB" points="60.1066667 129.626667 60.1066667 134.573333 77.24 134.573333 79.6133333 134.573333 99.4133333 134.573333 99.4133333 129.626667"></polygon>
                            <path d="M106,37.6666667 C105.542787,38.622236 104.440454,39.0815413 103.44,38.7333333 C101.506667,38.28 101.866667,36.9466667 101.32,36.9333333 C100.773333,36.92 105.813333,36.88 106,37.6666667 Z" id="Path" fill="#161711"></path>
                            <path d="M95.9066667,39.7466667 C95.9066667,39.7466667 92.08,39.2533333 91.8,40.7466667 C91.52,42.24 96.0533333,44.5066667 97.4933333,41.84 C98.6666667,39.7466667 96.4666667,39.9866667 95.9066667,39.7466667 Z" id="Path" fill="#161711"></path>
                            <path d="M93.6133333,39.6933333 C92.8597109,40.2360251 92.4014184,41.0984036 92.3733333,42.0266667 C92.1466667,43.7866667 92.24,53.8 92.4533333,55.36 C92.6666667,56.92 91.9733333,58.4266667 92.12,59.5333333 C92.2666667,60.64 91.2533333,60.4266667 91.24,60.8666667 C91.2266667,61.3066667 92.2666667,61.9066667 92.84,61.5733333 C93.4133333,61.24 93.24,59.32 93.8,58.64 C94.36,57.96 95.0533333,57.5866667 94.8533333,56.5333333 C94.6533333,55.48 93.6533333,53.6133333 94.2,51.4266667 C94.66018,49.7365181 95.0295969,48.0229576 95.3066667,46.2933333 C95.3066667,45.64 95.3066667,43 96,42.2933333 C96.6933333,41.5866667 97.2266667,40.3733333 96.72,39.9866667 C95.7087496,39.7124411 94.6580395,39.6132324 93.6133333,39.6933333 Z" id="Path" fill="#F7B68B"></path>
                            <path d="M98.48,32.56 C98.48,32.56 93.8,38.48 92.7066667,39.5466667 C91.6133333,40.6133333 91.6133333,40.44 93.6266667,40.2133333 C95.64,39.9866667 97.4133333,42.04 96.9333333,42.5333333 C97.4959065,41.9529367 97.9759621,41.2979076 98.36,40.5866667 C99.44,37.3066667 100.746667,32.24 101.706667,31.32 C102.666667,30.4 98.9866667,31.3066667 98.48,32.56 Z" id="Path" fill="#163F59"></path>
                            <path d="M100.84,31.9066667 C100.631032,31.545647 100.344041,31.2358787 100,31 C99.524586,31.1539728 99.0750933,31.3787191 98.6666667,31.6666667 C98.6278106,31.8025804 98.59665,31.9405773 98.5733333,32.08 C98.3866667,33.2266667 98.28,33.32 97.96,35.0266667 C97.64,36.7333333 98.28,35.9466667 97.6666667,36.5733333 C97.0533333,37.2 97.4133333,38.1866667 97.5066667,39.24 C97.5066667,39.7866667 97.5066667,40.5733333 97.5733333,41.0666667 C97.7561914,40.8312328 97.9043644,40.5708076 98.0133333,40.2933333 C98.9066667,37.6666667 100,33.6666667 100.84,31.9066667 Z" id="Path" fill="#161711"></path>
                            <path d="M103.093333,33.8933333 C103.093333,33.8933333 99.52,34.68 98.4266667,37.04 C97.6533333,38.6933333 98.4266667,39.44 101.72,43.3466667 C104.013333,46.0933333 104.6,46.4 104.986667,47.5466667 C105.373333,48.6933333 106.32,50.2133333 106.32,50.8533333 C106.32,51.4933333 107.16,50.4666667 106.986667,49.52 C106.813333,48.5733333 106.026667,47.4666667 106.226667,46.8533333 C106.522779,46.2727297 106.318877,45.5619867 105.76,45.2266667 C104.173333,44.1066667 103.92,41.9333333 103.68,40.8666667 C103.412305,39.9846005 102.987732,39.1580398 102.426667,38.4266667 C102.213333,38.1333333 105.4,38.2266667 106.066667,36.6266667 C106.733333,35.0266667 103.093333,33.8933333 103.093333,33.8933333 Z" id="Path" fill="#F7B68B"></path>
                            <path d="M98.0933333,37.3733333 C98.0933333,37.3733333 98.9866667,34.5466667 101.173333,35.4533333 C103.36,36.36 105.173333,37.32 104.92,38.6666667 C104.92,38.9733333 106.453333,37.7466667 107.386667,36.1066667 C108.065484,35.0604637 108.065484,33.7128696 107.386667,32.6666667 C106.848171,32.0564614 106.587387,31.2499649 106.666667,30.44 C106.773333,29.7866667 100.706667,30.9466667 99.8933333,31.1733333 C99.08,31.4 99.8933333,31.64 99.32,32.84 C99.0133333,33.4133333 98.6666667,33.4533333 98.0933333,37.3733333 Z" id="Path" fill="#163F59"></path>
                            <path d="M107.893333,34.7066667 C108.029886,33.9951292 107.87104,33.258658 107.453333,32.6666667 C106.733333,31.68 106.04,31.0933333 106.12,30.44 C106.2,29.7866667 100.64,30.9466667 99.8266667,31.1733333 C99.8266667,31.1733333 98.4933333,31.0666667 98.4933333,31.0933333 C98.2266667,31.68 98.6266667,33.2 99.1466667,32.7466667 L99.32,32.84 C99.4651594,32.9097254 99.5998076,32.9994909 99.72,33.1066667 C100.721514,32.3803295 102.053846,32.3022632 103.133333,32.9066667 C104.946667,33.6666667 105.906667,38.8133333 107.893333,34.7066667 Z" id="Path" fill="#161711"></path>
                            <path d="M84.3466667,5.78666667 C83.9442658,5.94696801 83.4957342,5.94696801 83.0933333,5.78666667 C82.5251227,5.32793362 81.9133076,4.92601133 81.2666667,4.58666667 C80.9333333,4.52 81.2666667,4.06666667 81.6666667,4.33333333 C82.0666667,4.6 83.08,4.45333333 83,3.84 C82.92,3.22666667 82.2,1.29333333 82.5333333,0.893333333 C82.8666667,0.493333333 83.04,2.86666667 83.4,3.34666667 C83.76,3.82666667 83.7866667,3.44 84.08,2.82666667 C84.3733333,2.21333333 84.88,0.306666667 84.88,0.306666667 C84.88,0.306666667 85.32,0.306666667 85.2133333,0.853333333 C85.1066667,1.4 85.3066667,1.04 85.4666667,1.01333333 C85.6266667,0.986666667 84.6133333,2.97333333 84.6933333,3.57333333 C84.7733333,4.17333333 84.6933333,4.26666667 84.9866667,4.18666667 C85.28,4.10666667 85.9066667,3.68 86.1733333,3.6 C86.44,3.52 86.52,3.6 86.5466667,3.77333333 C86.5733333,3.94666667 84.68,4.76 84.68,4.98666667 C84.6110823,5.26901715 84.4986243,5.53891615 84.3466667,5.78666667 L84.3466667,5.78666667 Z" id="Path" fill="#F7B68B"></path>
                            <path d="M115.133333,26.28 C115.133333,26.28 115.72,26.1733333 115.133333,25.0933333 C114.546667,24.0133333 113.893333,22.8266667 113.893333,22.8266667 C113.893333,22.8266667 114.293333,22.68 114.506667,23.2266667 C114.743535,23.7975208 115.067372,24.3282535 115.466667,24.8 C115.68,24.9866667 115.093333,23.1066667 114.72,22.5866667 C114.346667,22.0666667 115,22.4533333 115.186667,22.8266667 C115.373333,23.2 115.706667,23.7466667 116.013333,24.24 C116.32,24.7333333 116.48,23.5333333 116.013333,22.5733333 C115.546667,21.6133333 115.786667,21.7466667 115.786667,21.7466667 C115.786667,21.7466667 116.6,21.8666667 116.56,23.1866667 C116.632146,24.1349409 116.801934,25.0732416 117.066667,25.9866667 C117.066667,26.4 117.68,26.3866667 117.866667,26.2933333 C118.053333,26.2 119.2,26.6933333 118.6,26.92 C118,27.1466667 116.48,26.8 115.933333,27.0133333 C115.386667,27.2266667 115.133333,26.28 115.133333,26.28 Z" id="Path" fill="#F7B68B"></path>
                            <path d="M95.28,11.9733333 C92.0266667,9.96 91.56,10.2933333 90.3333333,9.2 C89.3576168,8.0210671 88.1621322,7.04294335 86.8133333,6.32 C85.6380126,5.94007571 84.5721112,5.28132117 83.7066667,4.4 C83.6,4.26666667 83.1333333,4.88 83.88,5.73333333 C85.370002,7.25199273 87.0298077,8.59415367 88.8266667,9.73333333 C90.8418083,10.9520439 92.6659297,12.4616616 94.24,14.2133333 C94.8933333,15.28 96.3466667,13.44 95.28,11.9733333 Z" id="Path" fill="#F7B68B"></path>
                            <path d="M106.8,22.7066667 C108.218937,23.1624955 109.565776,23.817957 110.8,24.6533333 C112.773333,25.9866667 114.226667,26.8266667 114.8,27.32 C115.373333,27.8133333 117.466667,26.9466667 116.013333,26.24 C114.56,25.5333333 112.493333,23.88 111.506667,23.5733333 C110.52,23.2666667 108.906667,20.9866667 108,20.4666667 C107.093333,19.9466667 106.8,22.7066667 106.8,22.7066667 Z" id="Path" fill="#F7B68B"></path>
                            <path d="M102.413333,16.6933333 C103.756147,17.1643769 105.061986,17.7348459 106.32,18.4 C107.293108,19.1753346 108.219191,20.0079188 109.093333,20.8933333 C108.816755,22.2298565 108.368598,23.525029 107.76,24.7466667 C107.693333,24.8266667 107.24,25 106.813333,24.3866667 C106.205189,25.0281902 105.813485,25.84424 105.693333,26.72 C105.546667,28.0533333 107.853333,32.0533333 107.746667,32.9733333 C107.64,33.8933333 106.666667,31.28 103.56,32.6 C100.453333,33.92 97.68,35.1733333 96.8933333,33.9333333 C96.1066667,32.6933333 97.2266667,31.0666667 96.8933333,29.4666667 C96.6865539,25.9408069 96.6865539,22.4058598 96.8933333,18.88 C97,17.4266667 94.64,16.0133333 93.9866667,15.4 C93.3333333,14.7866667 93.9866667,14.6 93.8933333,13.0933333 C93.8,11.5866667 94.1733333,10.84 94.4666667,10.6933333 C94.76,10.5466667 100.72,16.6 102.413333,16.6933333 Z" id="Path" fill="#69AEEB"></path>
                            <path d="M107.146667,7.94666667 C107,10.3733333 105.053333,11.6133333 102.48,12.6266667 C102.48,12.6266667 98.6933333,12.3733333 97.5733333,11.64 C96.4533333,10.9066667 98.2933333,10.6266667 98.1733333,8.97333333 C98.0533333,7.32 98.4533333,2.84 99.8,5.2 C99.8,5.2 101.906667,2.09333333 104.626667,4.57333333 C104.910858,4.21559734 105.358427,4.0282817 105.812707,4.07695458 C106.266987,4.12562746 106.664714,4.40351053 106.866667,4.81333333 C107.426059,5.76265105 107.528875,6.91320592 107.146667,7.94666667 L107.146667,7.94666667 Z" id="Path" fill="#212A54"></path>
                            <path d="M100.453333,13.04 C100.453333,13.04 101.013333,16.4266667 100.453333,17.2 C99.8933333,17.9733333 99.4933333,17.7066667 99.6933333,18.4 C99.9866667,19.4133333 101.2,19.9733333 103.906667,18.5466667 C104.68,18.1333333 102.666667,18.1066667 103.08,14.2933333 C103.213333,12.4133333 100.453333,13.04 100.453333,13.04 Z" id="Path" fill="#F7B68B"></path>
                            <path d="M100.573333,16.7866667 C100.721145,15.6064969 100.689678,14.4107622 100.48,13.24 C100.951261,13.1117772 101.433273,13.0269787 101.92,12.9866667 C102.253338,12.9884995 102.568536,13.1387175 102.779902,13.3964806 C102.991267,13.6542437 103.076832,13.9927612 103.013333,14.32 C102.968679,14.8256828 102.968679,15.3343172 103.013333,15.84 C102.329166,16.4202387 101.469811,16.7536499 100.573333,16.7866667 L100.573333,16.7866667 Z" id="Path" fill="#EC9568"></path>
                            <path d="M104.426667,7.29333333 C104.964276,8.70337806 105.178431,10.2161383 105.053333,11.72 C104.893333,14.4933333 103.6,15.36 101.28,15.0666667 C98.96,14.7733333 98.52,12.0533333 98.6133333,11.3866667 C98.7066667,10.72 96.52,11.32 96.9333333,9.76 C97.3466667,8.2 98.2666667,8.76 98.44,9.36 C98.6133333,9.96 99,10.6933333 99.4666667,10.2133333 C99.9333333,9.73333333 98.88,7.34666667 99.9866667,7.68 C101.444503,8.26073295 103.091164,8.11733004 104.426667,7.29333333 L104.426667,7.29333333 Z" id="Path" fill="#F7B68B"></path>
                            <path d="M75.6,51.8533333 C75.729905,52.75113 75.9079392,53.6413011 76.1333333,54.52 C76.414673,55.2213119 76.602941,55.9564536 76.6933333,56.7066667 C76.6933333,57.4266667 74.2133333,55.9333333 74.0266667,55.3733333 C74.0070182,54.2199066 73.7718661,53.0803236 73.3333333,52.0133333 C72.5066667,50.6266667 75.6,51.8533333 75.6,51.8533333 Z" id="Path" fill="#F7B68B"></path>
                            <path d="M67.6533333,34.2 C67.6533333,34.2 74.96,39.5333333 75.5333333,40.6533333 C76.1066667,41.7733333 75.6533333,49.72 75.7333333,51.88 C75.7333333,52.3466667 73.6533333,52.4533333 73.1733333,52.0133333 C72.2754869,49.8746433 71.635428,47.636675 71.2666667,45.3466667 C71.1466667,44.0133333 71.68,42.4933333 71.36,42.2533333 C70.6666667,41.6666667 64,38.16 63.0666667,37.2133333 C62.1333333,36.2666667 59.8,33.08 60.32,32.36 C60.84,31.64 67.6533333,34.2 67.6533333,34.2 Z" id="Path" fill="#F99B1C"></path>
                            <path d="M73.84,53.4 C73.521245,53.6473226 73.2184206,53.9145206 72.9333333,54.2 C72.7333333,54.4533333 72.3466667,54.6666667 72.52,55.0266667 C73.1066177,55.7942685 73.6115719,56.6209634 74.0266667,57.4933333 C74.5430363,58.7639099 75.3249364,59.9094844 76.32,60.8533333 C77.0933333,61.4533333 78.4,61.6533333 78.52,61.2133333 C78.64,60.7733333 78.08,59.9866667 77.7733333,59.6666667 C77.2838386,58.3707059 76.9177704,57.0314321 76.68,55.6666667 C76.6,55.1733333 76.3733333,54.8933333 75.96,55.0133333 C75.4672631,55.160677 74.934928,54.9850065 74.6266667,54.5733333 C74.3083197,54.2229193 74.0432593,53.827575 73.84,53.4 L73.84,53.4 Z" id="Path" fill="#0063CB"></path>
                            <path d="M74.5733333,54.5466667 C74.8908788,55.0040671 75.4766727,55.1902073 76,55 C76.4133333,54.88 76.64,55.16 76.72,55.6533333 C76.9577704,57.0180988 77.3238386,58.3573726 77.8133333,59.6533333 C78.12,59.9733333 78.6666667,60.76 78.56,61.2 C77.8733872,61.2475474 77.1949803,61.0277818 76.6666667,60.5866667 C75.6508048,59.6233463 74.850961,58.4553926 74.32,57.16 C73.8835772,56.2823353 73.3657513,55.4475643 72.7733333,54.6666667 C72.7484979,54.5840483 72.7484979,54.4959517 72.7733333,54.4133333 C72.8690834,54.3267838 72.9582213,54.233189 73.04,54.1333333 C73.3250873,53.847854 73.6279117,53.580656 73.9466667,53.3333333 C74.096996,53.7654336 74.3079962,54.173966 74.5733333,54.5466667 L74.5733333,54.5466667 Z" id="Path" fill="#0253A2"></path>
                            <path d="M68.48,36.6533333 C68.8133333,36.44 69.4,35.9733333 69.7066667,35.72 C71.92,37.3733333 75.16,39.8933333 75.5333333,40.6533333 C76.1066667,41.8266667 75.6533333,49.72 75.7333333,51.88 C75.7333333,52.0533333 75.44,52.1866667 75.04,52.24 C74.9289202,51.4099153 74.7368945,50.5926893 74.4666667,49.8 C73.9356283,48.0991129 73.5563671,46.3545113 73.3333333,44.5866667 C73,42.76 74.0266667,41.68 73.1466667,40.9066667 C72.2666667,40.1333333 68,36.96 68.48,36.6533333 Z" id="Path" fill="#FFAA00"></path>
                            <path d="M65.8933333,47 C65.275284,47.5580487 64.7329033,48.1945616 64.28,48.8933333 C64.08,49.4666667 63.9066667,49.84 63.44,49.6 C62.8828641,49.0231678 62.6265017,48.2195703 62.7466667,47.4266667 C62.96,47.0266667 64.3866667,46.3066667 64.7333333,45.68 C65.08,45.0533333 65.8533333,47.2533333 65.8533333,47.2533333 L65.8933333,47 Z" id="Path" fill="#F7B68B"></path>
                            <path d="M63.8266667,46.48 C63.4315955,46.557218 63.0289262,46.5885367 62.6266667,46.5733333 C62.3306884,46.5358778 62.0321248,46.6195104 61.7986723,46.8052683 C61.5652198,46.9910262 61.4166561,47.2631723 61.3866667,47.56 C61.2533333,48.3866667 61.04,50.04 60.7733333,51.0533333 C60.6622486,52.180233 60.8175336,53.3174674 61.2266667,54.3733333 C61.5066667,55.0133333 62.44,55.24 62.7733333,54.8133333 C63.0622021,54.0138337 63.2459626,53.1801883 63.32,52.3333333 C63.4666667,51.64 64.32,49.4666667 64.4133333,49.2 C64.5066667,48.9333333 63.8533333,48.1333333 63.4933333,48.4 C63.1333333,48.6666667 62.9733333,48.2133333 63.0266667,47.96 C63.2605889,47.4496567 63.5278326,46.9552558 63.8266667,46.48 L63.8266667,46.48 Z" id="Path" fill="#0063CB"></path>
                            <path d="M61.7733333,47.5733333 C61.8328214,47.0624104 62.2252628,46.6536172 62.7333333,46.5733333 L63.04,46.5733333 C63.2882008,46.5995062 63.5384659,46.5995062 63.7866667,46.5733333 C63.5033219,46.9999868 63.2493996,47.4454645 63.0266667,47.9066667 C63.0266667,48.16 63.1333333,48.6133333 63.4933333,48.3466667 L63.4933333,48.3466667 C63.5733333,48.44 63.6933333,48.48 63.8666667,48.3466667 C64.1733333,48.5066667 64.4666667,48.9466667 64.4,49.1333333 C64.3333333,49.32 63.4533333,51.5733333 63.3066667,52.2666667 C63.2360799,53.1270553 63.0522712,53.9743684 62.76,54.7866667 C62.6771452,54.8919211 62.5585287,54.9630909 62.4266667,54.9866667 C62.0623396,54.9229168 61.7529771,54.6834103 61.6,54.3466667 C61.1835868,53.2834332 61.0325628,52.1347357 61.16,51 C61.4133333,50.04 61.64,48.3333333 61.7733333,47.5733333 Z" id="Path" fill="#0253A2"></path>
                            <path d="M63.2,32.8666667 C64.9066667,33.3066667 72.96,34.64 73.8666667,35.8666667 C74.7733333,37.0933333 72.2533333,39.36 66.1733333,39.2266667 C60.0933333,39.0933333 59.08,38.4666667 57.6933333,36.1866667 C56.3066667,33.9066667 61.92,32.5333333 63.2,32.8666667 Z" id="Path" fill="#FEC00F"></path>
                            <path d="M70.8533333,37.48 C70.8533333,37.48 67.1733333,39.2666667 66.2533333,42 C65.8498081,43.3869382 65.228752,44.701057 64.4133333,45.8933333 L65.8533333,47.2266667 C65.8533333,47.2266667 72.88,40.6533333 73.6266667,39.16 C74.3733333,37.6666667 74.6666667,35.9466667 73.48,35.9332483 C72.2933333,35.92 70.8533333,37.48 70.8533333,37.48 Z" id="Path" fill="#FEC00F"></path>
                            <polygon id="Path" fill="#89D5DA" points="65.8533333 47.2666667 65.8533333 47.2666667 64.6 46.0666667"></polygon>
                            <path d="M71.4933333,38.24 C70.16,39.08 67.72,40.0666667 66.6266667,42.56 C66.1112866,43.8144179 65.4296277,44.9938672 64.6,46.0666667 L64.4133333,45.8933333 C65.228752,44.701057 65.8498081,43.3869382 66.2533333,42 C67.1733333,39.3333333 70.8533333,37.88 70.8533333,37.88 C70.8533333,37.88 72.36,37.6666667 71.4933333,38.24 Z" id="Path" fill="#FFAA00"></path>
                            <path d="M63.2,32.8666667 L63.44,32.8666667 C62.6533333,33 61.6266667,33.1866667 61.2133333,33.32 C60.4933333,33.5333333 60.52,34.2266667 61.7066667,34.8533333 C63.9558582,35.7938699 66.3334322,36.3916342 68.76,36.6266667 C70.0933333,36.5466667 72.4933333,36.6266667 72.1866667,37.1866667 C72.0666667,37.3866667 71.2266667,37.48 71.0266667,37.68 C70.2266667,38 70,38.9333333 68.72,39.0133333 C67.8650434,39.099142 67.0057918,39.1347587 66.1466667,39.12 C60.0666667,38.9866667 59.0533333,38.36 57.6666667,36.08 C57.1952408,35.3555098 56.906967,34.5272945 56.8266667,33.6666667 C56.7333333,32.3333333 61.92,32.5333333 63.2,32.8666667 Z" id="Path" fill="#FFAA00"></path>
                            <path d="M62.7466667,5.26666667 C62.5466667,4.21333333 57.1733333,1.86666667 54.0933333,3.44 C52.0133333,4.50666667 51.7466667,5.22666667 52.8666667,7.14666667 C53.68,8.54666667 53.8266667,9.89333333 51.8666667,10.96 C49.3466667,12.2933333 50.36,13.12 51.4,13.6266667 C52.92,14.4266667 55.1733333,14.72 54.88,16.2933333 C54.5866667,17.8666667 58.1733333,17.6266667 60.6133333,16.5333333 C60.6133333,16.5333333 60.8266667,17.16 62.2533333,17.2266667 C63.68,17.2933333 65.3066667,15.68 64.84,12.64 C64.3733333,9.6 66.52,9.68 66.1733333,7.37333333 C65.8266667,5.06666667 64.4133333,3.74666667 62.8,5.14666667" id="Path" fill="#212A54"></path>
                            <path d="M62.8933333,19.1733333 C62.0533333,18.72 61.3466667,18.3466667 61.16,17.7333333 C60.9883732,16.92962 61.1785057,16.0910871 61.68,15.44 C61.68,15.44 58.16,13.5866667 58.6,14.7733333 C59.04,15.96 59.8666667,18.5733333 58.4,18.6666667 C58.1487335,18.6711406 57.9003257,18.7208222 57.6666667,18.8133333 C58.36,20.6133333 59.5333333,21.7866667 60.7333333,21.6533333 C61.7066667,21.5466667 62.48,20.5866667 62.8933333,19.1733333 Z" id="Path" fill="#F7B68B"></path>
                            <path d="M61.3333333,18.0933333 C60.5557257,17.7810556 59.8245002,17.3638533 59.16,16.8533333 C59.058325,16.1465971 58.8932138,15.4504525 58.6666667,14.7733333 C58.2266667,13.5866667 61.7466667,15.44 61.7466667,15.44 C61.2451724,16.0910871 61.0550399,16.92962 61.2266667,17.7333333 C61.2424366,17.8583296 61.278464,17.9799221 61.3333333,18.0933333 L61.3333333,18.0933333 Z" id="Path" fill="#EC9568"></path>
                            <path d="M60.9066667,6.33333333 C60.9066667,6.33333333 68.16,15.8 61.1066667,15.8133333 C58.2533333,15.8133333 57.88,14.6266667 57.48,13.8133333 C57.08,13 56.2533333,14.4933333 55.84,12.84 C55.4266667,11.1866667 55.96,11.2133333 56.8133333,11.88 C57.6666667,12.5466667 57.92,12.1466667 57.8666667,10.92 C57.8133333,9.69333333 56.6266667,9.50666667 58.92,9.25333333 C61.2133333,9 61.9466667,8.08 60.9066667,6.33333333 Z" id="Path" fill="#F7B68B"></path>
                            <path d="M40.1866667,11.9333333 L38.8533333,12.0666667 C38.8533333,12.0666667 37.24,11.6 36.9866667,11.8133333 C36.7333333,12.0266667 38.16,12.4533333 38.16,12.4533333 L40.08,12.8133333 L40.1866667,11.9333333 Z" id="Path" fill="#EC9568"></path>
                            <path d="M40.0666667,12.5333333 L38.7333333,12.6533333 C38.7333333,12.6533333 37.12,12.2 36.8533333,12.4 C36.5866667,12.6 38.04,13.04 38.04,13.04 L40,13.4 L40.0666667,12.5333333 Z" id="Path" fill="#EC9568"></path>
                            <path d="M41,11.7066667 L39.6666667,11.84 C39.6666667,11.84 38.04,11.3733333 37.7866667,11.5733333 C37.5333333,11.7733333 38.9733333,12.2266667 38.9733333,12.2266667 L40.88,12.5733333 L41,11.7066667 Z" id="Path" fill="#EC9568"></path>
                            <path d="M43.3733333,12.04 C43.3733333,12.04 43.1466667,11.04 41.56,10.8666667 C39.9733333,10.6933333 38.7066667,10.8666667 39.7066667,11.2133333 C40.7066667,11.56 40.3866667,11.36 39.7066667,12.1866667 L39.0533333,13.0266667 C38.5572196,13.0575393 38.063155,13.1154028 37.5733333,13.2 C37.3991756,13.2856089 37.3016684,13.4752061 37.3333333,13.6666667 L39.2666667,13.7466667 C39.9396362,13.5412848 40.6323314,13.4072148 41.3333333,13.3466667 C41.8907243,13.5119348 42.4275079,13.7400678 42.9333333,14.0266667 L43.3733333,12.04 Z" id="Path" fill="#F7B68B"></path>
                            <path d="M74.6666667,8.88 L75.8933333,8.38666667 C75.8933333,8.38666667 77.12,7.24 77.44,7.30666667 C77.76,7.37333333 76.6933333,8.41333333 76.6933333,8.41333333 L75.1733333,9.66666667 L74.6666667,8.88 Z" id="Path" fill="#EC9568"></path>
                            <path d="M75.0666667,9.34666667 L76.2933333,8.86666667 C76.2933333,8.86666667 77.52,7.72 77.84,7.78666667 C78.16,7.85333333 77.08,8.89333333 77.08,8.89333333 L75.5466667,10.08 L75.0666667,9.34666667 Z" id="Path" fill="#EC9568"></path>
                            <path d="M73.8666667,9.04 L75.0933333,8.56 C75.0933333,8.56 76.32,7.41333333 76.64,7.46666667 C76.96,7.52 75.88,8.58666667 75.88,8.58666667 L74.3466667,9.77333333 L73.8666667,9.04 Z" id="Path" fill="#EC9568"></path>
                            <path d="M72.52,10.4133333 C72.52,10.4133333 72.1066667,9.08 72.9866667,8.54666667 C74.32,7.66666667 75.5333333,7.21333333 74.7866667,8.01333333 C74.04,8.81333333 74.24,8.45333333 75.2,8.89333333 L76.16,9.33333333 C76.6157295,9.13562924 77.0832959,8.96641474 77.56,8.82666667 C77.7680175,8.77670895 77.9818224,8.8836114 78.0666667,9.08 L76.3733333,10.0266667 C75.6833792,10.150538 75.008498,10.3471921 74.36,10.6133333 C73.6437512,10.9049179 72.9030781,11.1324741 72.1466667,11.2933333 L72.52,10.4133333 Z" id="Path" fill="#F7B68B"></path>
                            <path d="M63.3066667,18.84 C64.5771516,16.9113355 65.9947005,15.0836782 67.5466667,13.3733333 C68.9880882,12.0142677 70.4966428,10.7282137 72.0666667,9.52 C72.0666667,9.52 73.4,10.0533333 73.1866667,11.1333333 C72.9733333,12.2133333 72.4133333,12.16 70.92,13.9466667 C69.4266667,15.7333333 65.9733333,19.88 66.04,22.48 C66.1066667,25.08 63.36,19.12 63.3066667,18.84 Z" id="Path" fill="#9AC7F7"></path>
                            <path d="M54.8133333,19.2666667 C56.0030896,18.8959845 57.2141933,18.5976612 58.44,18.3733333 C59.3733333,18.2933333 61.5466667,20.3066667 61.6133333,20.68 C61.7183524,19.822046 61.7540235,18.957021 61.72,18.0933333 L64.3866667,18.3066667 C64.3866667,18.3066667 66.6666667,19.8 67.1466667,25.2933333 C67.2933333,26.76 67.1466667,30.8666667 68.0666667,33.76 C67.1691639,33.7159837 66.277046,33.5955478 65.4,33.4 C59.6533333,32.8666667 58.2933333,36.0666667 57.8133333,36.3733333 C55.4666667,37.9466667 56.8266667,32.6133333 56.7333333,30.5333333 C56.6831953,28.8785939 56.2251925,27.2618439 55.4,25.8266667 C54.8266667,24.8266667 57.24,23.2533333 54.8133333,19.2666667 Z" id="Path" fill="#69AEEB"></path>
                            <path d="M55.2533333,19.4933333 C55.2533333,19.4933333 50.4,16.44 48.8533333,15.3333333 C47.3066667,14.2266667 43.2,11.1733333 43.2,11.1733333 C42.7805989,11.9507809 42.4965449,12.7939253 42.36,13.6666667 C42.48,14.24 49.0266667,19.8133333 52.1733333,22.0266667 C55.32,24.24 55.3866667,26.48 55.84,25.6933333 C56.7129154,23.6615935 56.4918451,21.3252822 55.2533333,19.4933333 Z" id="Path" fill="#9AC7F7"></path>
                            <path d="M11.4000163,17.9733333 C11.4053922,20.186811 10.075462,22.185086 8.03150247,23.03464 C5.98754294,23.884194 3.63300221,23.4173372 2.06783248,21.8521675 C0.502662757,20.2869978 0.0358059917,17.9324571 0.885359977,15.8884975 C1.73491396,13.844538 3.73318898,12.5146078 5.94666667,12.5199837 C8.95541829,12.5273295 11.3926705,14.9645817 11.4000163,17.9733333 L11.4000163,17.9733333 Z" id="Path" fill="#FFAB01"></path>
                            <path d="M81.5466667,139.453333 C81.5466667,141.719534 80.1808169,143.762336 78.0866029,144.628322 C75.9923889,145.494309 73.5826865,145.012748 71.9821518,143.408393 C70.3816172,141.804038 69.9058016,139.393195 70.7767779,137.301051 C71.6477541,135.208907 73.6938059,133.847938 75.96,133.853317 C79.0475863,133.860685 81.5466667,136.365738 81.5466667,139.453333 Z" id="Path" fill="#0063CB"></path>
                            <path d="M132.933333,40.5733333 C123.360398,40.5733333 115.6,32.8129357 115.6,23.24 C115.6,13.6670643 123.360398,5.90666667 132.933333,5.90666667 C142.506269,5.90666667 150.266667,13.6670643 150.266667,23.24 C150.22287,32.7947359 142.488069,40.5295371 132.933333,40.5733333 Z M132.933333,8.05333333 C124.575424,8.05333333 117.8,14.8287575 117.8,23.1866667 C117.8,31.5445759 124.575424,38.32 132.933333,38.32 C141.291243,38.32 148.066667,31.5445759 148.066667,23.1866667 C148.059315,14.8318044 141.288196,8.06068473 132.933333,8.05333333 Z" id="Shape" fill="#F9D675"></path>
                        </g>
                    </g>
                </g>
            </g>
        </g>
    </g>
</svg>