<?xml version="1.0" encoding="UTF-8"?>
<svg width="156px" height="149px" viewBox="0 0 156 149" version="1.1" xmlns="http://www.w3.org/2000/svg" xmlns:xlink="http://www.w3.org/1999/xlink">
    <!-- Generator: sketchtool 56.2 (101010) - https://sketch.com -->
    <title>8CC49925-76BD-420E-A5D4-C3F4CC69D3A4</title>
    <desc>Created with sketchtool.</desc>
    <g id="Landing-Page---Desktop" stroke="none" stroke-width="1" fill="none" fill-rule="evenodd">
        <g id="1.0.0.-Landing-Page---Default-(Homeschool)" transform="translate(-980.000000, -1790.000000)">
            <g id="How-it-works-|-Section" transform="translate(0.000000, 1380.000000)">
                <g id="Steps-section" transform="translate(0.000000, 364.000000)">
                    <g id="Step-4" transform="translate(977.000000, 40.000000)">
                        <g id="---Ilustration-4">
                            <rect id="Rectangle" x="0" y="0" width="160" height="160"></rect>
                            <path d="M24.64,71.8133333 C34.3333333,66.84 48.28,65.7866667 62.3066667,49.7066667 C88.5333333,19.6533333 126.72,9.49333333 147.64,48.8533333 C168.56,88.2133333 160.306667,124.626667 120.133333,133.893333 C90.6533333,140.693333 77.6933333,125.68 61.2133333,133.893333 C30.5466667,149.173333 7.48,136.56 4.14666667,112.48 C0.813333333,88.4 11.7466667,78.4133333 24.64,71.8133333 Z" id="Path" fill="#EAF4FE" fill-rule="nonzero"></path>
                            <path d="M62.4133333,92.7333333 C42.8707092,92.7186189 27.034019,76.8759616 27.0266667,57.3333333 L27.0266667,42.2533333 C27.0266667,39.5854735 29.1854836,37.4206828 31.8533333,37.4133333 L41.52,37.4133333 C44.1878497,37.4206828 46.3466768,39.5854735 46.3466667,42.2533333 L46.3466667,44.44 C46.3612719,45.6740552 47.3658584,46.6667531 48.6,46.6666667 L70.0666667,46.6666667 L70.0666667,92 L69,92.2 C66.8256896,92.5813025 64.6206653,92.759847 62.4133333,92.7333333 Z M31.84,39.9999999 C30.6249736,39.9999999 29.64,40.9849736 29.64,42.2 L29.64,57.3333333 C29.6547047,75.4274512 44.3192155,90.091962 62.4133333,90.1066667 C64.0961901,90.103391 65.7764406,89.9741409 67.44,89.72 L67.44,49.2533333 L48.6,49.2533333 C45.9225209,49.268165 43.7359683,47.1173598 43.7066667,44.44 L43.7066667,42.2533333 C43.7210385,41.660672 43.4956136,41.0872935 43.0814656,40.6631056 C42.6673176,40.2389176 42.0995022,39.9999999 41.5066667,39.9999999 L31.84,39.9999999 Z" id="Shape" fill="#9AC7F7" fill-rule="nonzero"></path>
                            <path d="M94.44,92.7333333 C92.2297327,92.7297534 90.0246203,92.5199552 87.8533333,92.1066667 L86.7866667,91.9066667 L86.7866667,46.6666667 L108.24,46.6666667 C109.464076,46.674445 110.470475,45.703566 110.506667,44.48 L110.506667,42.2533333 C110.506657,39.5854735 112.665484,37.4206828 115.333333,37.4133333 L125,37.4133333 C127.66785,37.4206828 129.826667,39.5854735 129.826667,42.2533333 L129.826667,57.3333333 C129.811971,76.8729184 113.979578,92.7112768 94.44,92.7333333 L94.44,92.7333333 Z M89.4133333,89.72 C91.0768927,89.9741409 92.7571433,90.103391 94.44,90.1066667 C112.529797,90.0919475 127.186673,75.4231367 127.186667,57.3333333 L127.186667,42.2533333 C127.200992,41.6629777 126.97738,41.0916484 126.566129,40.6678591 C126.154878,40.2440697 125.59052,40.0034052 125,40 L115.333333,40 C114.749857,40 114.190278,40.231785 113.777698,40.6443651 C113.365118,41.0569451 113.133333,41.6165237 113.133333,42.2 L113.133333,44.3866667 C113.122768,45.6738645 112.601276,46.90414 111.683589,47.8068245 C110.765901,48.709509 109.527197,49.2106525 108.24,49.2 L89.4133333,49.2 L89.4133333,89.72 Z" id="Shape" fill="#9AC7F7" fill-rule="nonzero"></path>
                            <rect id="Rectangle" fill="#9AC7F7" fill-rule="nonzero" x="74.7066667" y="98.6" width="7.44" height="45.1066667"></rect>
                            <rect id="Rectangle" fill="#69AEEB" fill-rule="nonzero" x="74.7066667" y="106.773333" width="7.44" height="4.24"></rect>
                            <rect id="Rectangle" fill="#69AEEB" fill-rule="nonzero" x="73.4133333" y="97.6266667" width="10.04" height="11.4533333"></rect>
                            <rect id="Rectangle" fill="#9AC7F7" fill-rule="nonzero" x="73.4133333" y="106.386667" width="10.04" height="2.69333333"></rect>
                            <path d="M95.28,148.093333 C91.8616541,148.088083 89.0615652,145.376418 88.9466667,141.96 L67.9066667,141.96 C67.791591,145.381584 64.9835177,148.095268 61.56,148.093333 L55.2133333,148.093333 L55.2133333,154.666667 L101.64,154.666667 L101.64,148.093333 L95.28,148.093333 Z" id="Path" fill="#9AC7F7" fill-rule="nonzero"></path>
                            <path d="M55.8666667,52.1733333 L55.8666667,88.48 C55.8740262,97.4586245 63.1547058,104.733333 72.1333333,104.733333 L84.72,104.733333 C93.6986275,104.733333 100.979307,97.4586245 100.986667,88.48 L100.986667,52.1733333 L55.8666667,52.1733333 Z" id="Path" fill="#9AC7F7" fill-rule="nonzero"></path>
                            <rect id="Rectangle" fill="#9AC7F7" fill-rule="nonzero" x="52.36" y="45.6" width="52.12" height="7.01333333"></rect>
                            <polygon id="Path" fill="#69AEEB" fill-rule="nonzero" points="78.4266667 61.7733333 81.4 67.7866667 88.0533333 68.76 83.24 73.4533333 84.3733333 80.0666667 78.4266667 76.9466667 72.48 80.0666667 73.6133333 73.4533333 68.8 68.76 75.4533333 67.7866667"></polygon>
                            <rect id="Rectangle" fill="#69AEEB" fill-rule="nonzero" x="55.8666667" y="52.1733333" width="45.1066667" height="3.36"></rect>
                            <polygon id="Path" fill="#69AEEB" fill-rule="nonzero" points="58.1733333 149.186667 58.1733333 154.666667 77.1066667 154.666667 79.7333333 154.666667 101.64 154.666667 101.64 149.186667"></polygon>
                            <path d="M108.92,47.5333333 C108.405434,48.5857164 107.190331,49.0934355 106.08,48.72 C103.946667,48.2133333 104.346667,46.7333333 103.746667,46.7333333 C103.146667,46.7333333 108.72,46.6666667 108.92,47.5333333 Z" id="Path" fill="#161711" fill-rule="nonzero"></path>
                            <path d="M97.76,49.8133333 C97.76,49.8133333 93.52,49.2666667 93.2,50.9333333 C92.88,52.6 97.92,55.08 99.5066667,52.1333333 C100.746667,49.8266667 98.3733333,50.08 97.76,49.8133333 Z" id="Path" fill="#161711" fill-rule="nonzero"></path>
                            <path d="M95.2133333,49.76 C94.4022163,50.3775893 93.9124636,51.3277096 93.88,52.3466667 C93.64,54.2933333 93.7333333,65.36 93.9733333,67.1066667 C94.2133333,68.8533333 93.4533333,70.5066667 93.6,71.72 C93.7466667,72.9333333 92.6533333,72.72 92.64,73.1733333 C92.6266667,73.6266667 93.7733333,74.32 94.4,73.96 C95.0266667,73.6 94.84,71.4666667 95.4666667,70.7066667 C96.0933333,69.9466667 96.8,69.5466667 96.6266667,68.3733333 C96.4533333,67.2 95.2933333,65.16 95.9066667,62.7466667 C96.4145914,60.8760845 96.8240428,58.9801463 97.1333333,57.0666667 C97.1333333,56.3333333 97.1333333,53.4133333 97.8933333,52.56 C98.6533333,51.7066667 99.2266667,50.44 98.6933333,50.0133333 C97.5564101,49.7301627 96.3792807,49.6444712 95.2133333,49.76 Z" id="Path" fill="#FCCEB4" fill-rule="nonzero"></path>
                            <path d="M100.6,41.88 C100.6,41.88 95.4133333,48.4266667 94.2133333,49.6 C93.0133333,50.7733333 93.0133333,50.6 95.24,50.3333333 C97.4666667,50.0666667 99.4266667,52.3466667 98.88,52.8933333 C99.5197585,52.2667755 100.055388,51.5421007 100.466667,50.7466667 C101.666667,47.1333333 103.133333,41.5333333 104.173333,40.4933333 C105.213333,39.4533333 101.16,40.48 100.6,41.88 Z" id="Path" fill="#163F59" fill-rule="nonzero"></path>
                            <path d="M103.2,41.16 C102.94665,40.762403 102.604298,40.4291799 102.2,40.1866667 C101.722018,40.3702615 101.272965,40.6217312 100.866667,40.9333333 C100.81088,41.0789581 100.775001,41.2314453 100.76,41.3866667 C100.56,42.72 100.426667,42.72 100.08,44.64 C99.7333333,46.56 100.426667,45.6666667 99.76,46.36 C99.0933333,47.0533333 99.48,48.1333333 99.5733333,49.3466667 C99.5733333,49.96 99.5733333,50.7733333 99.6533333,51.3733333 C99.8521581,51.1125422 100.013709,50.8253412 100.133333,50.52 C101.066667,47.5066667 102.226667,43.1466667 103.2,41.16 Z" id="Path" fill="#161711" fill-rule="nonzero"></path>
                            <path d="M105.693333,43.36 C105.693333,43.36 101.693333,44.2266667 100.533333,46.8266667 C99.68,48.6666667 100.533333,49.4933333 104.186667,53.8 C106.72,56.84 107.36,57.1733333 107.8,58.44 C108.24,59.7066667 109.2,61.4533333 109.333333,62.0933333 C109.466667,62.7333333 110.253333,61.6666667 110.066667,60.6666667 C109.88,59.6666667 109,58.4 109.226667,57.6933333 C109.566261,57.0552789 109.335623,56.2628297 108.706667,55.9066667 C106.96,54.6666667 106.666667,52.2533333 106.4,51.0666667 C106.12658,50.1020818 105.674283,49.1974869 105.066667,48.4 C104.826667,48.0666667 108.346667,48.16 109.066667,46.4 C109.786667,44.64 105.693333,43.36 105.693333,43.36 Z" id="Path" fill="#FCCEB4" fill-rule="nonzero"></path>
                            <path d="M100.173333,47.2 C100.173333,47.2 101.16,44.08 103.573333,45.08 C105.986667,46.08 107.96,47.1466667 107.72,48.6266667 C107.72,48.96 109.413333,47.6133333 110.386667,45.8 C111.163785,44.661034 111.195161,43.1706631 110.466667,42 C109.819126,41.3493818 109.48797,40.4484426 109.56,39.5333333 C109.666667,38.8133333 102.96,40.0933333 102.066667,40.3466667 C101.173333,40.6 102.066667,40.8533333 101.44,42.1866667 C101.186667,42.8266667 100.84,42.8533333 100.173333,47.2 Z" id="Path" fill="#163F59" fill-rule="nonzero"></path>
                            <path d="M111,44.2533333 C111.155601,43.4681808 110.982076,42.6535762 110.52,42 C109.72,40.9066667 108.96,40.2666667 109.08,39.5333333 C109.2,38.8 103.013333,40.0933333 102.12,40.3466667 C102.12,40.3466667 100.626667,40.2266667 100.56,40.2533333 C100.28,40.8933333 100.72,42.5866667 101.293333,42.08 L101.493333,42.1866667 C101.652743,42.2638298 101.800794,42.3625306 101.933333,42.48 C103.042688,41.6846018 104.510073,41.5964551 105.706667,42.2533333 C107.746667,43.1466667 108.813333,48.8 111,44.2533333 Z" id="Path" fill="#161711" fill-rule="nonzero"></path>
                            <path d="M84.9733333,12.2666667 C84.9733333,12.2666667 84.08,12.5866667 83.64,12.2666667 C83.006671,11.7611381 82.3282685,11.3148206 81.6133333,10.9333333 C81.2533333,10.8533333 81.6133333,10.36 82.0666667,10.64 C82.52,10.92 83.6266667,10.7733333 83.5466667,10.0933333 C83.4666667,9.41333333 82.6666667,7.29333333 83.0266667,6.85333333 C83.3866667,6.41333333 83.6,9.04 83.9866667,9.52 C84.3733333,10 84.4266667,9.61333333 84.7466667,8.94666667 C85.0666667,8.28 85.6266667,6.16 85.6266667,6.16 C85.6266667,6.16 86.12,6.16 85.9866667,6.76 C85.8533333,7.36 86.0933333,6.97333333 86.28,6.94666667 C86.4666667,6.92 85.3333333,9.12 85.3333333,9.8 C85.3333333,10.48 85.3333333,10.56 85.68,10.48 C86.0266667,10.4 86.6933333,9.90666667 87.0133333,9.82666667 C87.3333333,9.74666667 87.4,9.82666667 87.4266667,10.0133333 C87.4533333,10.2 85.3333333,11.1066667 85.3333333,11.36 C85.2633746,11.6797693 85.1417816,11.9860035 84.9733333,12.2666667 L84.9733333,12.2666667 Z" id="Path" fill="#FCCEB4" fill-rule="nonzero"></path>
                            <path d="M119.013333,34.9333333 C119.013333,34.9333333 119.653333,34.8133333 119.013333,33.6 C118.373333,32.3866667 117.68,31.1066667 117.68,31.1066667 C117.68,31.1066667 118.133333,30.9466667 118.36,31.5466667 C118.626306,32.1789041 118.985855,32.7676643 119.426667,33.2933333 C119.653333,33.4933333 119.013333,31.4133333 118.6,30.84 C118.186667,30.2666667 118.906667,30.6933333 119.12,31.1066667 C119.333333,31.52 119.693333,32.12 120.026667,32.6666667 C120.36,33.2133333 120.546667,31.88 120.026667,30.8133333 C119.506667,29.7466667 119.76,29.9066667 119.76,29.9066667 C119.76,29.9066667 120.68,30.04 120.626667,31.4933333 C120.719822,32.5696147 120.925387,33.6331881 121.24,34.6666667 C121.24,35.1333333 121.92,35.12 122.133333,35.0133333 C122.346667,34.9066667 123.586667,35.4533333 122.933333,35.7066667 C122.28,35.96 120.586667,35.5733333 120,35.8133333 C119.413333,36.0533333 119.013333,34.9333333 119.013333,34.9333333 Z" id="Path" fill="#FCCEB4" fill-rule="nonzero"></path>
                            <path d="M97.0533333,19.12 C93.4533333,16.88 92.9466667,17.2533333 91.6,16.0533333 C90.518197,14.746362 89.1910223,13.6637861 87.6933333,12.8666667 C86.3942361,12.4456262 85.2178342,11.7132358 84.2666667,10.7333333 C84.1466667,10.6 83.6266667,11.2666667 84.4666667,12.2266667 C86.113891,13.8983786 87.9482036,15.3747765 89.9333333,16.6266667 C92.1591654,17.9696047 94.1723962,19.6368115 95.9066667,21.5733333 C96.6266667,22.7733333 98.2533333,20.7333333 97.0533333,19.12 Z" id="Path" fill="#FCCEB4" fill-rule="nonzero"></path>
                            <path d="M109.786667,30.9866667 C111.334547,31.4915923 112.802622,32.214406 114.146667,33.1333333 C116.333333,34.6533333 117.933333,35.5333333 118.56,36 C119.186667,36.4666667 121.48,35.5866667 119.893333,34.8133333 C118.306667,34.04 115.986667,32.1466667 114.906667,31.84 C113.826667,31.5333333 112.093333,29.08 111.16,28.5066667 C110.226667,27.9333333 109.786667,30.9866667 109.786667,30.9866667 Z" id="Path" fill="#FCCEB4" fill-rule="nonzero"></path>
                            <path d="M104.946667,24.3333333 C106.454857,24.8467879 107.92139,25.4753023 109.333333,26.2133333 C110.408918,27.0722547 111.432917,27.9938542 112.4,28.9733333 C112.079503,30.4551684 111.568594,31.8892994 110.88,33.24 C110.88,33.32 110.306667,33.5066667 109.84,32.84 C109.163067,33.5490791 108.728857,34.4548498 108.6,35.4266667 C108.44,36.9333333 110.973333,41.2533333 110.88,42.3333333 C110.786667,43.4133333 109.68,40.4666667 106.24,41.92 C102.8,43.3733333 99.7333333,44.7733333 98.9066667,43.36 C98.08,41.9466667 99.28,40.1866667 98.9066667,38.4266667 C98.6732278,34.5279356 98.6732278,30.618731 98.9066667,26.72 C99.0133333,25.1066667 96.4133333,23.5466667 95.68,22.8666667 C94.9466667,22.1866667 95.68,21.9866667 95.5866667,20.32 C95.4933333,18.6533333 95.8933333,17.8266667 96.2133333,17.6533333 C96.5333333,17.48 103.08,24.2266667 104.946667,24.3333333 Z" id="Path" fill="#69AEEB" fill-rule="nonzero"></path>
                            <path d="M110.173333,14.6666667 C110.013333,17.3333333 107.866667,18.6666667 105.013333,19.8266667 C105.013333,19.8266667 100.84,19.56 99.6,18.7466667 C98.36,17.9333333 100.4,17.6133333 100.266667,15.7466667 C100.133333,13.88 100.56,8.96 102.053333,11.5733333 C102.053333,11.5733333 104.386667,8.13333333 107.386667,10.8666667 C107.715179,10.4983253 108.202082,10.3124192 108.692487,10.3680868 C109.182892,10.4237544 109.615739,10.7140645 109.853333,11.1466667 C110.500727,12.2066789 110.618964,13.5072886 110.173333,14.6666667 L110.173333,14.6666667 Z" id="Path" fill="#212A54" fill-rule="nonzero"></path>
                            <path d="M102.773333,20.2933333 C102.773333,20.2933333 103.4,24.0266667 102.773333,24.8933333 C102.24,25.5466667 101.706667,25.4533333 101.933333,26.2266667 C102.266667,27.3333333 103.6,27.96 106.586667,26.3733333 C107.44,25.9333333 105.253333,25.8933333 105.68,21.68 C105.826667,19.6 102.773333,20.2933333 102.773333,20.2933333 Z" id="Path" fill="#FCCEB4" fill-rule="nonzero"></path>
                            <path d="M102.906667,24.44 C103.081191,23.1365171 103.049695,21.8136999 102.813333,20.52 C103.333192,20.3784766 103.863904,20.2803618 104.4,20.2266667 C104.76475,20.2290708 105.10994,20.3919483 105.343705,20.6719524 C105.57747,20.9519565 105.676095,21.3206822 105.613333,21.68 C105.55515,22.2384887 105.55515,22.8015113 105.613333,23.36 C104.858865,24.0151708 103.904924,24.3958074 102.906667,24.44 L102.906667,24.44 Z" id="Path" fill="#FBC3A3" fill-rule="nonzero"></path>
                            <path d="M107.186667,13.9333333 C107.77804,15.4972973 108.01043,17.1741557 107.866667,18.84 C107.693333,21.8933333 106.253333,22.84 103.693333,22.5333333 C101.133333,22.2266667 100.653333,19.2133333 100.666667,18.5333333 C100.68,17.8533333 98.3466667,18.5333333 98.8133333,16.7333333 C99.28,14.9333333 100.346667,15.6266667 100.48,16.2933333 C100.613333,16.96 101.106667,17.8 101.613333,17.2266667 C102.12,16.6533333 100.973333,14.0666667 102.2,14.44 C103.846896,15.0834854 105.702852,14.8949123 107.186667,13.9333333 L107.186667,13.9333333 Z" id="Path" fill="#FCCEB4" fill-rule="nonzero"></path>
                            <path d="M75.3066667,63.2 C75.4488103,64.2009061 75.6446483,65.1934488 75.8933333,66.1733333 C76.2046511,66.9467725 76.4109309,67.7584387 76.5066667,68.5866667 C76.5066667,69.3866667 73.76,67.7333333 73.5466667,67.16 C73.3333333,66.5866667 73.6666667,64.92 72.7733333,63.3866667 C71.88,61.8533333 75.3066667,63.2 75.3066667,63.2 Z" id="Path" fill="#FCCEB4" fill-rule="nonzero"></path>
                            <path d="M66.52,43.6933333 C66.52,43.6933333 74.6,49.5333333 75.2266667,50.8266667 C75.8533333,52.12 75.36,60.84 75.4533333,63.24 C75.4533333,63.7466667 73.1466667,63.8666667 72.6266667,63.3866667 C72.1066667,62.9066667 70.6666667,57.3333333 70.52,56 C70.3733333,54.6666667 70.96,52.8266667 70.6133333,52.5866667 C69.8933333,52.0533333 62.4,48.1066667 61.44,47.0533333 C60.48,46 57.84,42.4933333 58.4,41.72 C58.96,40.9466667 66.52,43.6933333 66.52,43.6933333 Z" id="Path" fill="#F99B1C" fill-rule="nonzero"></path>
                            <path d="M73.3333333,64.92 C72.9846936,65.1904082 72.6550296,65.4844329 72.3466667,65.8 C72.12,66.08 71.68,66.3066667 71.88,66.72 C72.5239576,67.5504823 73.0823494,68.4439092 73.5466667,69.3866667 C74.1135215,70.7939955 74.9829451,72.0594393 76.0933333,73.0933333 C76.9466667,73.7733333 78.3866667,73.9866667 78.52,73.5066667 C78.6533333,73.0266667 78.0266667,72.1733333 77.6933333,71.8 C77.1498367,70.3569845 76.7435949,68.8659429 76.48,67.3466667 C76.3866667,66.8 76.1466667,66.48 75.6933333,66.6133333 C75.128529,66.820607 74.4948819,66.6239579 74.1466667,66.1333333 C73.8228784,65.7668008 73.5493615,65.3587674 73.3333333,64.92 Z" id="Path" fill="#0063CB" fill-rule="nonzero"></path>
                            <path d="M74.16,66.1866667 C74.5082153,66.6772912 75.1418623,66.8739403 75.7066667,66.6666667 C76.16,66.5333333 76.4,66.8533333 76.4933333,67.4 C76.7569282,68.9192762 77.1631701,70.4103178 77.7066667,71.8533333 C78.04,72.2 78.6533333,73.0666667 78.5333333,73.56 C77.7695519,73.5972226 77.0190525,73.3502228 76.4266667,72.8666667 C75.3143058,71.8000063 74.433761,70.5155003 73.84,69.0933333 C73.3556262,68.1194704 72.7844245,67.1912676 72.1333333,66.32 C72.1028315,66.2337278 72.1028315,66.1396056 72.1333333,66.0533333 C72.2424066,65.9534501 72.3448465,65.8465564 72.44,65.7333333 C72.7483629,65.4177662 73.0780269,65.1237416 73.4266667,64.8533333 C73.6082291,65.3295734 73.8550294,65.7783011 74.16,66.1866667 Z" id="Path" fill="#0253A2" fill-rule="nonzero"></path>
                            <path d="M67.4266667,46.4 C67.8914508,46.0802297 68.3366904,45.7329428 68.76,45.36 C71.2,47.2 74.7866667,49.9866667 75.2,50.8266667 C75.84,52.16 75.3333333,60.84 75.4266667,63.24 C75.4266667,63.44 75.0933333,63.5733333 74.6533333,63.64 C74.5344572,62.7323345 74.3245099,61.8389415 74.0266667,60.9733333 C73.4590079,59.0921163 73.0574688,57.1647288 72.8266667,55.2133333 C72.4533333,53.1866667 73.6,51.9866667 72.6266667,51.1466667 C71.6533333,50.3066667 66.88,46.7466667 67.4266667,46.4 Z" id="Path" fill="#FFAA00" fill-rule="nonzero"></path>
                            <path d="M64.5733333,57.8533333 C63.8825326,58.4839321 63.281387,59.206204 62.7866667,60 C62.5733333,60.6266667 62.3733333,61.04 61.8533333,60.7733333 C61.2398985,60.1354442 60.9588905,59.2480503 61.0933333,58.3733333 C61.3333333,57.92 62.9066667,57.1333333 63.28,56.4266667 C63.6533333,55.72 64.52,58.1866667 64.52,58.1866667 L64.5733333,57.8533333 Z" id="Path" fill="#FCCEB4" fill-rule="nonzero"></path>
                            <path d="M62.28,57.3333333 C61.8411176,57.4194041 61.3932602,57.4507542 60.9466667,57.4266667 C60.2777296,57.3794489 59.6901436,57.8671453 59.6133333,58.5333333 C59.4666667,59.44 59.2266667,61.2 58.9333333,62.3866667 C58.8071412,63.6318099 58.9808717,64.8890708 59.44,66.0533333 C59.7466667,66.76 60.7733333,67.0133333 61.1466667,66.5466667 C61.4734584,65.6496725 61.6753495,64.7120006 61.7466667,63.76 C61.92,63 62.8533333,60.5866667 62.96,60.2933333 C63.0666667,60 62.3466667,59.12 61.9466667,59.4133333 C61.5466667,59.7066667 61.36,59.2133333 61.4266667,58.9333333 C61.6718947,58.3799928 61.9570934,57.8452453 62.28,57.3333333 L62.28,57.3333333 Z" id="Path" fill="#0063CB" fill-rule="nonzero"></path>
                            <path d="M60,58.4666667 C60.0446943,57.8850098 60.4887833,57.4131653 61.0666667,57.3333333 L61.4133333,57.3333333 C61.688267,57.3595153 61.9650664,57.3595153 62.24,57.3333333 C61.9177903,57.8154988 61.6367957,58.3239654 61.4,58.8533333 C61.4,59.1333333 61.52,59.6266667 61.92,59.3333333 L61.92,59.3333333 C62.0343798,59.446889 62.2189535,59.446889 62.3333333,59.3333333 C62.68,59.5066667 63,60 62.9333333,60.2 C62.8666667,60.4 61.8933333,62.8666667 61.72,63.6666667 C61.6486828,64.6186673 61.4467918,65.5563392 61.12,66.4533333 C61.0238654,66.5678852 60.8926499,66.6475518 60.7466667,66.68 C60.3482265,66.5971873 60.0094206,66.3369451 59.8266667,65.9733333 C59.380686,64.8011112 59.2118424,63.5416296 59.3333333,62.2933333 C59.6133333,61.2 59.8666667,59.3733333 60,58.4666667 Z" id="Path" fill="#0253A2" fill-rule="nonzero"></path>
                            <path d="M61.5866667,42.2133333 C63.48,42.6933333 72.3733333,44.1733333 73.36,45.52 C74.3466667,46.8666667 71.5733333,49.3866667 64.8533333,49.24 C58.1333333,49.0933333 57.0133333,48.4 55.52,45.88 C54.0266667,43.36 60.1733333,41.8533333 61.5866667,42.2133333 Z" id="Path" fill="#FEC00F" fill-rule="nonzero"></path>
                            <path d="M70.0533333,47.32 C70.0533333,47.32 65.9733333,49.3333333 64.9733333,52.32 C64.5184971,53.8517858 63.8304297,55.3043725 62.9333333,56.6266667 L64.52,58.1466667 C64.52,58.1466667 72.2933333,50.8666667 73.12,49.2266667 C73.9466667,47.5866667 74.28,45.6666667 72.96,45.6532544 C71.64,45.64 70.0533333,47.32 70.0533333,47.32 Z" id="Path" fill="#FEC00F" fill-rule="nonzero"></path>
                            <polygon id="Path" fill="#89D5DA" fill-rule="nonzero" points="64.5333333 58.1333333 64.5333333 58.1333333 63.2 56.8"></polygon>
                            <path d="M70.7733333,48.16 C69.2266667,49.0933333 66.5866667,50.1733333 65.44,52.9333333 C64.8709211,54.3213706 64.1174814,55.6264357 63.2,56.8133333 L63,56.6266667 C63.8970964,55.3043725 64.5851638,53.8517858 65.04,52.32 C66.04,49.28 70.12,47.76 70.12,47.76 C70.12,47.76 71.72,47.5866667 70.7733333,48.16 Z" id="Path" fill="#FFAA00" fill-rule="nonzero"></path>
                            <path d="M61.5866667,42.2133333 L61.8533333,42.28 C60.9866667,42.4266667 59.8533333,42.6266667 59.4,42.7733333 C58.6,43.0133333 58.6266667,43.7733333 59.9333333,44.4666667 C62.4220058,45.5048585 65.0503629,46.1698104 67.7333333,46.44 C69.2266667,46.3466667 71.8666667,46.44 71.52,47.0533333 C71.4,47.2666667 70.4666667,47.3733333 70.1866667,47.6 C69.2933333,47.9466667 69.04,48.9333333 67.6266667,49.1333333 C66.6834545,49.2324138 65.7346537,49.2680495 64.7866667,49.24 C58.12,49.0933333 56.9466667,48.4 55.4533333,45.88 C54.9249601,45.054271 54.6089179,44.1107246 54.5333333,43.1333333 C54.44,41.5733333 60.1733333,41.8533333 61.5866667,42.2133333 Z" id="Path" fill="#FFAA00" fill-rule="nonzero"></path>
                            <path d="M61.0933333,11.6933333 C60.8666667,10.5333333 54.92,8 51.52,9.68 C49.2266667,10.8533333 48.8533333,11.6533333 50.1866667,13.7733333 C51.0933333,15.32 51.2533333,16.8133333 49.08,18 C46.2933333,19.52 47.4266667,20.3866667 48.56,20.9733333 C50.2533333,21.8533333 52.7466667,22.1866667 52.4133333,23.9066667 C52.08,25.6266667 56,25.3333333 58.6666667,24.16 C58.6666667,24.16 58.9066667,24.8666667 60.4933333,24.9333333 C62.08,25 63.8666667,23.2266667 63.3466667,19.8666667 C62.8266667,16.5066667 65.2,16.5866667 64.7866667,14.04 C64.3733333,11.4933333 62.8266667,10.04 61.04,11.5733333" id="Path" fill="#212A54" fill-rule="nonzero"></path>
                            <path d="M61.2533333,27.08 C60.32,26.5733333 59.5466667,26.16 59.3333333,25.4933333 C59.1374773,24.6014259 59.347487,23.6685922 59.9066667,22.9466667 C59.9066667,22.9466667 56.0133333,20.9066667 56.4933333,22.2133333 C56.9733333,23.52 57.9066667,26.4133333 56.2933333,26.5066667 C56.0116689,26.521223 55.7334215,26.5750773 55.4666667,26.6666667 C56.24,28.6666667 57.5466667,29.96 58.8666667,29.8133333 C60,29.6933333 60.8,28.6266667 61.2533333,27.08 Z" id="Path" fill="#FCCEB4" fill-rule="nonzero"></path>
                            <path d="M59.5333333,25.88 C58.6818275,25.5440833 57.8791387,25.0956538 57.1466667,24.5466667 C57.0043955,23.7583666 56.785582,22.9858209 56.4933333,22.24 C56.0133333,20.9066667 59.9066667,22.9733333 59.9066667,22.9733333 C59.347487,23.6952588 59.1374773,24.6280926 59.3333333,25.52 C59.388159,25.6462062 59.4551416,25.7667749 59.5333333,25.88 Z" id="Path" fill="#FBC3A3" fill-rule="nonzero"></path>
                            <path d="M59.0533333,12.88 C59.0533333,12.88 67.0533333,23.3466667 59.2666667,23.36 C56.12,23.36 55.7066667,22.0266667 55.2666667,21.16 C54.8266667,20.2933333 53.9333333,21.9066667 53.4533333,20.08 C52.9733333,18.2533333 53.5866667,18.2666667 54.52,19.0133333 C55.4533333,19.76 55.7466667,19.3066667 55.6933333,17.9466667 C55.64,16.5866667 54.36,16.3866667 56.8533333,16.12 C59.3466667,15.8533333 60.2133333,14.8 59.0533333,12.88 Z" id="Path" fill="#FCCEB4" fill-rule="nonzero"></path>
                            <path d="M36.1466667,19.08 L34.6933333,19.2133333 C34.6933333,19.2133333 32.9066667,18.7066667 32.6266667,18.9333333 C32.3466667,19.16 33.96,19.64 33.96,19.64 L36,20 L36.1466667,19.08 Z" id="Path" fill="#FBC3A3" fill-rule="nonzero"></path>
                            <path d="M36,19.7333333 L34.5466667,19.8666667 C34.5466667,19.8666667 32.7466667,19.36 32.4666667,19.5866667 C32.1866667,19.8133333 33.8,20.2933333 33.8,20.2933333 L35.9066667,20.6933333 L36,19.7333333 Z" id="Path" fill="#FBC3A3" fill-rule="nonzero"></path>
                            <path d="M37.0533333,18.8133333 L35.6,18.96 C35.6,18.96 33.8,18.4533333 33.52,18.68 C33.24,18.9066667 34.8533333,19.3866667 34.8533333,19.3866667 L36.96,19.7866667 L37.0533333,18.8133333 Z" id="Path" fill="#FBC3A3" fill-rule="nonzero"></path>
                            <path d="M39.6666667,19.2 C39.6666667,19.2 39.4133333,18.0933333 37.6666667,17.8666667 C35.92,17.64 34.5066667,17.8666667 35.6266667,18.24 C36.7466667,18.6133333 36.3733333,18.4133333 35.6266667,19.32 L34.9066667,20.24 C34.3567957,20.277068 33.8093303,20.3438321 33.2666667,20.44 C33.0387602,20.4979087 32.8863609,20.7123966 32.9066667,20.9466667 L35.0533333,21.0266667 C35.7965726,20.8110184 36.5610732,20.6768955 37.3333333,20.6266667 C37.9488328,20.7951712 38.5402861,21.0416101 39.0933333,21.36 L39.6666667,19.2 Z" id="Path" fill="#FCCEB4" fill-rule="nonzero"></path>
                            <path d="M74.2933333,15.6933333 L75.6266667,15.1466667 C75.6266667,15.1466667 76.96,13.88 77.3466667,13.96 C77.7333333,14.04 76.5066667,15.1866667 76.5066667,15.1866667 L74.8133333,16.52 L74.2933333,15.6933333 Z" id="Path" fill="#FBC3A3" fill-rule="nonzero"></path>
                            <path d="M74.6666667,16.2133333 L76,15.68 C76,15.68 77.3333333,14.4133333 77.72,14.48 C78.1066667,14.5466667 76.88,15.7066667 76.88,15.7066667 L75.1733333,17.04 L74.6666667,16.2133333 Z" id="Path" fill="#FBC3A3" fill-rule="nonzero"></path>
                            <path d="M73.3333333,15.8666667 L74.6666667,15.3333333 C74.6666667,15.3333333 76,14.0666667 76.3866667,14.1333333 C76.7733333,14.2 75.5466667,15.36 75.5466667,15.36 L73.8533333,16.6933333 L73.3333333,15.8666667 Z" id="Path" fill="#FBC3A3" fill-rule="nonzero"></path>
                            <path d="M71.8933333,17.3333333 C71.8933333,17.3333333 71.44,15.8933333 72.4,15.2666667 C73.88,14.3066667 75.2266667,13.8533333 74.4,14.68 C73.5733333,15.5066667 73.8,15.16 74.8666667,15.6533333 L75.92,16.1466667 C76.4298216,15.9289239 76.95051,15.7375598 77.48,15.5733333 C77.7059034,15.5226095 77.9358213,15.6403724 78.0266667,15.8533333 L76.16,16.9066667 C75.3970237,17.0461926 74.6507391,17.2651623 73.9333333,17.56 C73.1393181,17.8811558 72.3183036,18.1310298 71.48,18.3066667 L71.8933333,17.3333333 Z" id="Path" fill="#FCCEB4" fill-rule="nonzero"></path>
                            <path d="M61.7066667,26.6666667 C63.1129571,24.5478446 64.6821472,22.5417777 66.4,20.6666667 C67.9928121,19.1642926 69.6616733,17.7446479 71.4,16.4133333 C71.4,16.4133333 72.8666667,16.9866667 72.6266667,18.1866667 C72.3866667,19.3866667 71.7866667,19.32 70.12,21.2933333 C68.4533333,23.2666667 64.6533333,27.8533333 64.7866667,30.7333333 C64.92,33.6133333 61.7733333,27.0133333 61.7066667,26.6666667 Z" id="Path" fill="#9AC7F7" fill-rule="nonzero"></path>
                            <path d="M52.32,27.1733333 C53.6329345,26.7666607 54.9685532,26.4372081 56.32,26.1866667 C57.36,26.1066667 59.76,28.3333333 59.8266667,28.7466667 C59.96,29.48 59.9466667,25.88 59.9466667,25.88 L62.9066667,26.12 C62.9066667,26.12 65.3733333,27.7733333 65.96,33.84 C66.1066667,35.4666667 65.96,40 66.9733333,43.1733333 C65.9950411,43.1207032 65.0228103,42.98691 64.0666667,42.7733333 C57.7066667,42.1866667 56.2133333,45.7066667 55.68,46.0666667 C53.08,47.8133333 54.5866667,41.9066667 54.4933333,39.6 C54.4393805,37.7766567 53.9355484,35.9949229 53.0266667,34.4133333 C52.3333333,33.3333333 55,31.5866667 52.32,27.1733333 Z" id="Path" fill="#69AEEB" fill-rule="nonzero"></path>
                            <path d="M52.8,27.4266667 C52.8,27.4266667 47.4666667,24.0533333 45.72,22.8266667 C43.9733333,21.6 39.48,18.2266667 39.48,18.2266667 C39.0132132,19.0864663 38.6975159,20.0200283 38.5466667,20.9866667 C38.68,21.6266667 45.9866667,27.7866667 49.4,30.2266667 C52.8133333,32.6666667 52.9466667,35.1466667 53.4,34.2266667 C54.3555255,32.0032105 54.1301054,29.4484495 52.8,27.4266667 Z" id="Path" fill="#9AC7F7" fill-rule="nonzero"></path>
                            <path d="M22.066683,37.64 C22.0720588,39.8534777 20.7421287,41.8517527 18.6981691,42.7013067 C16.6542096,43.5508607 14.2996689,43.0840039 12.7344992,41.5188342 C11.1693294,39.9536645 10.7024727,37.5991237 11.5520266,35.5551642 C12.4015806,33.5112047 14.3998556,32.1812745 16.6133333,32.1866503 C19.622085,32.1939962 22.0593372,34.6312484 22.066683,37.64 Z" id="Path" fill="#F9D675" fill-rule="nonzero"></path>
                            <path d="M141.546667,113.786667 C141.546667,116.052867 140.180817,118.095669 138.086603,118.961655 C135.992389,119.827642 133.582687,119.346081 131.982152,117.741726 C130.381617,116.137372 129.905802,113.726528 130.776778,111.634385 C131.647754,109.542241 133.693806,108.181271 135.96,108.186651 C139.047586,108.194018 141.546667,110.699072 141.546667,113.786667 Z" id="Path" fill="#0063CB" fill-rule="nonzero"></path>
                            <path d="M132.933333,53.5733333 C123.360398,53.5733333 115.6,45.8129357 115.6,36.24 C115.6,26.6670643 123.360398,18.9066667 132.933333,18.9066667 C142.506269,18.9066667 150.266667,26.6670643 150.266667,36.24 C150.22287,45.7947359 142.488069,53.5295371 132.933333,53.5733333 Z M132.933333,21.0533333 C124.575424,21.0533333 117.8,27.8287575 117.8,36.1866667 C117.8,44.5445759 124.575424,51.32 132.933333,51.32 C141.291243,51.32 148.066667,44.5445759 148.066667,36.1866667 C148.059315,27.8318044 141.288196,21.0606847 132.933333,21.0533333 Z" id="Shape" fill="#F9D675" fill-rule="nonzero"></path>
                        </g>
                    </g>
                </g>
            </g>
        </g>
    </g>
</svg>