<?xml version="1.0" encoding="UTF-8"?>
<svg width="160px" height="124px" viewBox="0 0 160 124" version="1.1" xmlns="http://www.w3.org/2000/svg" xmlns:xlink="http://www.w3.org/1999/xlink">
    <!-- Generator: sketchtool 56.2 (101010) - https://sketch.com -->
    <title>61C59D49-33C6-451D-BF27-0AC812036088</title>
    <desc>Created with sketchtool.</desc>
    <g id="Landing-Page---Desktop" stroke="none" stroke-width="1" fill="none" fill-rule="evenodd">
        <g id="Landing-Page" transform="translate(-508.000000, -1038.000000)" fill-rule="nonzero">
            <g id="How-it-works-|-Section" transform="translate(0.000000, 768.000000)">
                <g id="Steps-section" transform="translate(0.000000, 208.000000)">
                    <g id="Step-2" transform="translate(508.000000, 62.000000)">
                        <g id="Illustration">
                            <path d="M56.4649573,112.984615 C56.4649573,112.984615 68.0205128,133.155556 98.174359,116.45812 C128.328205,99.7606838 154.010256,58.0376068 130.912821,31.6717949 C107.815385,5.30598291 102.673504,-5.96239316 68.6632479,3.78803419 C34.6529915,13.5384615 -18.6119658,62.9059829 7.05641026,78.208547 C32.7247863,93.5111111 43.6376068,85.1692308 56.4649573,112.984615 Z" id="Path" fill="#8DCFFF"></path>
                            <polygon id="Path" fill="#FFA813" points="3.95213675 98.9401709 7.58974359 118.468376 160 89.0803419 156.362393 69.565812"></polygon>
                            <polygon id="Path" fill="#FDBF14" points="3.81538462 98.1606838 7.43931624 117.675214 159.849573 88.2871795 156.225641 68.7726496"></polygon>
                            <polygon id="Rectangle" fill="#FFFFFF" transform="translate(8.867476, 101.174932) rotate(-10.540000) translate(-8.867476, -101.174932) " points="8.66234816 97.5099748 9.07260457 97.5099748 9.07260457 104.839889 8.66234816 104.839889"></polygon>
                            <polygon id="Rectangle" fill="#FFFFFF" transform="translate(10.165744, 99.164034) rotate(-10.407711) translate(-10.165744, -99.164034) " points="9.96135518 96.8271934 10.370132 96.8271934 10.370132 101.500875 9.96135518 101.500875"></polygon>
                            <polygon id="Rectangle" fill="#FFFFFF" transform="translate(12.438224, 99.143037) rotate(-10.510000) translate(-12.438224, -99.143037) " points="12.2330954 96.7977378 12.6433518 96.7977378 12.6433518 101.488336 12.2330954 101.488336"></polygon>
                            <polygon id="Rectangle" fill="#FFFFFF" transform="translate(14.352802, 98.767090) rotate(-10.540000) translate(-14.352802, -98.767090) " points="14.1476738 96.4217905 14.5579302 96.4217905 14.5579302 101.112389 14.1476738 101.112389"></polygon>
                            <polygon id="Rectangle" fill="#FFFFFF" transform="translate(16.269142, 98.405201) rotate(-10.550000) translate(-16.269142, -98.405201) " points="16.0640137 96.0599017 16.4742701 96.0599017 16.4742701 100.7505 16.0640137 100.7505"></polygon>
                            <polygon id="Rectangle" fill="#FFFFFF" transform="translate(18.422274, 99.334228) rotate(-10.540000) translate(-18.422274, -99.334228) " points="18.2171454 95.6692705 18.6274018 95.6692705 18.6274018 102.999185 18.2171454 102.999185"></polygon>
                            <polygon id="Rectangle" fill="#FFFFFF" transform="translate(20.086773, 97.669045) rotate(-10.540000) translate(-20.086773, -97.669045) " points="19.881645 95.3237463 20.2919014 95.3237463 20.2919014 100.014345 19.881645 100.014345"></polygon>
                            <polygon id="Rectangle" fill="#FFFFFF" transform="translate(21.981240, 97.286772) rotate(-10.540000) translate(-21.981240, -97.286772) " points="21.776112 94.9414732 22.1863684 94.9414732 22.1863684 99.6320715 21.776112 99.6320715"></polygon>
                            <polygon id="Rectangle" fill="#FFFFFF" transform="translate(23.900128, 96.923439) rotate(-10.530000) translate(-23.900128, -96.923439) " points="23.6950002 94.5781398 24.1052567 94.5781398 24.1052567 99.2687381 23.6950002 99.2687381"></polygon>
                            <polygon id="Rectangle" fill="#FFFFFF" transform="translate(25.823319, 96.562915) rotate(-10.550000) translate(-25.823319, -96.562915) " points="25.6181911 94.2176158 26.0284475 94.2176158 26.0284475 98.908214 25.6181911 98.908214"></polygon>
                            <polygon id="Rectangle" fill="#FFFFFF" transform="translate(27.974800, 97.482580) rotate(-10.540000) translate(-27.974800, -97.482580) " points="27.7696718 93.8176232 28.1799282 93.8176232 28.1799282 101.147538 27.7696718 101.147538"></polygon>
                            <polygon id="Rectangle" fill="#FFFFFF" transform="translate(29.639300, 95.831073) rotate(-10.540000) translate(-29.639300, -95.831073) " points="29.4341714 93.4857742 29.8444278 93.4857742 29.8444278 98.1763725 29.4341714 98.1763725"></polygon>
                            <polygon id="Rectangle" fill="#FFFFFF" transform="translate(31.545008, 95.455330) rotate(-10.530000) translate(-31.545008, -95.455330) " points="31.3398795 93.1100306 31.7501359 93.1100306 31.7501359 97.8006289 31.3398795 97.8006289"></polygon>
                            <polygon id="Rectangle" fill="#FFFFFF" transform="translate(33.460126, 95.088413) rotate(-10.540000) translate(-33.460126, -95.088413) " points="33.2549974 92.7431141 33.6652538 92.7431141 33.6652538 97.4337124 33.2549974 97.4337124"></polygon>
                            <polygon id="Rectangle" fill="#FFFFFF" transform="translate(35.366313, 94.715802) rotate(-10.530000) translate(-35.366313, -94.715802) " points="35.1611847 92.3705031 35.5714411 92.3705031 35.5714411 97.0611014 35.1611847 97.0611014"></polygon>
                            <polygon id="Rectangle" fill="#FFFFFF" transform="translate(37.513651, 95.644608) rotate(-10.540000) translate(-37.513651, -95.644608) " points="37.308523 91.9796512 37.7187794 91.9796512 37.7187794 99.3095657 37.308523 99.3095657"></polygon>
                            <polygon id="Rectangle" fill="#FFFFFF" transform="translate(39.195801, 93.980070) rotate(-10.550000) translate(-39.195801, -93.980070) " points="38.9906729 91.6347713 39.4009293 91.6347713 39.4009293 96.3253696 38.9906729 96.3253696"></polygon>
                            <polygon id="Rectangle" fill="#FFFFFF" transform="translate(40.616615, 93.397470) rotate(-10.407711) translate(-40.616615, -93.397470) " points="40.412227 91.0606293 40.8210038 91.0606293 40.8210038 95.7343109 40.412227 95.7343109"></polygon>
                            <polygon id="Rectangle" fill="#FFFFFF" transform="translate(43.012652, 93.236766) rotate(-10.540000) translate(-43.012652, -93.236766) " points="42.8075239 90.8914668 43.2177803 90.8914668 43.2177803 95.5820651 42.8075239 95.5820651"></polygon>
                            <polygon id="Rectangle" fill="#FFFFFF" transform="translate(44.926898, 92.867634) rotate(-10.550000) translate(-44.926898, -92.867634) " points="44.7217695 90.5223349 45.1320259 90.5223349 45.1320259 95.2129331 44.7217695 95.2129331"></polygon>
                            <polygon id="Rectangle" fill="#FFFFFF" transform="translate(47.058698, 93.819379) rotate(-10.550000) translate(-47.058698, -93.819379) " points="46.8535698 90.1544218 47.2638262 90.1544218 47.2638262 97.4843364 46.8535698 97.4843364"></polygon>
                            <polygon id="Rectangle" fill="#FFFFFF" transform="translate(48.730447, 92.138953) rotate(-10.540000) translate(-48.730447, -92.138953) " points="48.5253184 89.7936534 48.9355748 89.7936534 48.9355748 94.4842517 48.5253184 94.4842517"></polygon>
                            <polygon id="Rectangle" fill="#FFFFFF" transform="translate(50.654535, 91.767622) rotate(-10.540000) translate(-50.654535, -91.767622) " points="50.4494066 89.4223233 50.859663 89.4223233 50.859663 94.1129216 50.4494066 94.1129216"></polygon>
                            <polygon id="Rectangle" fill="#FFFFFF" transform="translate(52.561841, 91.397855) rotate(-10.530000) translate(-52.561841, -91.397855) " points="52.3567126 89.0525559 52.766969 89.0525559 52.766969 93.7431542 52.3567126 93.7431542"></polygon>
                            <polygon id="Rectangle" fill="#FFFFFF" transform="translate(53.996718, 90.836650) rotate(-10.407711) translate(-53.996718, -90.836650) " points="53.7923295 88.4998088 54.2011064 88.4998088 54.2011064 93.1734904 53.7923295 93.1734904"></polygon>
                            <polygon id="Rectangle" fill="#FFFFFF" transform="translate(56.637722, 91.963649) rotate(-10.550000) translate(-56.637722, -91.963649) " points="56.4325939 88.2986919 56.8428503 88.2986919 56.8428503 95.6286064 56.4325939 95.6286064"></polygon>
                            <polygon id="Rectangle" fill="#FFFFFF" transform="translate(58.291402, 90.300722) rotate(-10.560000) translate(-58.291402, -90.300722) " points="58.0862734 87.9554231 58.4965298 87.9554231 58.4965298 92.6460214 58.0862734 92.6460214"></polygon>
                            <polygon id="Rectangle" fill="#FFFFFF" transform="translate(60.195887, 89.929420) rotate(-10.540000) translate(-60.195887, -89.929420) " points="59.9907593 87.5841205 60.4010157 87.5841205 60.4010157 92.2747188 59.9907593 92.2747188"></polygon>
                            <polygon id="Rectangle" fill="#FFFFFF" transform="translate(62.119976, 89.558090) rotate(-10.540000) translate(-62.119976, -89.558090) " points="61.9148475 87.2127905 62.3251039 87.2127905 62.3251039 91.9033888 61.9148475 91.9033888"></polygon>
                            <polygon id="Rectangle" fill="#FFFFFF" transform="translate(64.022125, 89.187338) rotate(-10.560000) translate(-64.022125, -89.187338) " points="63.8169968 86.8420389 64.2272532 86.8420389 64.2272532 91.5326372 63.8169968 91.5326372"></polygon>
                            <polygon id="Rectangle" fill="#FFFFFF" transform="translate(66.173271, 90.125459) rotate(-10.540000) translate(-66.173271, -90.125459) " points="65.9681424 86.4605013 66.3783988 86.4605013 66.3783988 93.7904158 65.9681424 93.7904158"></polygon>
                            <polygon id="Rectangle" fill="#FFFFFF" transform="translate(67.853788, 88.458683) rotate(-10.550000) translate(-67.853788, -88.458683) " points="67.6486599 86.1133835 68.0589163 86.1133835 68.0589163 90.8039818 67.6486599 90.8039818"></polygon>
                            <polygon id="Rectangle" fill="#FFFFFF" transform="translate(69.757414, 88.092758) rotate(-10.520000) translate(-69.757414, -88.092758) " points="69.5522857 85.7474591 69.9625421 85.7474591 69.9625421 90.4380574 69.5522857 90.4380574"></polygon>
                            <polygon id="Rectangle" fill="#FFFFFF" transform="translate(71.654630, 87.724559) rotate(-10.520000) translate(-71.654630, -87.724559) " points="71.4495022 85.3792594 71.8597586 85.3792594 71.8597586 90.0698576 71.4495022 90.0698576"></polygon>
                            <polygon id="Rectangle" fill="#FFFFFF" transform="translate(73.571210, 87.346246) rotate(-10.550000) translate(-73.571210, -87.346246) " points="73.3660813 85.0009471 73.7763377 85.0009471 73.7763377 89.6915454 73.3660813 89.6915454"></polygon>
                            <polygon id="Rectangle" fill="#FFFFFF" transform="translate(75.730360, 88.284316) rotate(-10.550000) translate(-75.730360, -88.284316) " points="75.5252321 84.6193588 75.9354885 84.6193588 75.9354885 91.9492734 75.5252321 91.9492734"></polygon>
                            <polygon id="Rectangle" fill="#FFFFFF" transform="translate(77.374897, 86.625474) rotate(-10.530000) translate(-77.374897, -86.625474) " points="77.1697693 84.2801747 77.5800257 84.2801747 77.5800257 88.970773 77.1697693 88.970773"></polygon>
                            <polygon id="Rectangle" fill="#FFFFFF" transform="translate(78.717128, 86.188718) rotate(-10.407711) translate(-78.717128, -86.188718) " points="78.5127398 83.8518771 78.9215166 83.8518771 78.9215166 88.5255588 78.5127398 88.5255588"></polygon>
                            <polygon id="Rectangle" fill="#FFFFFF" transform="translate(81.227299, 85.879413) rotate(-10.540000) translate(-81.227299, -85.879413) " points="81.0221711 83.5341141 81.4324276 83.5341141 81.4324276 88.2247124 81.0221711 88.2247124"></polygon>
                            <polygon id="Rectangle" fill="#FFFFFF" transform="translate(83.125618, 85.520139) rotate(-10.550000) translate(-83.125618, -85.520139) " points="82.9204899 83.1748402 83.3307463 83.1748402 83.3307463 87.8654385 82.9204899 87.8654385"></polygon>
                            <polygon id="Rectangle" fill="#FFFFFF" transform="translate(85.279151, 86.451300) rotate(-10.530000) translate(-85.279151, -86.451300) " points="85.0740232 82.7863431 85.4842796 82.7863431 85.4842796 90.1162576 85.0740232 90.1162576"></polygon>
                            <polygon id="Rectangle" fill="#FFFFFF" transform="translate(86.958769, 84.767925) rotate(-10.540000) translate(-86.958769, -84.767925) " points="86.7536409 82.4226255 87.1638973 82.4226255 87.1638973 87.1132238 86.7536409 87.1132238"></polygon>
                            <polygon id="Rectangle" fill="#FFFFFF" transform="translate(88.865242, 84.403177) rotate(-10.500000) translate(-88.865242, -84.403177) " points="88.6601141 82.0578776 89.0703705 82.0578776 89.0703705 86.7484759 88.6601141 86.7484759"></polygon>
                            <polygon id="Rectangle" fill="#FFFFFF" transform="translate(90.766151, 84.041441) rotate(-10.540000) translate(-90.766151, -84.041441) " points="90.5610224 81.6961421 90.9712788 81.6961421 90.9712788 86.3867404 90.5610224 86.3867404"></polygon>
                            <polygon id="Rectangle" fill="#FFFFFF" transform="translate(92.678738, 83.680349) rotate(-10.570000) translate(-92.678738, -83.680349) " points="92.4736098 81.3350495 92.8838662 81.3350495 92.8838662 86.0256477 92.4736098 86.0256477"></polygon>
                            <polygon id="Rectangle" fill="#FFFFFF" transform="translate(94.817799, 84.607327) rotate(-10.520000) translate(-94.817799, -84.607327) " points="94.6126709 80.9423695 95.0229273 80.9423695 95.0229273 88.272284 94.6126709 88.272284"></polygon>
                            <polygon id="Rectangle" fill="#FFFFFF" transform="translate(96.498100, 82.923620) rotate(-10.550000) translate(-96.498100, -82.923620) " points="96.2929717 80.5783205 96.7032281 80.5783205 96.7032281 85.2689188 96.2929717 85.2689188"></polygon>
                            <polygon id="Rectangle" fill="#FFFFFF" transform="translate(98.408033, 82.558623) rotate(-10.540000) translate(-98.408033, -82.558623) " points="98.2029051 80.2133234 98.6131615 80.2133234 98.6131615 84.9039217 98.2029051 84.9039217"></polygon>
                            <polygon id="Rectangle" fill="#FFFFFF" transform="translate(99.721983, 82.158085) rotate(-10.407711) translate(-99.721983, -82.158085) " points="99.5175945 79.8212447 99.9263713 79.8212447 99.9263713 84.4949263 99.5175945 84.4949263"></polygon>
                            <polygon id="Rectangle" fill="#FFFFFF" transform="translate(102.229090, 81.818464) rotate(-10.540000) translate(-102.229090, -81.818464) " points="102.023962 79.4731648 102.434218 79.4731648 102.434218 84.163763 102.023962 84.163763"></polygon>
                            <polygon id="Rectangle" fill="#FFFFFF" transform="translate(104.387918, 82.754431) rotate(-10.540000) translate(-104.387918, -82.754431) " points="104.18279 79.0894734 104.593046 79.0894734 104.593046 86.4193879 104.18279 86.4193879"></polygon>
                            <polygon id="Rectangle" fill="#FFFFFF" transform="translate(106.049774, 81.081565) rotate(-10.550000) translate(-106.049774, -81.081565) " points="105.844645 78.7362658 106.254902 78.7362658 106.254902 83.426864 105.844645 83.426864"></polygon>
                            <polygon id="Rectangle" fill="#FFFFFF" transform="translate(107.949646, 80.728646) rotate(-10.530000) translate(-107.949646, -80.728646) " points="107.744518 78.3833471 108.154775 78.3833471 108.154775 83.0739454 107.744518 83.0739454"></polygon>
                            <polygon id="Rectangle" fill="#FFFFFF" transform="translate(109.873859, 80.357633) rotate(-10.530000) translate(-109.873859, -80.357633) " points="109.668731 78.0123338 110.078987 78.0123338 110.078987 82.7029321 109.668731 82.7029321"></polygon>
                            <polygon id="Rectangle" fill="#FFFFFF" transform="translate(111.783887, 79.977760) rotate(-10.540000) translate(-111.783887, -79.977760) " points="111.578759 77.6324605 111.989015 77.6324605 111.989015 82.3230588 111.578759 82.3230588"></polygon>
                            <polygon id="Rectangle" fill="#FFFFFF" transform="translate(113.925918, 80.911611) rotate(-10.560000) translate(-113.925918, -80.911611) " points="113.72079 77.2466538 114.131046 77.2466538 114.131046 84.5765683 113.72079 84.5765683"></polygon>
                            <polygon id="Rectangle" fill="#FFFFFF" transform="translate(115.603416, 79.259638) rotate(-10.560000) translate(-115.603416, -79.259638) " points="115.398288 76.9143384 115.808544 76.9143384 115.808544 81.6049367 115.398288 81.6049367"></polygon>
                            <polygon id="Rectangle" fill="#FFFFFF" transform="translate(117.514471, 78.883811) rotate(-10.550000) translate(-117.514471, -78.883811) " points="117.309342 76.5385121 117.719599 76.5385121 117.719599 81.2291104 117.309342 81.2291104"></polygon>
                            <polygon id="Rectangle" fill="#FFFFFF" transform="translate(119.425770, 78.522291) rotate(-10.540000) translate(-119.425770, -78.522291) " points="119.220642 76.1769922 119.630898 76.1769922 119.630898 80.8675905 119.220642 80.8675905"></polygon>
                            <polygon id="Rectangle" fill="#FFFFFF" transform="translate(121.323869, 78.163902) rotate(-10.530000) translate(-121.323869, -78.163902) " points="121.118741 75.8186026 121.528997 75.8186026 121.528997 80.5092009 121.118741 80.5092009"></polygon>
                            <polygon id="Rectangle" fill="#FFFFFF" transform="translate(123.492740, 79.062310) rotate(-10.540000) translate(-123.492740, -79.062310) " points="123.287612 75.3973525 123.697868 75.3973525 123.697868 82.7272671 123.287612 82.7272671"></polygon>
                            <polygon id="Rectangle" fill="#FFFFFF" transform="translate(125.158619, 77.408200) rotate(-10.530000) translate(-125.158619, -77.408200) " points="124.953491 75.0629008 125.363747 75.0629008 125.363747 79.7534991 124.953491 79.7534991"></polygon>
                            <polygon id="Rectangle" fill="#FFFFFF" transform="translate(127.066375, 77.030585) rotate(-10.550000) translate(-127.066375, -77.030585) " points="126.861247 74.685286 127.271504 74.685286 127.271504 79.3758843 126.861247 79.3758843"></polygon>
                            <polygon id="Rectangle" fill="#FFFFFF" transform="translate(128.966249, 76.668672) rotate(-10.530000) translate(-128.966249, -76.668672) " points="128.761121 74.3233733 129.171377 74.3233733 129.171377 79.0139716 128.761121 79.0139716"></polygon>
                            <polygon id="Rectangle" fill="#FFFFFF" transform="translate(130.888709, 76.299314) rotate(-10.540000) translate(-130.888709, -76.299314) " points="130.683581 73.9540149 131.093838 73.9540149 131.093838 78.6446131 130.683581 78.6446131"></polygon>
                            <polygon id="Rectangle" fill="#FFFFFF" transform="translate(133.034093, 77.237782) rotate(-10.540000) translate(-133.034093, -77.237782) " points="132.828965 73.5728249 133.239221 73.5728249 133.239221 80.9027395 132.828965 80.9027395"></polygon>
                            <polygon id="Rectangle" fill="#FFFFFF" transform="translate(134.011487, 75.637470) rotate(-10.407711) translate(-134.011487, -75.637470) " points="133.807099 73.3006293 134.215876 73.3006293 134.215876 77.9743109 133.807099 77.9743109"></polygon>
                            <polygon id="Rectangle" fill="#FFFFFF" transform="translate(136.611128, 75.214238) rotate(-10.530000) translate(-136.611128, -75.214238) " points="136.406 72.8689393 136.816257 72.8689393 136.816257 77.5595376 136.406 77.5595376"></polygon>
                            <polygon id="Rectangle" fill="#FFFFFF" transform="translate(138.517397, 74.846507) rotate(-10.550000) translate(-138.517397, -74.846507) " points="138.312269 72.5012075 138.722526 72.5012075 138.722526 77.1918058 138.312269 77.1918058"></polygon>
                            <polygon id="Rectangle" fill="#FFFFFF" transform="translate(140.432434, 74.474711) rotate(-10.530000) translate(-140.432434, -74.474711) " points="140.227305 72.1294118 140.637562 72.1294118 140.637562 76.8200101 140.227305 76.8200101"></polygon>
                            <polygon id="Rectangle" fill="#FFFFFF" transform="translate(141.864205, 75.515350) rotate(-10.407711) translate(-141.864205, -75.515350) " points="141.659817 71.8636108 142.068594 71.8636108 142.068594 79.16709 141.659817 79.16709"></polygon>
                            <polygon id="Rectangle" fill="#FFFFFF" transform="translate(144.267184, 73.719009) rotate(-10.530000) translate(-144.267184, -73.719009) " points="144.062056 71.3737099 144.472312 71.3737099 144.472312 76.0643082 144.062056 76.0643082"></polygon>
                            <polygon id="Rectangle" fill="#FFFFFF" transform="translate(145.447521, 73.481983) rotate(-10.407711) translate(-145.447521, -73.481983) " points="145.243133 71.1451421 145.65191 71.1451421 145.65191 75.8188237 145.243133 75.8188237"></polygon>
                            <polygon id="Rectangle" fill="#FFFFFF" transform="translate(148.071945, 72.991968) rotate(-10.540000) translate(-148.071945, -72.991968) " points="147.866817 70.6466686 148.277073 70.6466686 148.277073 75.3372668 147.866817 75.3372668"></polygon>
                            <polygon id="Rectangle" fill="#FFFFFF" transform="translate(149.979591, 72.607959) rotate(-10.550000) translate(-149.979591, -72.607959) " points="149.774462 70.2626594 150.184719 70.2626594 150.184719 74.9532577 149.774462 74.9532577"></polygon>
                            <polygon id="Rectangle" fill="#FFFFFF" transform="translate(152.140166, 73.538708) rotate(-10.540000) translate(-152.140166, -73.538708) " points="151.935037 69.8805888 152.345294 69.8805888 152.345294 77.1968281 151.935037 77.1968281"></polygon>
                            <polygon id="Rectangle" fill="#0253A2" transform="translate(42.866203, 63.298238) rotate(-45.020000) translate(-42.866203, -63.298238) " points="39.7209039 57.1307163 46.0115022 57.1307163 46.0115022 69.4657591 39.7209039 69.4657591"></polygon>
                            <path d="M25.5863248,25.3537685 C15.7082479,25.326973 7.18696354,32.2820819 5.23428147,41.9652713 C3.2815994,51.6484607 8.44144222,61.3624634 17.5579336,65.1659762 C26.674425,68.969489 37.2081524,65.8030375 42.7164503,57.6032949 C48.2247483,49.4035524 47.173272,38.4545696 40.2051282,31.4529915 C36.345376,27.5446051 31.0793323,25.3475466 25.5863248,25.3537685 Z M41.9965868,45.9897436 C42.0030125,53.7873117 36.4995333,60.5031839 28.85273,62.0291292 C21.2059267,63.5550744 13.546274,59.4659494 10.559332,52.2631522 C7.57239006,45.060355 10.0903502,36.7506559 16.5729269,32.4172612 C23.0555035,28.0838664 31.6965868,28.9341025 37.2102564,34.4478632 C40.2615652,37.5137184 41.9729197,41.6642448 41.9692308,45.9897436 L41.9965868,45.9897436 Z" id="Shape" fill="#0063CB"></path>
                            <polygon id="Rectangle" fill="#0063CB" transform="translate(51.198492, 71.653371) rotate(-45.000000) translate(-51.198492, -71.653371) " points="45.7284063 61.9029439 56.6685772 61.9029439 56.6685772 81.4037986 45.7284063 81.4037986"></polygon>
                            <polygon id="Rectangle" fill="#387BFF" transform="translate(52.646788, 73.102944) rotate(-45.000000) translate(-52.646788, -73.102944) " points="47.1767022 65.4037986 58.1168731 65.4037986 58.1168731 80.8020892 47.1767022 80.8020892"></polygon>
                            <polygon id="Rectangle" fill="#FFFFFF" transform="translate(51.841660, 69.549299) rotate(-44.990000) translate(-51.841660, -69.549299) " points="51.1578992 65.4467348 52.5254206 65.4467348 52.5254206 73.651863 51.1578992 73.651863"></polygon>
                            <path d="M62.5094017,76.9777778 C62.5094017,78.5627297 61.879782,80.082766 60.7590518,81.2034963 C59.6383216,82.3242265 58.1182852,82.9538462 56.5333333,82.9538462 L55.165812,81.5863248 L61.1282051,75.6102564 L62.5094017,76.9777778 Z" id="Path" fill="#0063CB"></path>
                            <path d="M108.540171,88.9709402 C108.540171,91.8484853 106.20746,94.1811966 103.329915,94.1811966 L58.2017094,94.1811966 C55.3241642,94.1811966 52.991453,91.8484853 52.991453,88.9709402 L52.991453,22.9880342 C52.991453,20.1211363 55.3075006,17.7928271 58.174359,17.7777778 L89.4358974,17.7777778 L108.581197,36.9230769 L108.540171,88.9709402 Z" id="Path" fill="#E9F6FF"></path>
                            <polygon id="Path" fill="#D4EDFF" points="91.1726496 35.1452991 108.540171 52.2803419 108.540171 36.8820513 106.803419 35.1452991"></polygon>
                            <path d="M89.4357357,17.7777778 L89.4357357,31.6717949 C89.4249606,33.0607353 89.9690647,34.3965484 90.9473653,35.3825521 C91.9256658,36.3685558 93.2571703,36.9230769 94.6461538,36.9230769 L108.540171,36.9230769 L89.4357357,17.7777778 Z" id="Path" fill="#F3AA06"></path>
                            <rect id="Rectangle" fill="#C5E1F9" x="63.3846154" y="59.4598291" width="34.7350427" height="3.47350427"></rect>
                            <rect id="Rectangle" fill="#C5E1F9" x="63.3846154" y="66.3931624" width="34.7350427" height="3.47350427"></rect>
                            <rect id="Rectangle" fill="#C5E1F9" x="63.3846154" y="73.3538462" width="34.7350427" height="3.47350427"></rect>
                            <rect id="Rectangle" fill="#C5E1F9" x="63.3846154" y="52.5128205" width="26.0512821" height="3.47350427"></rect>
                            <g id="Group" transform="translate(101.196581, 2.735043)">
                                <polygon id="Path" fill="#578FFF" points="15.5076923 2.18803419 7.67179487 7.61709402 0.369230769 5.94871795 8.20512821 0.505982906"></polygon>
                                <polygon id="Path" fill="#387BFF" points="3.2957265 14.8376068 0.369230769 5.94871795 7.67179487 7.61709402 10.5982906 16.5196581"></polygon>
                                <polygon id="Path" fill="#0063CB" points="10.5982906 16.5196581 7.67179487 7.61709402 15.5076923 2.18803419 18.434188 11.0905983"></polygon>
                            </g>
                            <path d="M81.4632479,113.176068 L115.336752,42.3111111 C116.250869,42.8913879 116.66499,44.010633 116.348718,45.0461538 L83.3230769,114.051282 L81.4632479,113.176068 Z" id="Path" fill="#FC524C"></path>
                            <path d="M87.7538462,116.129915 L83.3230769,114.051282 L116.348718,44.991453 L116.348718,44.991453 C117.045469,44.028 118.328827,43.6960735 119.40533,44.2008935 C120.481834,44.7057135 121.047308,45.9046389 120.752137,47.0564103 L120.752137,47.0564103 L120.752137,47.0564103 L87.7538462,116.129915 Z" id="Path" fill="#FF7167"></path>
                            <path d="M120.779487,47.0564103 C121.380179,46.1690947 122.497475,45.7892143 123.51453,46.1264957 L89.6136752,117.005128 L87.7538462,116.129915 L120.779487,47.0564103 Z" id="Path" fill="#FC524C"></path>
                            <path d="M123.487179,46.1264957 C122.470124,45.7892143 121.352829,46.1690947 120.752137,47.0564103 L120.752137,47.0564103 L120.752137,47.0564103 C121.047308,45.9046389 120.481834,44.7057135 119.40533,44.2008935 C118.328827,43.6960735 117.045469,44.028 116.348718,44.991453 L116.348718,44.991453 L116.348718,44.991453 C116.677663,43.9523592 116.254152,42.8229963 115.323077,42.2564103 L127.247863,27.4871795 L123.487179,46.1264957 Z" id="Path" fill="#EAF4FE"></path>
                            <path d="M123.487179,46.1264957 C122.470124,45.7892143 121.352829,46.1690947 120.752137,47.0564103 L120.752137,47.0564103 L120.752137,47.0564103 C121.107692,45.9623932 127.234188,27.4871795 127.234188,27.4871795 L123.487179,46.1264957 Z" id="Path" fill="#C5E1F9"></path>
                            <path d="M126.112821,33.0940171 C125.702525,32.9746748 125.300519,32.8284907 124.909402,32.6564103 C124.47801,32.4444719 124.062156,32.2022716 123.664957,31.9316239 L127.247863,27.4871795 L126.112821,33.0940171 Z" id="Path" fill="#30363D"></path>
                        </g>
                    </g>
                </g>
            </g>
        </g>
    </g>
</svg>