<?xml version="1.0" encoding="UTF-8"?>
<svg width="40px" height="40px" viewBox="0 0 40 40" version="1.1" xmlns="http://www.w3.org/2000/svg" xmlns:xlink="http://www.w3.org/1999/xlink">
    <!-- Generator: sketchtool 56.2 (101010) - https://sketch.com -->
    <title>8ADD01B1-F537-4443-9EC6-9231EB147EB0</title>
    <desc>Created with sketchtool.</desc>
    <defs>
        <path d="M33.4188332,18.3333333 C34.2888332,18.3333333 35.0004999,19.045 35.0004999,19.915 L35.0004999,20.085 C35.0004999,20.955 34.2888332,21.6666667 33.4188332,21.6666667 L6.58049988,21.6666667 C5.71049988,21.6666667 5.00049988,20.955 5.00049988,20.085 L5.00049988,19.915 C5.00049988,19.045 5.71049988,18.3333333 6.58049988,18.3333333 L33.4188332,18.3333333 Z M33.4188332,26.6666667 C34.2888332,26.6666667 35.0004999,27.3783333 35.0004999,28.2483333 L35.0004999,28.4183333 C35.0004999,29.2883333 34.2888332,30 33.4188332,30 L6.58049988,30 C5.71049988,30 5.00049988,29.2883333 5.00049988,28.4183333 L5.00049988,28.2483333 C5.00049988,27.3783333 5.71049988,26.6666667 6.58049988,26.6666667 L33.4188332,26.6666667 Z M33.4188332,10 C34.2888332,10 35.0004999,10.7116667 35.0004999,11.5816667 L35.0004999,11.7516667 C35.0004999,12.6216667 34.2888332,13.3333333 33.4188332,13.3333333 L6.58049988,13.3333333 C5.71049988,13.3333333 5.00049988,12.6216667 5.00049988,11.7516667 L5.00049988,11.5816667 C5.00049988,10.7116667 5.71049988,10 6.58049988,10 L33.4188332,10 Z" id="path-1"></path>
    </defs>
    <g id="Asset-Artboard-Page" stroke="none" stroke-width="1" fill="none" fill-rule="evenodd">
        <g id="27)-Icon/menu">
            <mask id="mask-2" fill="white">
                <use xlink:href="#path-1"></use>
            </mask>
            <use id="🎨-Icon-Сolor" fill="#FFFFFF" xlink:href="#path-1"></use>
        </g>
    </g>
</svg>