<?xml version="1.0" encoding="UTF-8"?>
<svg width="19px" height="28px" viewBox="0 0 19 28" version="1.1" xmlns="http://www.w3.org/2000/svg" xmlns:xlink="http://www.w3.org/1999/xlink">
    <!-- Generator: sketchtool 56.2 (101010) - https://sketch.com -->
    <title>EF6B2819-4793-4DEA-A26D-24804E7F083A</title>
    <desc>Created with sketchtool.</desc>
    <defs>
        <path d="M16.4076,22.2759999 C15.9929333,22.0479999 15.4916,22.0519999 15.0876,22.2933332 L10.0902669,25.2266665 L12.0476001,17.6133334 C13.2142668,18.28 14.5622667,18.6666667 15.9996,18.6666667 C17.4369333,18.6666667 18.7849332,18.28 19.9529332,17.6133334 L21.9382664,25.3359998 L16.4076,22.2759999 Z M15.9996001,5.33333333 C18.9409334,5.33333333 21.3329334,7.72533333 21.3329334,10.6666667 C21.3329334,13.608 18.9409334,16 15.9996001,16 C13.0582668,16 10.6662668,13.608 10.6662668,10.6666667 C10.6662668,7.72533333 13.0582668,5.33333333 15.9996001,5.33333333 L15.9996001,5.33333333 Z M25.2916002,27.668 L22.2129336,15.696 C23.3276002,14.32 23.9996002,12.572 23.9996002,10.6666667 C23.9996002,6.25466667 20.4116002,2.66666667 15.9996002,2.66666667 C11.5889336,2.66666667 7.99960024,6.25466667 7.99960024,10.6666667 C7.99960024,12.572 8.67160024,14.32 9.78626691,15.696 L6.70893357,27.668 C6.57426691,28.1906667 6.76760024,28.7413333 7.19826691,29.0653333 C7.62760024,29.3893333 8.21160024,29.4186667 8.67426691,29.1493333 L15.7809336,24.9773333 L23.3542669,29.1666667 C23.5556002,29.2786667 23.7782669,29.3333333 23.9996002,29.3333333 C24.2889336,29.3333333 24.5769336,29.24 24.8169336,29.0546667 C25.2369336,28.7293333 25.4249336,28.184 25.2916002,27.668 L25.2916002,27.668 Z" id="path-1"></path>
    </defs>
    <g id="Asset-Artboard-Page" stroke="none" stroke-width="1" fill="none" fill-rule="evenodd">
        <g id="27)-Icon/award-fill-Copy" transform="translate(-6.666667, -2.000000)">
            <mask id="mask-2" fill="white">
                <use xlink:href="#path-1"></use>
            </mask>
            <use id="🎨-Icon-Сolor" fill="#07B0E4" xlink:href="#path-1"></use>
        </g>
    </g>
</svg>