<?xml version="1.0" encoding="UTF-8"?>
<svg width="40px" height="40px" viewBox="0 0 40 40" version="1.1" xmlns="http://www.w3.org/2000/svg" xmlns:xlink="http://www.w3.org/1999/xlink">
    <!-- Generator: sketchtool 56.2 (101010) - https://sketch.com -->
    <title>80940EB7-CC90-4B0F-B103-67FF94F8A894</title>
    <desc>Created with sketchtool.</desc>
    <defs>
        <path d="M22.3568327,20.0000001 L29.5118325,12.8450002 C30.1634992,12.1933335 30.1634992,11.1400002 29.5118325,10.4883336 C28.8601659,9.8366669 27.8068326,9.8366669 27.1551659,10.4883336 L20.0001661,17.6433335 L12.8451663,10.4883336 C12.1934996,9.8366669 11.1401663,9.8366669 10.4884996,10.4883336 C9.836833,11.1400002 9.836833,12.1933335 10.4884996,12.8450002 L17.6434995,20.0000001 L10.4884996,27.155 C9.836833,27.8066667 9.836833,28.86 10.4884996,29.5116667 C10.8134996,29.8366667 11.2401663,30 11.666833,30 C12.0934996,30 12.5201663,29.8366667 12.8451663,29.5116667 L20.0001661,22.3566668 L27.1551659,29.5116667 C27.4801659,29.8366667 27.9068326,30 28.3334992,30 C28.7601659,30 29.1868326,29.8366667 29.5118325,29.5116667 C30.1634992,28.86 30.1634992,27.8066667 29.5118325,27.155 L22.3568327,20.0000001 Z" id="path-1"></path>
    </defs>
    <g id="Asset-Artboard-Page" stroke="none" stroke-width="1" fill="none" fill-rule="evenodd">
        <g id="27)-Icon/menu">
            <mask id="mask-2" fill="white">
                <use xlink:href="#path-1"></use>
            </mask>
            <use id="🎨-Icon-Сolor" fill="#FFFFFF" xlink:href="#path-1"></use>
        </g>
    </g>
</svg>