<?xml version="1.0" encoding="UTF-8"?>
<svg width="32px" height="32px" viewBox="0 0 32 32" version="1.1" xmlns="http://www.w3.org/2000/svg" xmlns:xlink="http://www.w3.org/1999/xlink">
    <!-- Generator: sketchtool 56.2 (101010) - https://sketch.com -->
    <title>7E40D7AA-D4D0-4550-8D68-741B0794DC53</title>
    <desc>Created with sketchtool.</desc>
    <defs>
        <path d="M10.6666667,20 C11.4,20 12,20.6 12,21.3333333 C12,22.0666667 11.4,22.6666667 10.6666667,22.6666667 C9.93333333,22.6666667 9.33333333,22.0666667 9.33333333,21.3333333 C9.33333333,20.6 9.93333333,20 10.6666667,20 Z M21.3333333,20 C22.0666667,20 22.6666667,20.6 22.6666667,21.3333333 C22.6666667,22.0666667 22.0666667,22.6666667 21.3333333,22.6666667 L16,22.6666667 C15.2666667,22.6666667 14.6666667,22.0666667 14.6666667,21.3333333 C14.6666667,20.6 15.2666667,20 16,20 L21.3333333,20 Z M24,26.6666667 L8,26.6666667 C7.26533333,26.6666667 6.66666667,26.068 6.66666667,25.3333333 L6.66666667,17.3333333 L25.3333333,17.3333333 L25.3333333,25.3333333 C25.3333333,26.068 24.7346667,26.6666667 24,26.6666667 M8,8 L9.33333333,8 L9.33333333,9.33333333 C9.33333333,10.0666667 9.93333333,10.6666667 10.6666667,10.6666667 C11.4,10.6666667 12,10.0666667 12,9.33333333 L12,8 L20,8 L20,9.33333333 C20,10.0666667 20.6,10.6666667 21.3333333,10.6666667 C22.0666667,10.6666667 22.6666667,10.0666667 22.6666667,9.33333333 L22.6666667,8 L24,8 C24.7346667,8 25.3333333,8.59866667 25.3333333,9.33333333 L25.3333333,14.6666667 L6.66666667,14.6666667 L6.66666667,9.33333333 C6.66666667,8.59866667 7.26533333,8 8,8 M24,5.33333333 L22.6666667,5.33333333 L22.6666667,4 C22.6666667,3.26666667 22.0666667,2.66666667 21.3333333,2.66666667 C20.6,2.66666667 20,3.26666667 20,4 L20,5.33333333 L12,5.33333333 L12,4 C12,3.26666667 11.4,2.66666667 10.6666667,2.66666667 C9.93333333,2.66666667 9.33333333,3.26666667 9.33333333,4 L9.33333333,5.33333333 L8,5.33333333 C5.79466667,5.33333333 4,7.128 4,9.33333333 L4,25.3333333 C4,27.5386667 5.79466667,29.3333333 8,29.3333333 L24,29.3333333 C26.2053333,29.3333333 28,27.5386667 28,25.3333333 L28,9.33333333 C28,7.128 26.2053333,5.33333333 24,5.33333333" id="path-1"></path>
    </defs>
    <g id="Asset-Artboard-Page" stroke="none" stroke-width="1" fill="none" fill-rule="evenodd">
        <g id="27)-Icon/award-fill">
            <mask id="mask-2" fill="white">
                <use xlink:href="#path-1"></use>
            </mask>
            <use id="🎨-Icon-Сolor" fill="#07B0E4" xlink:href="#path-1"></use>
        </g>
    </g>
</svg>