<?xml version="1.0" encoding="UTF-8"?>
<svg width="32px" height="32px" viewBox="0 0 32 32" version="1.1" xmlns="http://www.w3.org/2000/svg" xmlns:xlink="http://www.w3.org/1999/xlink">
    <!-- Generator: sketchtool 56.2 (101010) - https://sketch.com -->
    <title>0CFDF993-9DDF-409D-B87A-FF21551F188B</title>
    <desc>Created with sketchtool.</desc>
    <defs>
        <path d="M26.6666667,15.778 C27.4026667,15.778 28,16.3753333 28,17.1113333 L28,24.5326666 C28,26.4446666 26.444,28.0006666 24.5333333,28.0006666 L7.46666667,28.0006666 C5.556,28.0006666 4,26.4446666 4,24.5326666 L4,7.46733329 C4,5.55533329 5.556,4.00066662 7.46666667,4.00066662 L20.2226667,4.00066662 C20.9586667,4.00066662 21.556,4.59666662 21.556,5.33399995 C21.556,6.06999995 20.9586667,6.66733329 20.2226667,6.66733329 L7.46666667,6.66733329 C7.02533333,6.66733329 6.66666667,7.02599995 6.66666667,7.46733329 L6.66666667,24.5326666 C6.66666667,24.974 7.02533333,25.334 7.46666667,25.334 L24.5333333,25.334 C24.9746667,25.334 25.3333333,24.974 25.3333333,24.5326666 L25.3333333,17.1113333 C25.3333333,16.3753333 25.9306667,15.778 26.6666667,15.778 Z M14.2981336,14.6393329 L16.3048003,16.7433328 L24.3754669,8.40599979 C24.8861335,7.87799981 25.7301335,7.86199981 26.2608002,8.37533313 C26.7901335,8.8873331 26.8034669,9.73133307 26.2914669,10.2606664 L17.2554669,19.5939993 C17.0048003,19.8539993 16.6594669,20.000666 16.2981336,20.000666 L16.2928003,20.000666 C15.9301336,19.9993326 15.5834669,19.8499993 15.3328003,19.5873327 L12.3688003,16.4806661 C11.859467,15.9473328 11.8808003,15.1033328 12.4128003,14.5953329 C12.9461336,14.0859996 13.7888003,14.1073329 14.2981336,14.6393329 Z" id="path-1"></path>
    </defs>
    <g id="Asset-Artboard-Page" stroke="none" stroke-width="1" fill="none" fill-rule="evenodd">
        <g id="27)-Icon/award-fill-Copy-2">
            <mask id="mask-2" fill="white">
                <use xlink:href="#path-1"></use>
            </mask>
            <use id="🎨-Icon-Сolor" fill="#07B0E4" xlink:href="#path-1"></use>
        </g>
    </g>
</svg>