<?xml version="1.0" encoding="UTF-8"?>
<svg width="33px" height="32px" viewBox="0 0 33 32" version="1.1" xmlns="http://www.w3.org/2000/svg" xmlns:xlink="http://www.w3.org/1999/xlink">
    <!-- Generator: sketchtool 56.2 (101010) - https://sketch.com -->
    <title>CFB8600E-073E-4C2A-B62B-2868F1D126EB</title>
    <desc>Created with sketchtool.</desc>
    <defs>
        <path d="M26.6666667,18.6666667 C26.6666667,19.4013333 26.0693333,20 25.3333333,20 L16.116,20 L15.884,20 L6.66666667,20 C5.93066667,20 5.33333333,19.4013333 5.33333333,18.6666667 L5.33333333,8 C5.33333333,7.26533333 5.93066667,6.66666667 6.66666667,6.66666667 L25.3333333,6.66666667 C26.0693333,6.66666667 26.6666667,7.26533333 26.6666667,8 L26.6666667,18.6666667 Z M25.3333333,4 L6.66666667,4 C4.46133333,4 2.66666667,5.79466667 2.66666667,8 L2.66666667,18.6666667 C2.66666667,20.872 4.46133333,22.6666667 6.66666667,22.6666667 L14.6666667,22.6666667 L14.6666667,25.3333333 L9.33333333,25.3333333 C8.6,25.3333333 8,25.9333333 8,26.6666667 C8,27.4 8.6,28 9.33333333,28 L22.6666667,28 C23.4,28 24,27.4 24,26.6666667 C24,25.9333333 23.4,25.3333333 22.6666667,25.3333333 L17.3333333,25.3333333 L17.3333333,22.6666667 L25.3333333,22.6666667 C27.5386667,22.6666667 29.3333333,20.872 29.3333333,18.6666667 L29.3333333,8 C29.3333333,5.79466667 27.5386667,4 25.3333333,4 L25.3333333,4 Z" id="path-1"></path>
    </defs>
    <g id="Asset-Artboard-Page" stroke="none" stroke-width="1" fill="none" fill-rule="evenodd">
        <g id="27)-Icon/award-fill" transform="translate(0.333333, 0.000000)">
            <mask id="mask-2" fill="white">
                <use xlink:href="#path-1"></use>
            </mask>
            <use id="🎨-Icon-Сolor" fill="#07B0E4" xlink:href="#path-1"></use>
        </g>
    </g>
</svg>