<?xml version="1.0" encoding="UTF-8"?>
<svg width="28px" height="27px" viewBox="0 0 28 27" version="1.1" xmlns="http://www.w3.org/2000/svg" xmlns:xlink="http://www.w3.org/1999/xlink">
    <!-- Generator: sketchtool 56.2 (101010) - https://sketch.com -->
    <title>B0086BFB-6F1D-4EAF-B55E-1C7DF632E8ED</title>
    <desc>Created with sketchtool.</desc>
    <defs>
        <path d="M16.2411103,21.724444 C17.4066659,20.0599996 18.6188881,17.6122218 18.8611103,14.4444441 L22.1444437,14.4444441 C21.7188882,17.8355552 19.3788881,20.6333329 16.2411103,21.724444 L16.2411103,21.724444 Z M4.52111101,14.4444441 L7.84555526,14.4444441 C8.07444414,17.624444 9.27111074,20.0622216 10.4522218,21.7344438 C7.29999974,20.6488883 4.94888876,17.8455551 4.52111101,14.4444441 L4.52111101,14.4444441 Z M10.4866664,4.92111088 C9.31777752,6.58555531 8.09444423,9.04111085 7.84999979,12.2222219 L4.52111101,12.2222219 C4.94999988,8.80888863 7.31777759,5.99666643 10.4866664,4.92111088 L10.4866664,4.92111088 Z M10.0877775,12.2222222 C10.4277775,8.58666664 12.2877775,6.05555552 13.362222,4.88555552 C14.4733331,6.07555552 16.3044442,8.5833333 16.6211108,12.2222222 L10.0877775,12.2222222 Z M10.0888886,14.4444441 L16.6244439,14.4444441 C16.2844439,18.085555 14.4199995,20.616666 13.3466662,21.7866659 C12.1833329,20.5533327 10.3988886,18.0799995 10.0888886,14.4444441 L10.0888886,14.4444441 Z M22.1444437,12.2222219 L18.8644437,12.2222219 C18.6366659,9.05666643 17.4533325,6.62666648 16.277777,4.95666651 C19.397777,6.05666649 21.7211104,8.84444422 22.1444437,12.2222219 L22.1444437,12.2222219 Z M24.4444439,13.333333 C24.4444439,7.21777761 19.4766662,2.24222217 13.3644441,2.22444439 C13.3599997,2.22444439 13.3555552,2.22333328 13.3499997,2.22333328 C13.3455552,2.22333328 13.3388886,2.22222217 13.333333,2.22222217 C7.20666649,2.22222217 2.22222217,7.20777761 2.22222217,13.333333 C2.22222217,19.4599995 7.20666649,24.4444439 13.333333,24.4444439 C13.3399997,24.4444439 13.3455552,24.4433328 13.3499997,24.4433328 C13.3522219,24.4433328 13.353333,24.4444439 13.3555552,24.4444439 C13.3588886,24.4444439 13.3622219,24.4422216 13.3644441,24.4422216 C19.4766662,24.425555 24.4444439,19.4488884 24.4444439,13.333333 L24.4444439,13.333333 Z" id="path-1"></path>
    </defs>
    <g id="Asset-Artboard-Page" stroke="none" stroke-width="1" fill="none" fill-rule="evenodd">
        <g id="27)-Icon/globe" transform="translate(0.992124, 0.000000)">
            <mask id="mask-2" fill="white">
                <use xlink:href="#path-1"></use>
            </mask>
            <use id="🎨-Icon-Сolor" fill="#FFFFFF" xlink:href="#path-1"></use>
        </g>
    </g>
</svg>