<?xml version="1.0" encoding="UTF-8"?>
<svg width="32px" height="32px" viewBox="0 0 32 32" version="1.1" xmlns="http://www.w3.org/2000/svg" xmlns:xlink="http://www.w3.org/1999/xlink">
    <!-- Generator: sketchtool 56.2 (101010) - https://sketch.com -->
    <title>B3149A95-3052-49F5-87F1-B07A661C4A4F</title>
    <desc>Created with sketchtool.</desc>
    <g id="Landing-Page---Desktop" stroke="none" stroke-width="1" fill="none" fill-rule="evenodd">
        <g id="1.2.0.-Landing-Page---Classic-On-Line" transform="translate(-1158.000000, -6167.000000)">
            <g id="Footer" transform="translate(0.000000, 6039.000000)">
                <g id="Social-media" transform="translate(1110.000000, 128.000000)">
                    <g id="Instagram" transform="translate(48.000000, 0.000000)">
                        <rect id="Rectangle" fill="#F39208" x="0" y="0" width="32" height="32" rx="4"></rect>
                        <path d="M16.0002981,4.01156756 C11.0851178,4.01156756 6.41765941,3.57467768 4.63487439,8.14646651 C3.89847724,10.0346965 4.00541727,12.4869607 4.00541727,15.9983109 C4.00541727,19.0795343 3.90659927,21.9754514 4.63487439,23.8488028 C6.41359839,28.4232968 11.1189596,27.9850543 15.9975907,27.9850543 C20.7043056,27.9850543 25.557217,28.4746956 27.3616607,23.8488028 C28.0994116,21.9416364 27.9911179,19.5258924 27.9911179,15.9983109 C27.9911179,11.3156089 28.2496691,8.29254734 25.9768551,6.02288413 C23.675614,3.72346371 20.5635238,4.01156756 15.9948834,4.01156756 L16.0002981,4.01156756 Z M14.9254831,6.17167015 C25.178189,6.15543895 26.4831281,5.01654954 25.762975,20.8379146 C25.5071312,26.4336218 21.2430668,25.8195413 16.0016517,25.8195413 C6.44473283,25.8195413 6.16993757,25.5463161 6.16993757,15.9929005 C6.16993757,6.32857178 6.92799346,6.17708055 14.9254831,6.16896495 L14.9254831,6.17167015 Z M22.403163,8.16134511 C21.608558,8.16134511 20.9642105,8.80518283 20.9642105,9.59915918 C20.9642105,10.3931355 21.608558,11.0369732 22.403163,11.0369732 C23.197768,11.0369732 23.8421155,10.3931355 23.8421155,9.59915918 C23.8421155,8.80518283 23.197768,8.16134511 22.403163,8.16134511 L22.403163,8.16134511 Z M16.0002981,9.84262722 C12.5985223,9.84262722 9.84109396,12.5992265 9.84109396,15.9983109 C9.84109396,19.3973954 12.5985223,22.1526421 16.0002981,22.1526421 C19.4020739,22.1526421 22.1581485,19.3973954 22.1581485,15.9983109 C22.1581485,12.5992265 19.4020739,9.84262722 16.0002981,9.84262722 Z M16.0002981,12.0027298 C21.2863842,12.0027298 21.2931526,19.9938921 16.0002981,19.9938921 C10.7155656,19.9938921 10.7074435,12.0027298 16.0002981,12.0027298 Z" id="Shape" fill="#FFFFFF" fill-rule="nonzero"></path>
                    </g>
                </g>
            </g>
        </g>
    </g>
</svg>