<?xml version="1.0" encoding="UTF-8"?>
<svg width="32px" height="32px" viewBox="0 0 32 32" version="1.1" xmlns="http://www.w3.org/2000/svg" xmlns:xlink="http://www.w3.org/1999/xlink">
    <!-- Generator: sketchtool 56.2 (101010) - https://sketch.com -->
    <title>FB74021B-7F7B-48DC-A343-26F54EF7854E</title>
    <desc>Created with sketchtool.</desc>
    <g id="Asset-Artboard-Page" stroke="none" stroke-width="1" fill="none" fill-rule="evenodd">
        <g id="27)-Icon/award-fill" fill="#07B0E4">
            <path d="M25.5573329,8.62239995 L23.6399996,10.4757333 C23.3813329,10.7250666 23.0466663,10.8504 22.7133329,10.8504 C22.3639996,10.8504 22.0159996,10.7130666 21.7546662,10.4424 C21.2439996,9.91439996 21.2573329,9.06906662 21.7879996,8.55839994 L23.7053329,6.70639992 C24.2346663,6.19573325 25.0826663,6.20906658 25.5893329,6.73839992 C26.1013329,7.26639993 26.0866663,8.11173327 25.5573329,8.62239995 M10.2453331,10.4424 C9.98399977,10.7130666 9.63599977,10.8504 9.28666645,10.8504 C8.95333312,10.8504 8.61866646,10.7264 8.3599998,10.4770666 L6.44133317,8.62373335 C5.91199985,8.11173336 5.89733318,7.26640005 6.40933317,6.73840006 C6.92133316,6.20906674 7.76399981,6.19306674 8.29466647,6.70506673 L10.2133331,8.55706669 C10.7426664,9.06906668 10.7573331,9.91439999 10.2453331,10.4424 M8,15.9997333 C8,16.7370666 7.40266667,17.3330666 6.66666667,17.3330666 L4,17.3330666 C3.264,17.3330666 2.66666667,16.7370666 2.66666667,15.9997333 C2.66666667,15.2624 3.264,14.6664 4,14.6664 L6.66666667,14.6664 C7.40266667,14.6664 8,15.2624 8,15.9997333 M29.3333333,15.9997333 C29.3333333,16.7370666 28.7373333,17.3330666 28,17.3330666 L25.3333333,17.3330666 C24.596,17.3330666 24,16.7370666 24,15.9997333 C24,15.2624 24.596,14.6664 25.3333333,14.6664 L28,14.6664 C28.7373333,14.6664 29.3333333,15.2624 29.3333333,15.9997333 M14.6666667,6.66639996 L14.6666667,3.99973329 C14.6666667,3.26239996 15.264,2.66639996 16,2.66639996 C16.736,2.66639996 17.3333333,3.26239996 17.3333333,3.99973329 L17.3333333,6.66639996 C17.3333333,7.40373329 16.736,7.99973329 16,7.99973329 C15.264,7.99973329 14.6666667,7.40373329 14.6666667,6.66639996 M18.0013333,19.4570666 C17.588,19.6957333 17.3333333,20.1370666 17.3333333,20.6130666 L17.3333333,26.6664 L14.6666667,26.6664 L14.6666667,20.6130666 C14.6666667,20.1370666 14.412,19.6957333 13.9986667,19.4570666 C12.7653333,18.7490666 12,17.4237333 12,15.9997333 C12,13.7944 13.7946667,11.9997333 16,11.9997333 C18.2053333,11.9997333 20,13.7944 20,15.9997333 C20,17.4237333 19.2346667,18.7490666 18.0013333,19.4570666 M16,9.33306662 C12.324,9.33306662 9.33333333,12.3237333 9.33333333,15.9997333 C9.33333333,18.1050666 10.3373333,20.0824 12,21.3277333 L12,26.6664 C12,28.1370666 13.196,29.3330666 14.6666667,29.3330666 L17.3333333,29.3330666 C18.804,29.3330666 20,28.1370666 20,26.6664 L20,21.3277333 C21.6613333,20.0824 22.6666667,18.1050666 22.6666667,15.9997333 C22.6666667,12.3237333 19.676,9.33306662 16,9.33306662" id="🎨-Icon-Сolor"></path>
        </g>
    </g>
</svg>