<?xml version="1.0" encoding="UTF-8"?>
<svg width="39px" height="39px" viewBox="0 0 39 39" version="1.1" xmlns="http://www.w3.org/2000/svg" xmlns:xlink="http://www.w3.org/1999/xlink">
    <!-- Generator: sketchtool 56.2 (101010) - https://sketch.com -->
    <title>B6CFE74B-7BA8-4AB1-B1C8-159BED3D3704</title>
    <desc>Created with sketchtool.</desc>
    <g id="Landing-Page---Responsive" stroke="none" stroke-width="1" fill="none" fill-rule="evenodd">
        <g id="Landing-page-responsive" transform="translate(-264.000000, -7968.000000)" fill="#F39208">
            <g id="Footer" transform="translate(0.000000, 7824.000000)">
                <g id="Social-media" transform="translate(72.000000, 144.000000)">
                    <g id="Linkedin" transform="translate(192.000000, 0.000000)">
                        <path d="M34.9264084,-1.81188398e-13 L3.47359162,-1.81188398e-13 C1.5552,-1.81188398e-13 -1.42108547e-14,1.5552 -1.42108547e-14,3.47359162 L-1.42108547e-14,34.9263079 C-1.42108547e-14,36.8448 1.5552,38.4 3.47359162,38.4 L34.9263079,38.4 C36.8448,38.4 38.4,36.8448 38.4,34.9263079 L38.4,3.47359162 C38.4,1.5552 36.8448,-1.81188398e-13 34.9264084,-1.81188398e-13 Z M11.8825885,33.1570932 C11.8825885,33.715401 11.4300314,34.1679581 10.8717236,34.1679581 L6.56871204,34.1679581 C6.01040419,34.1679581 5.55784712,33.715401 5.55784712,33.1570932 L5.55784712,15.119045 C5.55784712,14.5607372 6.01040419,14.1081801 6.56871204,14.1081801 L10.8717236,14.1081801 C11.4300314,14.1081801 11.8825885,14.5607372 11.8825885,15.119045 L11.8825885,33.1570932 Z M8.7202178,12.4078241 C6.46255916,12.4078241 4.6323267,10.5775916 4.6323267,8.31993298 C4.6323267,6.06227435 6.46255916,4.23204188 8.7202178,4.23204188 C10.9778764,4.23204188 12.8081089,6.06227435 12.8081089,8.31993298 C12.8081089,10.5775916 10.977977,12.4078241 8.7202178,12.4078241 Z M34.3700132,33.2385173 C34.3700132,33.7517906 33.9538429,34.1679581 33.4405696,34.1679581 L28.8231204,34.1679581 C28.3098471,34.1679581 27.8936796,33.7517906 27.8936796,33.2385173 L27.8936796,24.7776503 C27.8936796,23.5154764 28.2639079,19.2467435 24.5952,19.2467435 C21.7494785,19.2467435 21.1722723,22.1685613 21.0563686,23.4797906 L21.0563686,33.2385173 C21.0563686,33.7517906 20.6403016,34.1679581 20.1269277,34.1679581 L15.6610681,34.1679581 C15.1477948,34.1679581 14.7316272,33.7517906 14.7316272,33.2385173 L14.7316272,15.0376209 C14.7316272,14.5243476 15.1477948,14.1081801 15.6610681,14.1081801 L20.1269277,14.1081801 C20.640201,14.1081801 21.0563686,14.5243476 21.0563686,15.0376209 L21.0563686,16.6113173 C22.1115644,15.0277696 23.6797319,13.8055037 27.018622,13.8055037 C34.4123309,13.8055037 34.3700132,20.7130806 34.3700132,24.5084482 L34.3700132,33.2385173 L34.3700132,33.2385173 Z" id="Shape"></path>
                    </g>
                </g>
            </g>
        </g>
    </g>
</svg>