<?xml version="1.0" encoding="UTF-8"?>
<svg width="33px" height="32px" viewBox="0 0 33 32" version="1.1" xmlns="http://www.w3.org/2000/svg" xmlns:xlink="http://www.w3.org/1999/xlink">
    <!-- Generator: sketchtool 56.2 (101010) - https://sketch.com -->
    <title>1A313811-32D9-41B1-8973-BEA407289074</title>
    <desc>Created with sketchtool.</desc>
    <defs>
        <path d="M20,14.6666667 L12,14.6666667 C11.2666667,14.6666667 10.6666667,15.2666667 10.6666667,16 C10.6666667,16.7333333 11.2666667,17.3333333 12,17.3333333 L20,17.3333333 C20.7333333,17.3333333 21.3333333,16.7333333 21.3333333,16 C21.3333333,15.2666667 20.7333333,14.6666667 20,14.6666667 M16,26.6666667 C10.1186667,26.6666667 5.33333333,21.8813333 5.33333333,16 C5.33333333,10.1186667 10.1186667,5.33333333 16,5.33333333 C21.8813333,5.33333333 26.6666667,10.1186667 26.6666667,16 C26.6666667,21.8813333 21.8813333,26.6666667 16,26.6666667 M16,2.66666667 C8.648,2.66666667 2.66666667,8.648 2.66666667,16 C2.66666667,23.352 8.648,29.3333333 16,29.3333333 C23.352,29.3333333 29.3333333,23.352 29.3333333,16 C29.3333333,8.648 23.352,2.66666667 16,2.66666667" id="path-1"></path>
    </defs>
    <g id="Asset-Artboard-Page" stroke="none" stroke-width="1" fill="none" fill-rule="evenodd">
        <g id="27)-Icon/chevron-down" transform="translate(0.658790, 0.000000)">
            <mask id="mask-2" fill="white">
                <use xlink:href="#path-1"></use>
            </mask>
            <use id="🎨-Icon-Сolor" fill="#FFFFFF" xlink:href="#path-1"></use>
        </g>
    </g>
</svg>