<?xml version="1.0" encoding="UTF-8"?>
<svg width="33px" height="32px" viewBox="0 0 33 32" version="1.1" xmlns="http://www.w3.org/2000/svg" xmlns:xlink="http://www.w3.org/1999/xlink">
    <!-- Generator: sketchtool 56.2 (101010) - https://sketch.com -->
    <title>E03EDB6C-3BD5-4A1D-9463-93C2A4249E91</title>
    <desc>Created with sketchtool.</desc>
    <g id="Asset-Artboard-Page" stroke="none" stroke-width="1" fill="none" fill-rule="evenodd">
        <g id="27)-Icon/award-fill" transform="translate(0.658790, 0.000000)" fill="#07B0E4">
            <path d="M12.8079999,11.6745332 L7.7653334,11.6745332 C6.24666677,11.6745332 4.89733347,10.7505332 4.34000015,9.40253321 L9.43466668,9.40253321 C10.9306666,9.40253321 12.2586666,10.3265332 12.8079999,11.6745332 L12.8079999,11.6745332 Z M5.79466661,14.1051998 C6.42799995,14.3078665 7.08666662,14.4105331 7.76533329,14.4105331 L13.0746667,14.4105331 L13.0746667,14.7118665 C13.0746667,16.7185331 11.4413333,18.3518664 9.43466663,18.3518664 C7.42666662,18.3518664 5.79466661,16.7185331 5.79466661,14.7118665 L5.79466661,14.1051998 Z M26.429334,14.4105331 L26.429334,14.7118664 C26.429334,16.7185331 24.7960007,18.3518664 22.789334,18.3518664 C20.781334,18.3518664 19.149334,16.7185331 19.149334,14.7118664 L19.149334,13.0425331 C19.149334,12.7811997 19.1760006,12.5238664 19.2306673,12.2731997 C20.7080006,13.6411997 22.6546673,14.4105331 24.693334,14.4105331 L26.429334,14.4105331 Z M26.162667,11.6745332 L24.6933336,11.6745332 C23.1986669,11.6745332 21.8120003,11.0651999 20.8120003,9.98919988 C21.3973336,9.60786655 22.0840003,9.40253321 22.7893336,9.40253321 C24.2853336,9.40253321 25.6133336,10.3265332 26.162667,11.6745332 L26.162667,11.6745332 Z M30.8146665,25.6145328 C30.6453331,24.0985328 30.0773331,22.6851995 29.1653331,21.5118662 L29.1653331,13.042533 C29.1653331,9.5265331 26.3053332,6.66653315 22.7893332,6.66653315 C19.2733332,6.66653315 16.4133332,9.5265331 16.4133332,13.042533 L16.4133332,21.5585329 C16.3079999,21.6958662 16.2079999,21.8371995 16.1119999,21.9798662 C15.8266666,21.5518662 15.4999999,21.1478662 15.1346666,20.7745329 C14.6679999,20.2971996 14.1519999,19.8825329 13.5973332,19.5385329 C14.9959999,18.3345329 15.8093332,16.5838663 15.8093332,14.7118663 L15.8093332,13.042533 C15.8093332,9.5265331 12.9493333,6.66653315 9.43466661,6.66653315 L2.70133332,6.66653315 C1.94666666,6.66653315 1.33333333,7.27986647 1.33333333,8.03453313 C1.33333333,9.6585331 1.944,11.1905331 3.05866665,12.3758664 L3.05866665,14.7118663 C3.05866665,16.5798663 3.87066665,18.3278663 5.26533331,19.5331996 C3.13466665,20.8438662 1.67866666,23.1051995 1.4,25.6145328 L1.33333333,26.2065328 L4.05866665,26.2065328 L4.12533331,25.7505328 C4.50666664,23.1358662 6.83866663,21.0878662 9.43466661,21.0878662 C12.0639999,21.0878662 14.3239999,23.0905329 14.6919999,25.7465328 L14.7546666,26.2065328 L17.4679999,26.2065328 L17.5306666,25.7465328 C17.8986666,23.0905329 20.1599999,21.0878662 22.7893332,21.0878662 C25.3853332,21.0878662 27.7173332,23.1358662 28.0986665,25.7505328 L28.1653331,26.2065328 L30.8799998,26.2065328 L30.8146665,25.6145328 Z" id="Parents"></path>
        </g>
    </g>
</svg>