<?xml version="1.0" encoding="UTF-8"?>
<svg width="24px" height="28px" viewBox="0 0 24 28" version="1.1" xmlns="http://www.w3.org/2000/svg" xmlns:xlink="http://www.w3.org/1999/xlink">
    <!-- Generator: sketchtool 56.2 (101010) - https://sketch.com -->
    <title>02D5D231-05DE-4217-8771-489E18210C7B</title>
    <desc>Created with sketchtool.</desc>
    <g id="Asset-Artboard-Page" stroke="none" stroke-width="1" fill="none" fill-rule="evenodd">
        <g id="27)-Icon/award-fill" transform="translate(-4.007876, -2.000000)" fill="#07B0E4">
            <path d="M9.59312725,9.89898507 C9.59312725,7.39337978 11.6316016,5.35503817 14.1372069,5.35503817 C16.6428123,5.35503817 18.6811539,7.39337978 18.6811539,9.89898507 C18.6811539,12.4045904 16.6428123,14.442932 14.1372069,14.442932 C11.6316016,14.442932 9.59312725,12.4045904 9.59312725,9.89898507 M14.1372069,16.9986868 C10.2223811,16.9986868 7.03737291,13.8138111 7.03737291,9.89898523 C7.03737291,5.98415932 10.2223811,2.79928366 14.1372069,2.79928366 C18.0520327,2.79928366 21.2369083,5.98415932 21.2369083,9.89898523 C21.2369083,13.8138111 18.0520327,16.9986868 14.1372069,16.9986868 Z M18.3330286,19.0967433 C18.9925311,19.3447035 19.3273902,20.0830119 19.07943,20.7425144 C18.9593636,21.0619837 18.722017,21.3156487 18.4110386,21.4565443 C18.1001928,21.5975725 17.7529954,21.6091147 17.4336588,21.4889157 C16.656478,21.1967764 15.8369754,21.0485841 14.9977051,21.0485841 L13.4790317,21.0485841 C9.66158548,21.0485841 6.55578105,24.1543883 6.55578105,27.9719671 C6.55578105,28.6765774 5.98238136,29.2497117 5.27790372,29.2497117 C4.57329341,29.2497117 4.00002638,28.6765774 4.00002638,27.9719671 C4.00002638,22.7453005 8.25236486,18.4929622 13.4790317,18.4929622 L14.9977051,18.4929622 C16.1453005,18.4929622 17.2674233,18.6960799 18.3330286,19.0967433 Z M24.0117941,21.513566 C25.887217,21.513566 27.4130545,22.9196026 27.4130545,24.6476292 C27.4130545,25.490747 27.0719599,26.2835829 26.4527891,26.8803325 C26.1193894,27.2016592 25.7193894,27.4482927 25.2867526,27.6007305 L25.2867526,27.9720738 C25.2867526,28.6765515 24.7134856,29.2498185 24.009008,29.2498185 C23.3043977,29.2498185 22.7311307,28.6765515 22.7311307,27.9720738 L22.7311307,27.592107 C22.3106995,27.501228 21.7475154,27.3521069 21.157532,27.1175464 C20.5028056,26.8572479 20.1818769,26.1129692 20.4421755,25.4581102 C20.7026066,24.8033838 21.4470179,24.4823224 22.1017443,24.7427536 C22.9406166,25.0761533 23.850202,25.2260704 24.2283115,25.2260704 C24.5574657,25.2260704 24.8572999,24.9503821 24.8572999,24.6476292 C24.8572999,24.3395695 24.4622087,24.0693207 24.0117941,24.0693207 C21.9830047,24.0693207 20.4530544,22.7219243 20.4530544,20.9352575 C20.4530544,19.5305477 21.3988587,18.2949921 22.7311307,17.918342 L22.7311307,17.4420567 C22.7311307,16.7374464 23.3043977,16.164312 24.009008,16.164312 C24.7134856,16.164312 25.2867526,16.7374464 25.2867526,17.4420567 L25.2867526,18.011609 C25.6602186,18.1042126 26.0408488,18.2264017 26.4436349,18.3829523 C26.7617775,18.5067334 27.0126565,18.7468661 27.1501026,19.0593039 C27.2875487,19.371609 27.2951108,19.7190718 27.1713298,20.0370817 C27.0476813,20.3552244 26.807416,20.6059706 26.4951108,20.7434167 C26.1824077,20.8808629 25.8352103,20.8885577 25.5174657,20.7647766 C24.5926233,20.4052409 24.0184276,20.3566837 23.5786266,20.3566837 C23.2643314,20.3566837 23.0086763,20.6161862 23.0086763,20.9352575 C23.0086763,21.2649425 23.4398538,21.513566 24.0117941,21.513566 Z" id="Payments"></path>
        </g>
    </g>
</svg>