<?xml version="1.0" encoding="UTF-8"?>
<svg width="32px" height="32px" viewBox="0 0 32 32" version="1.1" xmlns="http://www.w3.org/2000/svg" xmlns:xlink="http://www.w3.org/1999/xlink">
    <!-- Generator: sketchtool 56.2 (101010) - https://sketch.com -->
    <title>265925E9-93E2-4D24-AF06-0477452E1429</title>
    <desc>Created with sketchtool.</desc>
    <defs>
        <path d="M15.999396,21.4000001 C16.211396,21.4000001 16.423396,21.4506668 16.6167293,21.5506668 L21.6420627,24.1773335 L20.6860627,18.6346668 C20.6100627,18.2000001 20.7553961,17.7573334 21.0727294,17.4493334 L25.1207294,13.5346667 L19.5167294,12.7186667 C19.083396,12.656 18.7087294,12.3853334 18.5140627,11.9933334 L15.999396,6.93466663 L13.4847293,11.9933334 C13.2900626,12.3853334 12.915396,12.656 12.4820626,12.7186667 L6.87806257,13.5346667 L10.9260626,17.4493334 C11.243396,17.7573334 11.3887293,18.2000001 11.3127293,18.6346668 L10.3567293,24.1773335 L15.3820627,21.5506668 C15.575396,21.4506668 15.787396,21.4000001 15.999396,21.4000001 M23.4153961,27.9400005 C23.2033961,27.9400005 22.9913961,27.8906672 22.7980628,27.7893339 L15.999396,24.2373338 L9.20072922,27.7893339 C8.75006254,28.0240005 8.20606253,27.9826672 7.79939586,27.6840005 C7.38872919,27.3853339 7.18472918,26.8800005 7.27006252,26.3800005 L8.56606254,18.8760003 L3.07272911,13.5626669 C2.70606244,13.2093336 2.57539577,12.6786669 2.73139577,12.1946669 C2.88606244,11.7106669 3.30472911,11.3586668 3.80739579,11.2853335 L11.4087293,10.1813335 L14.8047293,3.34666668 C15.255396,2.44 16.743396,2.44 17.1940627,3.34666668 L20.5900628,10.1813335 L28.1913962,11.2853335 C28.6940629,11.3586668 29.1127296,11.7106669 29.2673962,12.1946669 C29.4233962,12.6786669 29.2927296,13.2093336 28.9260629,13.5626669 L23.4327295,18.8760003 L24.7287295,26.3800005 C24.8140628,26.8800005 24.6100628,27.3853339 24.1993962,27.6840005 C23.9687295,27.8546672 23.6927295,27.9400005 23.4153961,27.9400005" id="path-1"></path>
    </defs>
    <g id="Asset-Artboard-Page" stroke="none" stroke-width="1" fill="none" fill-rule="evenodd">
        <g id="27)-Icon/award-fill-Copy">
            <mask id="mask-2" fill="white">
                <use xlink:href="#path-1"></use>
            </mask>
            <use id="🎨-Icon-Сolor" fill="#07B0E4" xlink:href="#path-1"></use>
        </g>
    </g>
</svg>