<?xml version="1.0" encoding="UTF-8"?>
<svg width="31px" height="27px" viewBox="0 0 31 27" version="1.1" xmlns="http://www.w3.org/2000/svg" xmlns:xlink="http://www.w3.org/1999/xlink">
    <!-- Generator: sketchtool 56.2 (101010) - https://sketch.com -->
    <title>75766078-2503-4C5C-B65C-5084ADC8C18E</title>
    <desc>Created with sketchtool.</desc>
    <g id="Asset-Artboard-Page" stroke="none" stroke-width="1" fill="none" fill-rule="evenodd">
        <g id="27)-Icon/award-fill" transform="translate(-0.666667, -4.000000)" fill="#07B0E4">
            <path d="M30.9629618,27.7037036 C30.9629618,28.5214814 30.3007396,29.1851851 29.4814804,29.1851851 C28.6622212,29.1851851 27.999999,28.5214814 27.999999,27.7037036 C27.999999,25.2533331 26.005925,23.2592589 23.5555547,23.2592589 C22.5437029,23.2592589 21.5822214,23.6059256 20.8059252,24.2207404 C21.6118511,25.6962961 22.0740733,27.388148 22.0740733,29.1851851 C22.0740733,30.0029629 21.4118511,30.6666667 20.5925919,30.6666667 C19.7733326,30.6666667 19.1111104,30.0029629 19.1111104,29.1851851 C19.1111104,25.1007405 15.7881476,21.7777774 11.7037033,21.7777774 C7.61925902,21.7777774 4.29629618,25.1007405 4.29629618,29.1851851 C4.29629618,30.0029629 3.63407399,30.6666667 2.81481476,30.6666667 C1.99555553,30.6666667 1.33333333,30.0029629 1.33333333,29.1851851 C1.33333333,23.4666663 5.98666649,18.8148142 11.7037033,18.8148142 C14.558518,18.8148142 17.1451846,19.9748143 19.0222215,21.8459255 C20.3096289,20.8503699 21.894814,20.2962958 23.5555547,20.2962958 C27.639999,20.2962958 30.9629618,23.6192589 30.9629618,27.7037036 M23.5555553,12.8888887 C24.3733332,12.8888887 25.0370369,13.5540739 25.0370369,14.3703702 C25.0370369,15.1866666 24.3733332,15.8518518 23.5555553,15.8518518 C22.7377775,15.8518518 22.0740738,15.1866666 22.0740738,14.3703702 C22.0740738,13.5540739 22.7377775,12.8888887 23.5555553,12.8888887 M23.555555,18.8148149 C26.0059253,18.8148149 27.9999994,16.8207409 27.9999994,14.3703705 C27.9999994,11.9200002 26.0059253,9.92592621 23.555555,9.92592621 C21.1051847,9.92592621 19.1111107,11.9200002 19.1111107,14.3703705 C19.1111107,16.8207409 21.1051847,18.8148149 23.555555,18.8148149 M11.7037036,6.9629631 C13.3377777,6.9629631 14.6666667,8.29185206 14.6666667,9.92592621 C14.6666667,11.5600004 13.3377777,12.8888893 11.7037036,12.8888893 C10.0696294,12.8888893 8.74074046,11.5600004 8.74074046,9.92592621 C8.74074046,8.29185206 10.0696294,6.9629631 11.7037036,6.9629631 M11.7037039,15.8518524 C14.9718522,15.8518524 17.6296301,13.1940745 17.6296301,9.92592621 C17.6296301,6.6577779 14.9718522,4 11.7037039,4 C8.43555558,4 5.77777767,6.6577779 5.77777767,9.92592621 C5.77777767,13.1940745 8.43555558,15.8518524 11.7037039,15.8518524" id="🎨-Icon-Сolor"></path>
        </g>
    </g>
</svg>